<?xml version="1.0" encoding="utf-8"?>
<!-- Generator: Adobe Illustrator 26.3.1, SVG Export Plug-In . SVG Version: 6.00 Build 0)  -->
<svg version="1.1" id="Layer_1" xmlns="http://www.w3.org/2000/svg" xmlns:xlink="http://www.w3.org/1999/xlink" x="0px" y="0px"
	 viewBox="0 0 120 32.6" style="enable-background:new 0 0 120 32.6;" xml:space="preserve">
<style type="text/css">
	.st0{fill:#E6E1DD;}
</style>
<path class="st0" d="M24.4,7.1l0,0.1c-0.5,2.6-1.4,4.1-3,4.8c-0.4,0.2-0.8,0.2-1.2,0.2c-2.1,0-3.1-2-3.5-2.7c-0.3-0.6-0.7-1.4-1-2.1
	C14.8,5.5,13.4,3,12,3c-0.4,0-0.9,0.1-1.4,0.3c-1,0.5-1,1.1-1,1.3C9.4,6.3,10.9,8,13,9.9l0.8,0.7c1.2,1.1,2.5,2.3,3.4,3.9
	c0.5,0.9,0.9,1.8,1,2.8c0.1,1.1-0.3,2.1-0.8,3.2c-0.4,0.7-0.8,1.2-1.3,1.8c-1.4,1.6-1.9,3-1.4,4.3c0.3,0.7,1,1.2,1.6,1.3
	c0.3,0,0.5,0.1,0.8,0.1c1.9,0,2.7-1.2,3.2-4.6c0.2-1.4,0.9-2.9,1.5-4.1c0.9-1.6,2.2-2.3,3.8-2.4l0.4,0c1.2,0,2.3,0.5,3.1,1.4
	c0.6,0.7,1,1.5,1.2,2.6c0.2,0.9,0.1,1.9,0,2.8l-0.1,0.8c-0.2,1.5-0.5,3.9,0.2,4.8c0.1,0.1,0.3,0.4,1,0.4l0.3,0c1,0,1.5-0.5,1.7-0.8
	c0.7-0.8,1.1-2.2,0.9-4.4c0-0.4-0.1-0.9-0.2-1.5c-0.2-1.3-0.5-3-0.5-4.5c0.1-2.2,0.6-3.5,2-4.4c0.5-0.3,1-0.4,1.5-0.4
	c1,0,2,0.4,2.7,1.2c0.6,0.7,1,1.4,1.2,1.8c0.3,0.6,0.5,1.3,0.7,1.9c0.4,1.2,0.8,2.3,1.5,3c0.5,0.5,1,0.7,1.5,0.7
	c0.4,0,0.9-0.2,1.3-0.6c0.7-0.7,1-1.7,0.9-2.8c-0.1-1.5-0.7-3.1-1.8-4c-0.5-0.5-1.5-0.8-2.2-1.2c-1.1-0.6-2-1.1-2.8-2.1
	C38.8,10.3,38.5,8.7,39,7l0.1-0.2c0.5-1.6,0.6-2.3,0.1-2.7c-0.2-0.2-0.7-0.2-0.7-0.2c-0.3,0-0.6,0.1-0.9,0.5C37.2,4.5,37,5,36.7,5.5
	c-0.4,0.7-0.8,1.5-1.5,2.1C34.4,8.5,33.5,9,32.3,9h-0.1c-1.8,0-2.9-1.3-3.3-1.7c-0.3-0.4-0.8-1-1.1-1.5c-0.3-0.5-0.7-1.2-1.1-1.6
	C25.5,2.8,24.8,5,24.4,7.1 M21.5,6.7l0-0.1c0.3-1.7,0.6-4.3,2.5-5.4c0.6-0.4,1.3-0.5,2-0.5c2.2,0,3.7,2.2,4.6,3.6
	c0.5,0.8,0.9,1.7,1.6,1.7h0c0.6,0,1-0.5,1.8-1.9c0.4-0.6,0.8-1.2,1.2-1.8c0.9-1,1.8-1.4,3-1.4c0.9,0,2.1,0.3,2.9,1
	c0.9,0.8,1.2,1.9,1.2,3.3c0,1-0.3,1.7-0.5,2.5l-0.1,0.2c-0.3,0.9,0,1.6,0.2,1.9c0.5,0.5,1.3,1,2.2,1.5c0.8,0.5,1.7,0.7,2.5,1.3
	c1.7,1.5,2.8,3.8,2.9,6.1c0.1,1.9-0.3,3.5-1.5,4.9c-1,1.1-2.2,1.7-3.5,1.7c-1.3,0-2.4-0.5-3.5-1.5c-1.3-1.2-1.8-2.7-2.3-4l-0.6-1.6
	c-0.3-0.7-0.6-1.4-1.1-1.4s-0.6,1.2-0.6,1.8c0,1.2,0.3,2.7,0.5,3.9l0.3,1.7c0.5,5.1-1.9,8.5-5.5,8.5c-0.2,0-0.3,0-0.5,0
	c-1.7-0.1-2.7-0.9-3.3-1.5c-1.6-1.9-1.1-5-0.8-7.2l0.1-0.8c0.1-1.1-0.1-2.3-0.6-2.9c-0.2-0.2-0.4-0.3-0.7-0.3c0,0-0.1,0-0.1,0
	c-1.2,0.1-1.7,1.3-2.4,4.1c-0.4,1.6-0.8,3.3-1.6,4.6c-1.1,1.7-2.7,2.5-4.8,2.5c-0.4,0-0.9,0-1.3-0.1c-0.9-0.1-1.7-0.5-2.4-1.2
	c-0.7-0.6-1.3-1.3-1.6-2.1c-0.6-1.4-0.6-3.1,0-4.5c0.4-1.1,1-1.7,1.6-2.6c0.4-0.6,1-1.2,1.2-1.7c0.5-1,0.7-1.8,0.1-2.8
	C14,15,12.8,13.9,11.7,13l-0.8-0.7c-2.3-2.2-4.8-4.6-4.4-7.8c0.1-1,0.6-2.7,2.6-3.8C10.1,0.1,11.1,0,12,0c1.6,0,3,0.7,4.2,2.3
	c0.9,1.2,1.5,2.7,2.1,4C19.1,8.2,20.5,12.6,21.5,6.7"/>
<path class="st0" d="M94.5,19c-0.1-0.2,0-0.3,0.2-0.3h0.8c0.1,0,0.2,0.1,0.3,0.2l2.2,4.8h0l2.1-4.8c0.1-0.1,0.2-0.2,0.3-0.2h0.7
	c0.2,0,0.3,0.2,0.2,0.4l-3.9,8.2c0,0.1-0.2,0.2-0.3,0.2h-0.6c-0.2,0-0.4-0.2-0.3-0.4l1-2L94.5,19L94.5,19z M83.5,24
	c0.8,0,1.5-0.4,1.7-0.8V22c-0.2-0.2-0.8-0.5-1.5-0.5c-0.9,0-1.5,0.4-1.5,1.2C82.3,23.4,82.8,24,83.5,24 M83.9,20.6
	c0.7,0,1.3,0.4,1.3,0.4c0-1.2-0.5-1.7-1.4-1.7c-0.9,0-1.3,0.2-1.6,0.4c-0.2,0.1-0.3,0-0.3-0.2l-0.1-0.4c-0.1-0.2,0-0.3,0.2-0.3
	c0.1,0,0.7-0.4,1.9-0.4c1.6,0,2.3,0.8,2.3,2.7v3.5c0,0.2-0.1,0.3-0.3,0.3h-0.4c-0.2,0-0.2-0.1-0.3-0.2l0-0.4c-0.3,0.3-1,0.7-2,0.7
	c-1.1,0-2.1-0.9-2.1-2.2C81.3,21.5,82.3,20.6,83.9,20.6 M74.4,21.1h-3.5c-0.1,0-0.1-0.1-0.1-0.1c0.2-0.9,0.9-1.6,1.9-1.6
	c0.9,0,1.6,0.7,1.7,1.6C74.5,21.1,74.5,21.2,74.4,21.1 M72.7,18.5c-1.9,0-3.1,1.5-3.1,3.3c0,1.8,1.2,3.3,3.1,3.3
	c1.1,0,1.9-0.4,2.3-0.7c0.2-0.2,0.2-0.3,0.1-0.4l-0.3-0.4c-0.1-0.2-0.2-0.1-0.4,0c-0.4,0.2-0.9,0.5-1.5,0.5c-1.1,0-1.9-0.9-2.1-1.9
	c0-0.1,0.1-0.1,0.1-0.1h4.4c0.1,0,0.3-0.1,0.3-0.3c0-0.1,0-0.3,0-0.4C75.6,19.7,74.4,18.5,72.7,18.5 M61.5,23.7
	c-0.1-0.1-0.1-0.2-0.4-0.1c0,0-0.4,0.4-1,0.4s-0.7-0.7-0.7-0.8v-3.4c0-0.1,0-0.2,0.2-0.2h1.6c0.2,0,0.3-0.1,0.3-0.3v-0.3
	c0-0.2-0.1-0.3-0.3-0.3h-1.6c-0.1,0-0.2-0.1-0.2-0.2c0,0,0,0,0,0v-1.7c0-0.2-0.1-0.3-0.3-0.3h-0.5c-0.2,0-0.3,0.1-0.3,0.3v1.6
	c0,0,0,0.2-0.2,0.2h-0.6c-0.2,0-0.3,0.1-0.3,0.3v0.3c0,0.2,0.1,0.3,0.3,0.3h0.6c0.1,0,0.2,0.1,0.2,0.2v3.6c0,1,0.6,1.7,1.8,1.7
	c0.7,0,1.2-0.4,1.4-0.5c0.2-0.1,0.2-0.2,0.1-0.4L61.5,23.7L61.5,23.7z M66,18.5c-0.9,0-1.5,0.4-1.7,0.7c0,0-0.1,0.1-0.1-0.1v-3
	c0-0.2-0.1-0.3-0.3-0.3h-0.5c-0.2,0-0.3,0.1-0.3,0.3v8.5c0,0.2,0.1,0.3,0.3,0.3h0.5c0.2,0,0.3-0.1,0.3-0.3v-3.4
	c0-1.2,0.9-1.5,1.4-1.6c0.1,0,0.2,0,0.3,0c0.9,0,1.6,0.6,1.6,1.8v3.3c0,0.2,0.1,0.3,0.3,0.3h0.5c0.2,0,0.3-0.1,0.3-0.3v-3.3
	C68.6,19.5,67.5,18.5,66,18.5 M90.7,24c-0.9,0-1.5-0.6-1.5-0.6v-3.3c0,0,0.6-0.8,1.6-0.8c1.3,0,2,1.1,2,2.3C92.8,23,91.9,24,90.7,24
	 M90.9,18.4c-0.6,0-1.2,0.2-1.7,0.6v0c0-0.2-0.1-0.3-0.3-0.3h-0.5c-0.2,0-0.3,0.1-0.3,0.3v8.1c0,0.2,0.1,0.3,0.3,0.3h0.5
	c0.2,0,0.3-0.1,0.3-0.3v-2.5c0,0,0.7,0.5,1.7,0.5c1.7,0,3-1.5,3-3.3C93.9,19.9,92.6,18.4,90.9,18.4 M79.7,18.4c-1,0-1.6,0.5-1.8,0.7
	v-0.2c0-0.2-0.1-0.3-0.3-0.3h-0.5c-0.2,0-0.3,0.1-0.3,0.3v5.6c0,0.2,0.1,0.3,0.3,0.3h0.5c0.2,0,0.3-0.1,0.3-0.3v-4.2
	c0,0,0.5-0.9,1.7-0.9c0.2,0,0.4,0,0.6,0.1c0.2,0.1,0.3,0.1,0.4-0.1l0.2-0.5C81,18.5,80.2,18.4,79.7,18.4 M100.5,9.9H97
	c-0.1,0-0.1-0.1-0.1-0.1c0.2-0.9,0.9-1.6,1.9-1.6c0.9,0,1.6,0.7,1.7,1.6C100.6,9.8,100.6,9.9,100.5,9.9 M98.9,7.2
	c-1.9,0-3.1,1.5-3.1,3.3c0,1.8,1.2,3.3,3.1,3.3c1.1,0,1.9-0.4,2.3-0.7c0.2-0.2,0.2-0.3,0.1-0.4l-0.3-0.4c-0.1-0.2-0.2-0.1-0.4,0
	c-0.4,0.2-0.9,0.5-1.5,0.5c-1.1,0-1.9-0.9-2.1-1.9c0-0.1,0.1-0.1,0.1-0.1h4.4c0.1,0,0.3-0.1,0.3-0.3c0-0.1,0-0.3,0-0.4
	C101.7,8.4,100.5,7.2,98.9,7.2 M113.3,12.4c-0.1-0.1-0.1-0.2-0.4-0.1c0,0-0.4,0.4-1,0.4s-0.7-0.7-0.7-0.8V8.5c0-0.1,0-0.2,0.2-0.2
	h1.6c0.2,0,0.3-0.1,0.3-0.3V7.6c0-0.2-0.1-0.3-0.3-0.3h-1.6c-0.1,0-0.2-0.1-0.2-0.2c0,0,0,0,0,0V5.5c0-0.2-0.1-0.3-0.3-0.3h-0.5
	c-0.2,0-0.3,0.1-0.3,0.3v1.6c0,0,0,0.2-0.2,0.2h-0.6c-0.2,0-0.3,0.1-0.3,0.3V8c0,0.2,0.1,0.3,0.3,0.3h0.6c0.1,0,0.2,0.1,0.2,0.2V12
	c0,1,0.6,1.7,1.8,1.7c0.7,0,1.2-0.4,1.4-0.5c0.2-0.1,0.2-0.2,0.1-0.4L113.3,12.4L113.3,12.4z M105.7,7.2c-0.9,0-1.5,0.4-1.7,0.7
	c0,0-0.1,0.1-0.1-0.1V7.6c0-0.2-0.1-0.3-0.3-0.3h-0.5c-0.2,0-0.3,0.1-0.3,0.3v5.7c0,0.2,0.1,0.3,0.3,0.3h0.5c0.2,0,0.3-0.1,0.3-0.3
	V9.9c0-1.2,0.9-1.5,1.4-1.6c0.1,0,0.2,0,0.3,0c0.9,0,1.6,0.6,1.6,1.8v3.3c0,0.2,0.1,0.3,0.3,0.3h0.5c0.2,0,0.3-0.1,0.3-0.3V10
	C108.4,8.2,107.3,7.2,105.7,7.2 M56.3,12.7c0.8,0,1.5-0.4,1.7-0.8v-1.2c-0.2-0.2-0.8-0.5-1.5-0.5c-0.9,0-1.5,0.4-1.5,1.2
	C55.1,12.1,55.7,12.7,56.3,12.7 M56.7,9.4c0.7,0,1.3,0.4,1.3,0.4c0-1.2-0.5-1.7-1.4-1.7c-0.9,0-1.3,0.2-1.6,0.4
	c-0.2,0.1-0.3,0-0.3-0.2l-0.1-0.4c-0.1-0.2,0-0.3,0.2-0.3c0.1,0,0.7-0.4,1.9-0.4c1.6,0,2.3,0.8,2.3,2.7v3.5c0,0.2-0.1,0.3-0.3,0.3
	h-0.4c-0.2,0-0.2-0.1-0.3-0.2l0-0.4c-0.3,0.3-1,0.7-2,0.7c-1.1,0-2.1-0.9-2.1-2.2C54.1,10.2,55.1,9.3,56.7,9.4 M69.6,12.7
	c0.8,0,1.5-0.4,1.7-0.8v-1.2c-0.2-0.2-0.8-0.5-1.5-0.5c-0.9,0-1.5,0.4-1.5,1.2C68.4,12.1,69,12.7,69.6,12.7 M70.1,9.3
	c0.7,0,1.3,0.4,1.3,0.4c0-1.2-0.5-1.7-1.4-1.7c-0.9,0-1.3,0.2-1.6,0.4c-0.2,0.1-0.3,0-0.3-0.2L68,7.9c-0.1-0.2,0-0.3,0.2-0.3
	c0.1,0,0.7-0.4,1.9-0.4c1.6,0,2.3,0.8,2.3,2.7v3.5c0,0.2-0.1,0.3-0.3,0.3h-0.4c-0.2,0-0.2-0.1-0.3-0.2l0-0.4c-0.3,0.3-1,0.7-2,0.7
	c-1.1,0-2.1-0.9-2.1-2.2C67.4,10.2,68.4,9.3,70.1,9.3 M83,12.4c-0.1-0.1-0.1-0.2-0.4-0.1c0,0-0.4,0.4-1,0.4S81,12,81,11.9V8.5
	c0-0.1,0-0.2,0.2-0.2h1.6c0.2,0,0.3-0.1,0.3-0.3V7.6c0-0.2-0.1-0.3-0.3-0.3h-1.6c-0.1,0-0.2-0.1-0.2-0.2c0,0,0,0,0,0V5.5
	c0-0.2-0.1-0.3-0.3-0.3h-0.5c-0.2,0-0.3,0.1-0.3,0.3v1.6c0,0,0,0.2-0.2,0.2h-0.6c-0.2,0-0.3,0.1-0.3,0.3V8c0,0.2,0.1,0.3,0.3,0.3
	h0.6c0.1,0,0.2,0.1,0.2,0.2V12c0,1,0.6,1.7,1.8,1.7c0.7,0,1.2-0.4,1.4-0.5c0.2-0.1,0.2-0.2,0.1-0.4L83,12.4L83,12.4z M63.3,12.7
	c-0.9,0-1.5-0.6-1.5-0.6V8.9c0,0,0.6-0.8,1.6-0.8c1.3,0,2,1.1,2,2.3C65.4,11.7,64.5,12.7,63.3,12.7 M63.5,7.1
	c-0.6,0-1.2,0.2-1.7,0.6v0c0-0.2-0.1-0.3-0.3-0.3H61c-0.2,0-0.3,0.1-0.3,0.3v8.1c0,0.2,0.1,0.3,0.3,0.3h0.5c0.2,0,0.3-0.1,0.3-0.3
	v-2.5c0,0,0.7,0.5,1.7,0.5c1.7,0,3-1.5,3-3.3C66.5,8.6,65.3,7.1,63.5,7.1 M76.9,7.1c-1,0-1.6,0.5-1.8,0.7V7.6c0-0.2-0.1-0.3-0.3-0.3
	h-0.5c-0.2,0-0.3,0.1-0.3,0.3v5.7c0,0.2,0.1,0.3,0.3,0.3h0.5c0.2,0,0.3-0.1,0.3-0.3V9.1c0,0,0.5-0.9,1.7-0.9c0.2,0,0.4,0,0.6,0.1
	c0.2,0.1,0.3,0.1,0.4-0.1L78,7.6C78.2,7.2,77.4,7.1,76.9,7.1 M92,7.2c-1,0-1.8,0.5-2.2,1.3c-0.4-0.8-1.3-1.3-2.3-1.3
	c-0.9,0-1.5,0.4-1.7,0.7c0,0-0.1,0.1-0.1-0.1V7.6c0-0.2-0.1-0.3-0.3-0.3h-0.5c-0.2,0-0.3,0.1-0.3,0.3v5.7c0,0.2,0.1,0.3,0.3,0.3h0.5
	c0.2,0,0.3-0.1,0.3-0.3V9.9c0-1.2,0.9-1.5,1.4-1.6c0.1,0,0.2,0,0.3,0c0.9,0,1.6,0.6,1.6,1.8v3.3c0,0.2,0.1,0.3,0.3,0.3h0.5
	c0.2,0,0.3-0.1,0.3-0.3V9.9c0-1.2,0.9-1.5,1.4-1.6c0.1,0,0.2,0,0.3,0c0.9,0,1.6,0.6,1.6,1.8v3.3c0,0.2,0.1,0.3,0.3,0.3h0.5
	c0.2,0,0.3-0.1,0.3-0.3V10C94.7,8.2,93.6,7.2,92,7.2"/>
</svg>
