<?xml version="1.0" encoding="utf-8"?>
<!-- Generator: Adobe Illustrator 26.3.1, SVG Export Plug-In . SVG Version: 6.00 Build 0)  -->
<svg version="1.1" id="Layer_1" xmlns="http://www.w3.org/2000/svg" xmlns:xlink="http://www.w3.org/1999/xlink" x="0px" y="0px"
	 viewBox="0 0 923.1 135.6" style="enable-background:new 0 0 923.1 135.6;" xml:space="preserve">
<style type="text/css">
	.st0{fill:#E6E1DD;}
</style>
<path class="st0" d="M854.9,80.5c0-9.9,34-13.2,34-13.2l-0.5-9.9c-5-0.1-24.3,0.6-24.3-4.6c0-6.8,29.6-8.4,40-8.8L902,28.3
	c-17.9,0-98.2,0.3-101.5,22c-1.8,11.7,21.4,14.5,21.4,14.5v0.6c0,0-30.3,5.6-30.3,20.3c0,29.9,104.5,21.5,131.6,14.1
	c0,0-2.6-13.3-3.8-13.9c-1.1-0.6-23,2.7-40.4,2.2C864.7,87.7,854.9,85.5,854.9,80.5 M637.2,14.7c0,8.5-9.3,14.5-25.6,14.5
	S586,23.3,586,14.7C586,5.1,600.1,0,611.6,0S637.2,5,637.2,14.7 M785.2,85.2c-1.3-0.4-10.7,1.7-21.3-2c-16.9-5.8-19.5-28.5,0.6-41.4
	L745.7,26c-33.1,12.8-39.9,13.7-43,14.4c-1.5-4.5-8.7-12-23.9-11.1c-8.3,0.5-20.6,5.1-24.2,13.6c-2.4,5.7-1,12.1,4.6,16.5
	c8,6.3,23.3,4.7,23.3,4.7c-4.8,20.2-46.8,34-46.8,12.4V39.3H586v43.1c0,21.5,26.4,27.1,52.4,25.4c36.3-2.4,56.8-23.2,64.2-45.7
	l17.7-4.1c0,0-24.2,31.6,6,46c17.3,8.2,49,1.9,61.8-4.9C788,99,785.9,85.5,785.2,85.2 M671.3,46.3c0.3-5.4,13.7-6.8,14.5-0.5
	C685.8,45.7,671,52.1,671.3,46.3 M580.5,88.9c-0.5-0.5-9,1.7-15.2,0.1c-6.8-1.7-7.3-6.8-7.3-13.6V39h-51.3v34.4
	c0,4.1,0.3,13.9-14.1,13.9c-6.5,0-13.9-0.5-13.9-9.9V39h-51l0,43.8c0,25,41.9,32.6,85,16.3c0,0,20.2,15.9,70.6,4.2
	C583.3,103.3,581.1,89.5,580.5,88.9 M412.9,128.2l0-89.9h-46.7c0,0,1.6,32.4-0.9,38.7c-4.2,13.7-37.8,11.8-37.8-4.2
	c0-18.6,34.3-15.4,34.3-15.4l-3.4-19.2c0,0-79.2-7.4-83,35c-0.9,29.5,51.7,41.8,90.6,27.3l0,35.1L412.9,128.2L412.9,128.2z"/>
<path class="st0" d="M260.8,85.1c4.7-4.8,4.4-10.6,0.4-16.9c-5.9-9.3-22.1-14.8-26-22.2c-1.7-3.3-1.6-7.1,0.9-11.9l-0.9-3.9
	l-54.9,6.1c-3.2,7.3,0.1,13,0.3,13.7C141.1,92.4,76.8,92.8,75.1,77.8c-1.6-14,42.3-17.1,42.3-17.1l-0.9-14c0,0-29.6,2.3-30-6.8
	c-0.5-9.4,27.2-12.4,43.3-12.6l-4.1-22.5c-52-0.6-100.5,10.9-105,30.5c-1.3,5.9,2.6,16.2,24,20.6v0.8c0,0-45,7.1-44.7,26.6
	c0.3,17.4,39.1,25.1,66.5,25.3c55.6,0.4,84.9-18,84.9-18c-7.8,21.2,53.1,23.8,95.3,8.6c2-0.7,18.2,6.2,28.1,10.6
	c0,0,6.3-15.1,5.5-17.2C279.5,90.6,260.8,85.1,260.8,85.1 M206.5,90.7c-5.5,6.7-26.9,6.7-25.4,2.3C182.7,88.3,204,89.4,206.5,90.7
	 M165.3,83.5c0,0,12.9-8.2,26.1-19.8c0,0,11.4,6.7,16.6,14.6C208,78.3,189.9,74.9,165.3,83.5"/>
</svg>
