<?xml version="1.0" encoding="UTF-8"?><svg id="a" xmlns="http://www.w3.org/2000/svg" xmlns:xlink="http://www.w3.org/1999/xlink" viewBox="0 0 57.17 85.65"><defs><style>.ch,.ci,.cj,.ck,.cl{fill:none;}.ci,.cj,.ck,.cl{stroke:#af7a4b;stroke-linecap:round;stroke-linejoin:round;}.cj{stroke-width:.75px;}.cm{fill:#fff5f0;}.cn{fill:#e5c8b7;}.co{fill:#333539;}.cp{fill:#af7a4b;}.ck{stroke-width:.97px;}.cq{clip-path:url(#c);}.cl{stroke-width:.8px;}</style><clipPath id="c"><rect class="ch" x="0" width="57.17" height="85.48"/></clipPath></defs><g id="b" transform="translate(0 0)"><g class="cq"><g id="d" transform="translate(0 0)"><path id="e" class="cp" d="M19.99,83.45c-.24-1.83-.34-3.68-.3-5.53,.04-1.87,.29-3.73,.76-5.54,.99-3.57,2.55-6.96,4.63-10.03,3.95-6.18,9.1-11.4,12.64-17.58,1.87-3,2.82-6.47,2.75-10-.04-1.75-.39-3.47-1.02-5.1-1.96-5.03-7.24-7.94-12.54-6.9-1.69,.3-3.24,1.14-4.42,2.39-1.12,1.29-1.69,2.97-1.58,4.68,0,.25-.2,.46-.45,.46-.24,0-.44-.18-.46-.41h0c-.13-1.96,.5-3.88,1.77-5.36,1.3-1.42,3.04-2.38,4.93-2.74,3.77-.75,7.68,.3,10.57,2.85,1.42,1.27,2.52,2.85,3.23,4.61,.7,1.75,1.08,3.6,1.15,5.48,.1,1.88-.11,3.75-.63,5.56-.53,1.78-1.26,3.49-2.18,5.11-1.85,3.15-3.92,6.16-6.2,9.01-2.2,2.88-4.41,5.72-6.31,8.74-1.95,2.96-3.42,6.2-4.37,9.62-.44,1.69-.69,3.43-.72,5.18-.02,1.77,.1,3.54,.35,5.29,.07,.44-.23,.86-.67,.94-.44,.07-.86-.23-.94-.67v-.05"/><path id="f" class="cm" d="M24.6,67.55c-.62-.08-3.63-.04-3.63-.04l.09,1.46c1.07-.07,2.15-.07,3.23,0,0,0,.93-1.34,.32-1.42"/><path id="g" class="co" d="M20.46,39.48c2.25,1.71,2.68,4.92,.98,7.16-.28,.37-.61,.7-.98,.98-2.25-1.71-2.68-4.92-.98-7.16,.28-.37,.61-.7,.98-.98"/><path id="h" class="ci" d="M20.46,39.48c2.25,1.71,2.68,4.92,.98,7.16-.28,.37-.61,.7-.98,.98-2.25-1.71-2.68-4.92-.98-7.16,.28-.37,.61-.7,.98-.98Z"/><path id="i" class="co" d="M22.12,37.2c2.69,1.34,3.78,4.6,2.44,7.29-.16,.32-.35,.63-.57,.91-2.69-1.34-3.78-4.6-2.44-7.29,.16-.32,.35-.63,.57-.91"/><path id="j" class="ci" d="M22.12,37.2c2.69,1.34,3.78,4.6,2.44,7.29-.16,.32-.35,.63-.57,.91-2.69-1.34-3.78-4.6-2.44-7.29,.16-.32,.35-.63,.57-.91Z"/><path id="k" class="co" d="M18.8,37.2c-2.69,1.34-3.78,4.6-2.44,7.29,.16,.32,.35,.63,.57,.91,2.69-1.34,3.78-4.6,2.44-7.29-.16-.32-.35-.63-.57-.91"/><path id="l" class="ci" d="M18.8,37.2c-2.69,1.34-3.78,4.6-2.44,7.29,.16,.32,.35,.63,.57,.91,2.69-1.34,3.78-4.6,2.44-7.29-.16-.32-.35-.63-.57-.91Z"/><path id="m" class="co" d="M20.46,34.41c2.43,1.85,2.91,5.32,1.06,7.75-.3,.4-.66,.75-1.06,1.06-2.43-1.85-2.91-5.32-1.06-7.75,.3-.4,.66-.75,1.06-1.06"/><path id="n" class="ci" d="M20.46,34.41c2.43,1.85,2.91,5.32,1.06,7.75-.3,.4-.66,.75-1.06,1.06-2.43-1.85-2.91-5.32-1.06-7.75,.3-.4,.66-.75,1.06-1.06Z"/><path id="o" class="co" d="M21.29,33.13c3.43,.45,5.85,3.59,5.4,7.02-.05,.41-.15,.81-.28,1.2-3.43-.45-5.85-3.59-5.4-7.02,.05-.41,.15-.81,.28-1.2"/><path id="p" class="ci" d="M21.29,33.13c3.43,.45,5.85,3.59,5.4,7.02-.05,.41-.15,.81-.28,1.2-3.43-.45-5.85-3.59-5.4-7.02,.05-.41,.15-.81,.28-1.2Z"/><path id="q" class="co" d="M19.63,33.13c-3.43,.45-5.85,3.59-5.4,7.02,.05,.41,.15,.81,.28,1.2,3.43-.45,5.85-3.59,5.4-7.02-.05-.41-.15-.81-.28-1.2"/><path id="r" class="ci" d="M19.63,33.13c-3.43,.45-5.85,3.59-5.4,7.02,.05,.41,.15,.81,.28,1.2,3.43-.45,5.85-3.59,5.4-7.02-.05-.41-.15-.81-.28-1.2Z"/><path id="s" class="co" d="M27.31,36.73c0-3.75-3.01-6.8-6.76-6.85-.05-.03-.12-.03-.17,0-3.75,.05-6.76,3.1-6.76,6.85,1.82,0,3.56-.72,4.84-2.01,.02,1.79,.74,3.5,2,4.76,1.26-1.26,1.98-2.97,2-4.76,1.28,1.29,3.03,2.01,4.84,2.01"/><path id="t" class="ci" d="M27.31,36.73c0-3.75-3.01-6.8-6.76-6.85-.05-.03-.12-.03-.17,0-3.75,.05-6.76,3.1-6.76,6.85,1.82,0,3.56-.72,4.84-2.01,.02,1.79,.74,3.5,2,4.76,1.26-1.26,1.98-2.97,2-4.76,1.28,1.29,3.03,2.01,4.85,2.01Z"/><path id="u" class="cj" d="M20.46,30c.22,1-.14,2.42,.06,4.03"/><path id="v" class="co" d="M23.47,32.82c-.57-1.06-1.43-1.93-2.49-2.5"/><path id="w" class="cj" d="M23.47,32.82c-.57-1.06-1.43-1.93-2.49-2.5"/><path id="x" class="co" d="M17.73,32.29s1.49-1.93,2.73-2.11"/><path id="y" class="cj" d="M17.73,32.29s1.49-1.93,2.73-2.11"/><path id="a`" class="cn" d="M28.24,67.41c-.15,0-.31,0-.46-.02-1.83-.18-3.76-.26-5.76-.26-1.59,0-2.91,.06-3.73,.11-.07,0-.14,0-.2,0-.73,0-1.44-.23-2.04-.65l-10.7-7.44-.02-.02,.02-.02c.57-.59,1.35-.92,2.17-.93,1,.06,1.97,.42,2.76,1.03,.45,.32,.86,.6,1.26,.83,.83,.49,1.59,.93,2.27,1.32,.06,.03,.12,.05,.18,.05,.2,0,.37-.17,.37-.37,0-.06-.01-.11-.04-.16-.94-1.84-1.76-3.74-2.47-5.68,.09-1.99-.05-3.98-.43-5.93,.02-.07,.09-.09,.2-.09,.26,.01,.52,.07,.75,.18,.94,.46,1.61,1.35,1.78,2.38,.16,.87,.28,1.74,.35,2.62,0,.06,.02,.12,.05,.17,.23,.38,.48,.83,.73,1.33,.06,.12,.19,.2,.33,.2,.02,0,.04,0,.06,0,.16-.03,.29-.15,.31-.31,.05-.33,.11-.72,.2-1.18,.38-1.62,.46-3.3,.23-4.95-.03-.23-.06-.42-.08-.61,.14-.03,.28-.05,.42-.04,.39,0,.78,.12,1.09,.36,.7,.72,1.03,1.73,.89,2.74-.02,1.01-.04,1.88-.05,2.28-.08,.82,0,1.64,.25,2.43,.05,.15,.19,.25,.35,.25h.01c.32,0,.66-.01,1.01-.01,.18,0,.35-.12,.4-.29,.92-4.15,.23-5.85,.22-5.86,.07-.01,.14-.02,.21-.02,.5,0,.98,.16,1.37,.47,.6,.59,.92,1.41,.86,2.24,.05,1.69,.07,2.46,.07,2.94,0,.12,.04,.24,.12,.33,.07,.08,.16,.14,.27,.16h0c1.56-.09,3.12-.3,4.65-.62,.68-.14,1.32-.45,1.86-.9,3.69-3.06,6.31-4.43,8.46-4.43,1.14,.06,2.26,.34,3.3,.83,.92,.39,1.87,.69,2.85,.89,.72,.11,1.45,.15,2.18,.13,2.87,0,7.18-.39,8.52-.51v10.17c-3.36-.71-6.77-1.18-10.2-1.4-.38,0-.76,.02-1.13,.09-3.17,.65-10.78,4.21-13.91,5.71-.68,.33-1.42,.5-2.17,.5"/><path id="aa" class="cp" d="M16.75,49.32c.31,0,.62,.09,.87,.28,.61,.66,.88,1.55,.75,2.43-.02,1-.04,1.88-.05,2.27-.08,.86,0,1.74,.27,2.56,.11,.29,.39,.49,.7,.49h.02c.32,0,.65-.01,1.03-.01h0c.35,0,.65-.24,.73-.58,.49-1.81,.61-3.71,.34-5.57,.32,.04,.61,.17,.86,.37,.51,.52,.78,1.24,.73,1.97,.05,1.59,.07,2.43,.07,2.93v.11c0,.41,.33,.75,.74,.75h.05c1.58-.09,3.16-.3,4.71-.62,.74-.16,1.44-.49,2.02-.98,3.62-3,6.16-4.34,8.22-4.34,1.1,.06,2.17,.33,3.17,.81,.94,.4,1.91,.71,2.91,.91,.74,.11,1.5,.16,2.25,.14,2.67,0,6.49-.32,8.15-.48v9.32c-3.24-.68-6.52-1.12-9.83-1.32-.4,0-.8,.03-1.2,.1-3.21,.66-10.85,4.23-13.99,5.73-.63,.3-1.31,.46-2.01,.46-.14,0-.28,0-.43-.02-1.84-.18-3.79-.26-5.79-.26-1.6,0-2.92,.06-3.75,.11-.06,0-.12,0-.18,0-.65,0-1.29-.2-1.83-.58l-10.34-7.2c.45-.36,1.02-.55,1.59-.55,.92,.06,1.81,.39,2.55,.95,.46,.33,.88,.61,1.29,.85,.83,.49,1.59,.93,2.28,1.33,.36,.2,.81,.08,1.01-.28,.12-.21,.13-.47,.02-.7-.92-1.8-1.73-3.65-2.43-5.55,.09-1.87-.04-3.74-.38-5.58,.13,.03,.25,.07,.37,.12,.83,.41,1.42,1.21,1.57,2.13,.16,.85,.27,1.7,.34,2.56,0,.12,.05,.23,.11,.33,.23,.37,.46,.8,.72,1.3,.13,.25,.38,.41,.66,.41,.04,0,.08,0,.12-.01,.32-.05,.57-.31,.62-.63,.05-.33,.11-.71,.2-1.17,.39-1.66,.47-3.39,.23-5.08-.01-.07-.02-.15-.03-.22h0Zm0-.74c-.17,0-.35,.02-.51,.06-.18,.05-.29,.22-.27,.4,.02,.21,.05,.42,.08,.62,.23,1.61,.15,3.26-.22,4.84-.08,.47-.15,.86-.2,1.19-.22-.44-.47-.91-.75-1.36-.07-.9-.19-1.79-.35-2.68-.2-1.15-.94-2.13-1.99-2.64-.28-.13-.59-.21-.9-.22-.13,0-.27,.02-.39,.08-.15,.09-.23,.27-.18,.44,.37,1.92,.52,3.87,.43,5.82,0,.05,0,.1,.01,.15,.71,1.97,1.55,3.89,2.5,5.75-.69-.39-1.44-.83-2.27-1.32-.39-.23-.79-.5-1.23-.81-.86-.66-1.9-1.04-2.98-1.1-.93,0-1.82,.39-2.46,1.06,0,0-.01,.02-.02,.03s-.02,.01-.03,.03c0,.01-.01,.02-.02,.04-.01,.02-.02,.05-.03,.07,0,.02-.01,.04-.01,.07,0,.02,0,.05,0,.07,0,.02,0,.05,.01,.07,0,.02,.01,.04,.03,.07,.01,.02,.03,.04,.04,.06,0,.01,.01,.02,.02,.03,0,0,.02,.01,.03,.02,0,0,.02,.02,.03,.03l10.73,7.46c.66,.46,1.45,.71,2.25,.71,.08,0,.15,0,.23,0,.87-.05,2.16-.11,3.71-.11,1.67,0,3.64,.06,5.72,.26,.17,.02,.33,.02,.5,.02,.81,0,1.6-.18,2.33-.53,3.1-1.49,10.68-5.03,13.81-5.67,.35-.06,.7-.09,1.06-.08,3.31,0,10.57,1.48,10.57,1.48v-11.04s-5.46,.55-8.89,.55c-.71,.02-1.41-.03-2.11-.13-.95-.2-1.88-.49-2.78-.87-1.08-.51-2.25-.8-3.44-.86-1.98,0-4.48,1.02-8.7,4.51-.49,.41-1.07,.69-1.7,.82-1.52,.31-3.05,.52-4.6,.61v-.12c0-.48-.02-1.25-.07-2.95,.05-.95-.32-1.87-1-2.52-.45-.37-1.02-.56-1.61-.56-.09,0-.18,0-.27,.02-.2,.03-.34,.22-.31,.42,0,.03,.01,.06,.03,.09,0,.01,.64,1.64-.24,5.64h-.04c-.35,0-.69,0-1.02,.01-.23-.74-.31-1.52-.23-2.29,.01-.4,.03-1.27,.05-2.28,.15-1.12-.22-2.24-1.02-3.03-.38-.29-.85-.44-1.32-.44"/><path id="ab" class="ci" d="M27.56,60.68c-.69,.75-2.13,2.18-3.22,2.38-1.48,.27-5.44,.67-6.79,.23-2.07-.96-4.08-2.05-6.02-3.25-.43-.26-.85-.54-1.26-.83-.9-.65-3.11-1.89-4.96-.07"/><path id="ac" class="ci" d="M32.72,62.14c-2-.72-4.06-1.27-6.16-1.64-1.67-.07-8.69,.17-9.29,.04s-2.32-.37-2.51-1.3c-.13-.64,.56-1.6,2.35-2.05,1.87-.26,3.76-.33,5.65-.23,1.92-.04,3.84-.25,5.72-.65,.68-.14,1.32-.45,1.86-.9,8.76-7.26,9.88-3.59,14.61-2.71,2.47,.46,11.07-.43,11.07-.43"/><path id="ad" class="ci" d="M16.03,57.49c-.43-1.05-.95-2.07-1.53-3.04-.07-.91-.19-1.81-.35-2.71-.57-2.4-2.46-2.68-2.74-2.53h0c.38,1.97,.53,3.98,.44,5.98,.88,2.31,1.88,4.56,3,6.76"/><path id="ae" class="ci" d="M19.02,56.99c-.33-.85-.45-1.77-.34-2.67,.01-.4,.03-1.27,.05-2.28,.07-3.71-2.4-3.05-2.4-3.05,.33,1.85,.28,3.74-.15,5.57-.3,1.71-.39,2.31-.12,3.02"/><path id="af" class="ci" d="M17.66,60.58s2.68,2.76,3.22,2.85"/><path id="ag" class="ci" d="M20.37,60.57s3.07,2.3,4.2,2.43"/><path id="ah" class="ci" d="M23.42,56.96c.02-.47,.01-.92-.06-3.44-.08-3.06-2.45-2.7-2.45-2.7,0,0,.75,1.72-.28,6.16"/><path id="ai" class="ci" d="M56.02,52.29v10.36s-9.17-1.96-11.7-1.44c-3.18,.65-10.85,4.24-13.91,5.71-.82,.39-1.73,.56-2.63,.47-3.15-.29-6.33-.34-9.49-.16-.8,.05-1.59-.18-2.24-.64l-10.74-7.46"/><path id="aj" class="cp" d="M28.59,2.6c14.34,.02,25.97,11.64,25.98,25.99v28.31c.09,14.35-11.47,26.06-25.82,26.15-14.35,.09-26.06-11.47-26.15-25.82,0-.11,0-.21,0-.32V28.59c.02-14.34,11.64-25.97,25.99-25.99m0-2.6h0C12.8,0,0,12.8,0,28.59v28.31c-.09,15.79,12.63,28.66,28.42,28.75,15.79,.09,28.66-12.63,28.75-28.42,0-.11,0-.23,0-.34V28.59C57.17,12.8,44.37,0,28.59,0h0"/><path id="ak" class="cp" d="M14.47,20.94c-.37-.4-.94-.55-1.46-.39-.53,.16-.97,.53-1.23,1.02-.26,.47-.26,1.03,0,1.5,.3,.47,.75,.83,1.27,1.03,1.17,.3,2.39,.26,3.54-.11,1.21-.3,2.41-.69,3.63-1.06,2.44-.83,4.98-1.31,7.55-1.43,2.62-.06,5.2,.59,7.47,1.89h0c.17,.1,.23,.32,.13,.49-.1,.17-.32,.23-.49,.13-2.16-1.24-4.61-1.86-7.1-1.8-2.5,.12-4.98,.59-7.35,1.39-1.21,.36-2.42,.76-3.67,1.07-.63,.16-1.28,.27-1.93,.33-.68,.07-1.38-.02-2.02-.25-.33-.13-.64-.31-.91-.53-.29-.22-.52-.5-.7-.82-.36-.67-.35-1.48,.02-2.14,.35-.64,.94-1.11,1.65-1.31,.73-.19,1.51,.04,2.02,.6h.01c.1,.12,.09,.3-.02,.4-.11,.1-.29,.09-.39-.02h0"/><path id="al" class="ck" d="M44.56,45.11c1.92,.23,2.43-1.89,1.26-3-1.27-1.2-5.33-.52-7.6,3.55"/><path id="am" class="co" d="M42.42,11.74c-1.99,.34-3.64,1.8-2.87,4.03,2.36,0,3.14-1.67,2.87-4.03"/><path id="an" class="cj" d="M42.42,11.74c-1.99,.34-3.64,1.8-2.87,4.03,2.36,0,3.14-1.66,2.87-4.03Z"/><path id="ao" class="co" d="M43.61,17.58c-2-1.18-4.71-1.26-6.04,1.02,2,1.72,4.16,.99,6.04-1.02"/><path id="ap" class="cj" d="M43.61,17.58c-2-1.18-4.71-1.26-6.04,1.02,2.01,1.72,4.16,.99,6.04-1.02Z"/><path id="aq" class="co" d="M36.53,12.54c1.77,1.5,2.73,4.03,1.02,6.04-2.28-1.33-2.3-3.6-1.02-6.04"/><path id="ar" class="cj" d="M36.53,12.54c1.77,1.5,2.73,4.03,1.02,6.04-2.28-1.33-2.3-3.61-1.02-6.04Z"/><path id="as" class="cj" d="M38.8,26.61c-1.82-2.25-2.29-5.32-1.22-8.01"/><path id="at" class="co" d="M19.78,9.98c-.67,2.24,0,4.7,2.7,5.03,1.22-2.44-.12-4.11-2.7-5.03"/><path id="au" class="cj" d="M19.78,9.98c-.67,2.24,0,4.7,2.7,5.03,1.22-2.44-.11-4.11-2.7-5.03Z"/><path id="av" class="co" d="M26.43,11.73c-2.25,1.46-3.72,4.23-2.04,6.78,2.8-1.2,3.16-3.8,2.04-6.78"/><path id="aw" class="cj" d="M26.43,11.73c-2.25,1.46-3.72,4.23-2.04,6.78,2.8-1.2,3.16-3.8,2.04-6.78Z"/><path id="ax" class="co" d="M17.58,16.49c2.46-1.07,5.58-.76,6.78,2.04-2.55,1.68-4.91,.54-6.78-2.04"/><path id="ay" class="cj" d="M17.58,16.49c2.46-1.07,5.58-.76,6.78,2.04-2.55,1.68-4.91,.54-6.78-2.04Z"/><path id="b`" class="cj" d="M29.82,21.95c-2.27-.16-4.31-1.46-5.42-3.44"/><path id="ba" class="co" d="M31.08,35.79c1.99,.34,3.64,1.8,2.87,4.03-2.36,0-3.14-1.67-2.87-4.03"/><path id="bb" class="cj" d="M31.08,35.79c1.99,.34,3.64,1.8,2.87,4.03-2.36,0-3.14-1.67-2.87-4.03Z"/><path id="bc" class="co" d="M29.89,41.62c2-1.19,4.71-1.26,6.04,1.02-2,1.72-4.16,.99-6.04-1.02"/><path id="bd" class="cj" d="M29.89,41.62c2-1.19,4.71-1.26,6.04,1.02-2,1.72-4.16,.99-6.04-1.02Z"/><path id="be" class="co" d="M36.97,36.58c-1.77,1.5-2.73,4.03-1.02,6.04,2.28-1.33,2.3-3.6,1.02-6.04"/><path id="bf" class="cj" d="M36.97,36.58c-1.77,1.5-2.73,4.03-1.02,6.04,2.28-1.33,2.3-3.6,1.02-6.04Z"/><path id="bg" class="cj" d="M34.7,50.65c1.82-2.25,2.29-5.32,1.22-8.01"/><path id="bh" class="co" d="M11.41,69.49c3-.58,5.9,1.38,6.49,4.38,.1,.49,.12,.99,.08,1.49-3,.58-5.9-1.38-6.49-4.38-.1-.49-.12-.99-.08-1.49"/><path id="bi" class="ci" d="M11.41,69.49c3-.58,5.9,1.38,6.49,4.38,.1,.49,.12,.99,.08,1.49-3,.58-5.9-1.38-6.49-4.38-.1-.49-.12-.99-.08-1.49Z"/><path id="bj" class="ci" d="M15.95,73.35s4.33,3.67,4.5,6.5"/><path id="bk" class="co" d="M48.61,30.98c-1.78-.97-4.01-.32-4.98,1.46-.28,.52-.44,1.1-.45,1.7,1.78,.97,4.01,.32,4.98-1.46,.28-.52,.44-1.1,.45-1.69"/><path id="bl" class="cl" d="M48.61,30.98c-1.78-.97-4.01-.32-4.98,1.46-.28,.52-.44,1.1-.45,1.7,1.78,.97,4.01,.32,4.98-1.46,.28-.52,.44-1.1,.45-1.69Z"/><path id="bm" class="cj" d="M44.88,33.03s-3.62,1.16-3.62,4.81"/><path id="bn" class="co" d="M30.02,29.94c.6-1.94,2.66-3.02,4.59-2.42,.57,.18,1.08,.49,1.5,.9-.6,1.94-2.66,3.02-4.59,2.42-.57-.18-1.08-.49-1.5-.9"/><path id="bo" class="cl" d="M30.02,29.94c.6-1.94,2.66-3.02,4.59-2.42,.57,.18,1.08,.49,1.5,.9-.6,1.94-2.66,3.02-4.59,2.42-.57-.18-1.08-.49-1.5-.9Z"/><path id="bp" class="cj" d="M34.12,28.82s3.41-1.69,5.95,.93"/><path id="bq" class="co" d="M9.85,30.09c-.78-1.47-.23-3.29,1.24-4.07,.43-.23,.91-.35,1.39-.35,.78,1.47,.23,3.29-1.24,4.07-.43,.23-.91,.35-1.39,.35"/><path id="br" class="cj" d="M9.85,30.09c-.78-1.47-.23-3.29,1.24-4.07,.43-.23,.91-.35,1.39-.35,.78,1.47,.23,3.29-1.24,4.07-.43,.23-.91,.35-1.39,.35Z"/><path id="bs" class="cj" d="M15.05,24.62c-2.71,.25-3.44,1.93-3.94,3.52"/><path id="bt" class="co" d="M9.12,44.1c-.14-.45-.5-.81-.95-.96l-1.29-.41,1.29-.41c.45-.14,.81-.5,.95-.95l.41-1.29,.41,1.29c.14,.45,.5,.81,.95,.95l1.29,.41-1.29,.41c-.45,.14-.81,.5-.95,.96l-.41,1.29-.41-1.29Z"/><path id="bu" class="cp" d="M9.92,39.78h0Zm-.39,1.23l.14,.45c.17,.54,.6,.97,1.14,1.14l.45,.14-.45,.14c-.54,.17-.97,.59-1.14,1.14l-.14,.45-.14-.45c-.17-.54-.6-.97-1.14-1.14l-.45-.14,.45-.14c.54-.17,.97-.59,1.14-1.14l.14-.45m0-1.5c-.06,0-.12,.04-.14,.1l-.53,1.68c-.12,.37-.41,.66-.77,.77l-1.68,.53c-.08,.02-.12,.11-.1,.19,.01,.05,.05,.08,.1,.1l1.68,.53c.37,.12,.66,.41,.77,.77l.53,1.68c.02,.08,.11,.12,.19,.1,.05-.01,.08-.05,.1-.1l.53-1.68c.12-.37,.41-.66,.77-.77l1.68-.53c.08-.02,.12-.11,.1-.19-.01-.05-.05-.08-.1-.1l-1.68-.53c-.37-.12-.66-.41-.77-.77l-.53-1.68c-.02-.06-.08-.1-.14-.1"/><path id="bv" class="co" d="M35.52,74.32c-.14-.45-.5-.81-.95-.96l-1.29-.41,1.29-.41c.45-.14,.81-.5,.95-.96l.41-1.29,.41,1.29c.14,.45,.5,.81,.96,.95l1.29,.41-1.29,.41c-.45,.14-.81,.5-.96,.96l-.41,1.29-.41-1.29Z"/><path id="bw" class="cp" d="M36.32,69.99h0Zm-.39,1.23l.14,.45c.17,.54,.59,.96,1.13,1.14l.45,.14-.45,.14c-.54,.17-.97,.59-1.14,1.14l-.14,.45-.14-.45c-.17-.54-.6-.97-1.14-1.14l-.45-.14,.45-.14c.54-.17,.97-.59,1.14-1.14l.14-.45m0-1.5c-.06,0-.12,.04-.14,.1l-.53,1.68c-.12,.37-.41,.66-.77,.77l-1.68,.53c-.08,.02-.12,.11-.1,.19,.01,.05,.05,.08,.1,.1l1.68,.53c.37,.12,.66,.41,.77,.77l.53,1.68c.02,.08,.11,.12,.19,.1,.05-.01,.08-.05,.1-.1l.53-1.68c.12-.37,.41-.66,.77-.77l1.68-.53c.08-.02,.12-.11,.1-.19-.01-.05-.05-.08-.1-.1l-1.68-.53c-.37-.12-.65-.41-.77-.77l-.53-1.68c-.02-.06-.08-.1-.14-.1"/><path id="bx" class="co" d="M31.24,12.82c-.11-.36-.39-.64-.75-.75l-1.03-.33,1.03-.33c.36-.11,.64-.39,.75-.75l.33-1.03,.33,1.03c.11,.36,.39,.64,.75,.75l1.03,.33-1.03,.33c-.36,.11-.64,.39-.75,.75l-.33,1.03-.33-1.03Z"/><path id="by" class="cp" d="M31.87,9.4h0Zm-.3,.95l.12,.38c.13,.43,.47,.76,.89,.9l.38,.12-.38,.12c-.43,.14-.76,.47-.89,.89l-.12,.38-.12-.38c-.14-.43-.47-.76-.89-.89l-.38-.12,.38-.12c.43-.14,.76-.47,.89-.89l.12-.38m0-1.16c-.05,0-.1,.03-.11,.08l-.42,1.33c-.09,.29-.32,.52-.61,.61l-1.33,.42c-.06,.02-.1,.08-.08,.15,.01,.04,.04,.07,.08,.08l1.33,.42c.29,.09,.52,.32,.61,.61l.42,1.33c.02,.06,.09,.1,.15,.07,.04-.01,.06-.04,.07-.07l.42-1.33c.09-.29,.32-.52,.61-.61l1.33-.42c.06-.02,.1-.08,.08-.15-.01-.04-.04-.07-.08-.08l-1.33-.42c-.29-.09-.52-.32-.61-.61l-.42-1.33s-.06-.08-.11-.08"/><path id="c`" class="cp" d="M28.72,50.79c0,.13-.11,.24-.24,.24s-.24-.11-.24-.24,.11-.24,.24-.24,.24,.11,.24,.24h0"/><path id="ca" class="cp" d="M28.49,48.11c0,.27-.22,.49-.49,.49s-.49-.22-.49-.49,.22-.49,.49-.49h0c.27,0,.49,.22,.49,.49"/><path id="cb" class="cp" d="M8.83,49.82c0,.13-.11,.24-.24,.24s-.23-.11-.23-.24c0-.13,.11-.24,.24-.24s.23,.11,.23,.24h0"/><path id="cc" class="cp" d="M8.6,47.14c0,.27-.22,.49-.49,.49s-.49-.22-.49-.49,.22-.49,.49-.49,.49,.22,.49,.49h0"/><path id="cd" class="cp" d="M44.2,26.2c-.03,.13-.15,.21-.28,.18-.13-.03-.21-.15-.18-.28,.03-.13,.15-.21,.28-.18,.13,.03,.21,.15,.18,.28"/><path id="ce" class="cp" d="M44.51,23.53c-.06,.27-.32,.44-.58,.38-.27-.06-.44-.32-.38-.58,.06-.27,.32-.44,.58-.38h0c.27,.06,.44,.32,.38,.58h0"/><path id="cf" class="cp" d="M30.44,18.3c-.03,.13-.15,.21-.28,.18-.13-.03-.21-.15-.18-.28,.03-.13,.15-.21,.28-.18h0c.13,.03,.21,.15,.18,.28"/><path id="cg" class="cp" d="M30.76,15.63c-.06,.27-.32,.44-.58,.38-.27-.06-.44-.32-.38-.58,.06-.27,.32-.44,.58-.38h0c.27,.06,.44,.32,.38,.58h0"/></g></g></g></svg>