<?xml version="1.0" encoding="UTF-8"?><svg id="a" xmlns="http://www.w3.org/2000/svg" viewBox="0 0 329.56 152.19"><defs><style>.cls-1{fill:#231f20;fill-rule:evenodd;}</style></defs><path class="cls-1" d="M104.37,.09c0-.07-28.36,0-28.36,0C34.03,.09,0,34.12,0,76.1s34.03,76.01,76.01,76.01l53.32-.04c13.4,0,24.26-10.78,24.26-24.17l.03-46.36,36.85,58.13c4.98,7.54,13.54,12.52,23.26,12.52,15.39,0,27.86-12.47,27.86-27.86v-42.79l36.85,58.13c4.98,7.54,13.54,12.52,23.26,12.52,15.39,0,27.86-12.47,27.86-27.86V.01h-18.97V124.32c0,4.91-3.98,8.89-8.89,8.89-3.07,0-5.77-1.55-7.37-3.92L228.73,25.96c-.61-.88-1.62-1.46-2.77-1.46-1.86,0-3.36,1.51-3.36,3.36l.02,96.46c0,4.91-3.98,8.89-8.89,8.89-3.07,0-5.77-1.55-7.37-3.92L140.76,25.96c-.61-.88-1.62-1.46-2.77-1.46-1.86,0-3.36,1.51-3.36,3.36l-.02,100.02c0,2.92-2.37,5.28-5.28,5.28l-53.32-.04c-31.5,0-57.04-25.54-57.04-57.04S44.51,19.06,76.01,19.06l28.36-.02V.09h0Z"/><path class="cls-1" d="M107.43,108.77c1.49,0,2.7-1.21,2.7-2.7V27.87C110.13,12.48,122.61,.01,138,.01c9.75,0,18.34,5.01,23.31,12.6l36.73,57.61,.07-42.36c0-15.39,12.47-27.86,27.86-27.86,9.75,0,18.34,5.01,23.31,12.6l36.73,57.61V.01h19.09l-.03,124.31c0,1.86-1.51,3.36-3.36,3.36-1.1,0-2.08-.53-2.69-1.35L233.32,22.9c-1.6-2.36-4.3-3.92-7.37-3.92-4.91,0-8.89,3.98-8.89,8.89l.02,96.46c0,1.86-1.51,3.36-3.36,3.36-1.1,0-2.08-.53-2.69-1.35L145.36,22.9c-1.6-2.36-4.3-3.92-7.37-3.92-4.91,0-8.89,3.98-8.89,8.89l.04,97.22c0,1.49-1.21,2.7-2.7,2.7h-50.44c-28.45-.01-51.51-23.24-51.51-51.69S47.56,24.41,76.01,24.41c0,0,28.36-.11,28.36,0v19.16l-28.36-.02c-17.97,0-32.54,14.57-32.54,32.54s14.57,32.71,32.54,32.71l31.42-.04h0Z"/></svg>