<?xml version="1.0" encoding="utf-8"?>
<!-- Generator: Adobe Illustrator 26.3.1, SVG Export Plug-In . SVG Version: 6.00 Build 0)  -->
<svg version="1.1" id="Layer_1" xmlns="http://www.w3.org/2000/svg" xmlns:xlink="http://www.w3.org/1999/xlink" x="0px" y="0px"
	 viewBox="0 0 1044 244" style="enable-background:new 0 0 1044 244;" xml:space="preserve">
<style type="text/css">
	.st0{fill-rule:evenodd;clip-rule:evenodd;fill:#253232;}
</style>
<path class="st0" d="M73.9,204.1c23,0,25.4,9.6,25.4,20.8H49.9c0-10.6,6.9-11.4,17.8-11.4v-1.1H30v1.1c10.9,0,18.2,0.8,18.2,11.4
	H1.7c0-11.2,1.8-20.1,25.3-20.1v-1.1H0V244h1.7v-7.2h97.6v7.2h1.7v-41H73.9V204.1z M73.9,5.1c23,0,25.4,9.6,25.4,20.8H49.9
	c0-10.6,6.9-11.4,17.8-11.4v-1.1H30v1.1c10.9,0,18.2,0.8,18.2,11.4H1.7C1.7,14.7,3.5,5.9,27,5.9V4.8H0V45h1.7v-7.2h97.6V45h1.7V4
	H73.9C73.9,4,73.9,5.1,73.9,5.1z M1.7,158.9v-7.2H0V178h1.7v-7.2h97.6v7.2h1.7v-41H73.9v1.1c23,0,25.4,9.6,25.4,20.8H0.9L1.7,158.9
	L1.7,158.9z M1.7,91.9v-7.2H0V111h1.7v-7.2h97.6v7.2h1.7V70H73.9v1.1c23,0,25.4,9.6,25.4,20.8H0.9C0.9,91.9,1.7,91.9,1.7,91.9z
	 M261.3,208.2c-23.2,21-48,29.8-85.5,29.8H129V4h47c37.3,0,62.9,9.1,85.9,30c24,21.8,37.2,52.6,37.2,87.2
	C299,155.7,285.8,186,261.3,208.2z M149.5,23.3v195.6h27.3c14.7,0,27.9-2.2,39.5-6.4c11.8-4.2,22.1-10.5,31.1-18.7
	c19.5-17.7,30.6-43.3,30.6-72.6c0-29.1-10.2-53.6-28.1-70.8c-8.9-8.6-19.7-15.4-32.1-20c-11.8-4.4-25-6.8-39.3-7.1
	c-0.7,0-2.4,0-3.2,0L149.5,23.3L149.5,23.3z M321,238V4h117v19.3h-96.4v77.2h94.1v19.1h-94.1v99.3H438V238H321z M778.5,242
	C712.1,242,657,187.5,657,121.4C657,54.8,712.2,0,778.7,0C844.9,0,900,54.8,900,121.1C900,187.2,844.9,242,778.5,242 M778.5,19.5
	C723.1,19.5,678,65.2,678,121.4c0,55.4,45.6,101.2,100.5,101.2c55.2,0,100.5-45.9,100.5-101.6C879,65.2,833.9,19.5,778.5,19.5
	 M918.5,3.5h35.4c25.4,0,40.1,3.7,52.7,12.5c15.1,10.5,23.8,27.8,24.6,48.5c0.1,2,0.1,4,0,6.1c-1,24.9-13.9,44.5-34.1,53
	c-8.4,3.6-14.7,5.1-27.4,6.3c-0.4,0-0.7,0.1-1.1,0.2l75.1,107.5h-25L945.8,131H939v106.5h-20.5V3.5z M939,22.8v89.7h18.8
	c0.2,0,1,0,1.2,0c8.1,0,15.4-1,21.7-3c6.5-2,12-4.9,16.4-8.7c8.9-7.7,13.6-19,13.6-33.6c0-16-6.3-29-16.9-35.7
	c-4.6-2.9-10.1-5.1-16.6-6.6c-5.5-1.2-11.7-1.9-18.8-2c-0.7,0-2.4,0-3.1,0L939,22.8L939,22.8z M576.1,1c25.3,0,47.6,7.4,68.8,22.7
	c1.2,0.9,3,1.9,5.1,3.8v27c-15.3-15.6-22.7-20.7-39.9-27.2c-11.8-4.5-23.5-6.7-35.1-6.7c-53.4,0-98.5,45.5-99.9,100
	c0,1.6,0,3.2,0,4.8c1.2,51.8,43.6,95.3,94.9,98.1c3.3,0.2,6.7,0.2,10.1,0c17.7-1,37.8-8.4,53.3-18.7c3.6-2.3,7.5-5.6,11.8-9.3
	c1.2-1.1,2.8-2.1,4.7-4.3V217c-24.4,18.1-47.3,26-74.3,26C509.5,243,454,188.2,454,122.4C454,56,509.3,1,576.1,1"/>
</svg>
