<?xml version="1.0" encoding="UTF-8"?><svg id="Layer_1" xmlns="http://www.w3.org/2000/svg" viewBox="0 0 923.08 135.62"><path d="M854.93,80.52c0-9.86,34-13.16,34-13.16l-.48-9.86c-4.96-.14-24.31,.58-24.31-4.6,0-6.76,29.61-8.41,39.99-8.78l-2.13-15.78c-17.89,.05-98.25,.26-101.54,22.02-1.78,11.74,21.36,14.52,21.36,14.52v.55s-30.3,5.6-30.3,20.27c0,29.92,104.51,21.54,131.56,14.1,0,0-2.62-13.29-3.81-13.91-1.08-.56-23.02,2.69-40.43,2.22-14.16-.38-23.91-2.64-23.91-7.59M637.19,14.71c0,8.49-9.31,14.49-25.61,14.49s-25.62-5.87-25.62-14.49c0-9.62,14.09-14.71,25.61-14.71s25.62,4.97,25.62,14.71m147.99,70.54c-1.29-.43-10.72,1.69-21.27-1.97-16.88-5.85-19.47-28.48,.57-41.41l-18.75-15.88c-33.08,12.75-39.89,13.66-42.98,14.36-1.54-4.5-8.72-12.05-23.94-11.15-8.28,.49-20.59,5.14-24.15,13.61-2.4,5.71-.95,12.11,4.62,16.49,8.02,6.31,23.32,4.74,23.32,4.74-4.82,20.19-46.79,34-46.79,12.36V39.28h-49.84v43.12c0,21.54,26.44,27.11,52.39,25.4,36.32-2.4,56.75-23.24,64.19-45.74l17.72-4.09s-24.25,31.6,6.01,45.98c17.26,8.2,49.01,1.88,61.76-4.92,0,0-2.12-13.54-2.86-13.78m-113.87-38.98c.33-5.39,13.72-6.77,14.53-.54,0,0-14.89,6.35-14.53,.54m-90.85,42.64c-.46-.48-9.02,1.65-15.22,.14-6.85-1.67-7.29-6.8-7.29-13.61V38.98h-51.33v34.42c0,4.06,.34,13.93-14.06,13.93-6.47,0-13.87-.54-13.87-9.88V38.98h-51.04l.04,43.83c0,24.99,41.92,32.63,84.99,16.32,0,0,20.16,15.93,70.57,4.22,0,0-2.2-13.82-2.79-14.44m-167.59,39.3l-.02-89.88h-46.71s1.58,32.43-.87,38.73c-4.18,13.7-37.83,11.75-37.83-4.22,.01-18.57,34.28-15.37,34.28-15.37l-3.43-19.17s-79.22-7.37-83.02,34.97c-.85,29.52,51.73,41.82,90.61,27.29l-.02,35.05,47.01-7.4Z"/><path d="M260.81,85.09c4.7-4.77,4.42-10.58,.43-16.9-5.89-9.34-22.14-14.8-26.03-22.21-1.71-3.26-1.64-7.12,.9-11.88l-.88-3.91-54.85,6.06c-3.25,7.32,.06,13.02,.3,13.69-39.62,42.43-103.88,42.82-105.59,27.86-1.6-14.03,42.33-17.12,42.33-17.12l-.86-13.98s-29.59,2.33-30.04-6.78c-.46-9.39,27.22-12.43,43.27-12.61l-4.1-22.55c-51.97-.57-100.54,10.88-105.01,30.51-1.34,5.89,2.59,16.25,24.03,20.57v.75S-.31,63.69,0,83.23c.27,17.38,39.11,25.1,66.54,25.29,55.58,.39,84.88-18.03,84.88-18.03-7.77,21.25,53.08,23.81,95.33,8.56,2.01-.73,18.24,6.19,28.1,10.55,0,0,6.31-15.11,5.46-17.16-.77-1.87-19.5-7.35-19.5-7.35m-54.29,5.65c-5.47,6.74-26.89,6.67-25.39,2.26,1.62-4.75,22.86-3.56,25.39-2.26m-41.22-7.22s12.87-8.15,26.11-19.76c0,0,11.4,6.66,16.62,14.58,0,0-18.17-3.45-42.73,5.18"/></svg>