<?xml version="1.0" encoding="UTF-8"?><svg id="layer" xmlns="http://www.w3.org/2000/svg" viewBox="0 0 600.2 316.8"><defs><style>.cls-1{fill:#c6a348;}</style></defs><path class="cls-1" d="M497.6,179.7l-8.3-11.2h-98.9l40.2,58.1c-41.8,8.2-81.3-26.8-80.8-67.5,.6-41.6,34.1-72.7,74.3-72.4,44.1,.2,88,47.7,73.5,93m59.3,71.4s29.3-38.3,29.5-88.1c.2-97.9-68.3-161.5-164.1-161.7-55.4-.1-102.5,27-131,66.5,11.8,16.8,18.8,33.1,21.6,43.8h-43.8c-2.2,6.9-4,14-5.2,21.3h54.1c1.3,8,1.9,16.2,1.9,24.5,0,33.5-10.5,64.6-28.4,90.2,27.9,40.1,74.1,69.2,131.5,69.2,38.1,0,64.9-16.2,69.8-18.8l10.1,13.3h97.3l-43.3-60.2h0Z"/><path d="M171.8,207.2h40.3c0,1.8-20.6,21.9-51.6,21.9-34.1,0-72.7-26.9-73.5-70-.8-44.7,37.8-73.9,73.5-72.7,28.9,1,39.9,9.3,56.1,25.2,0,0,23.3,0,47,.1h49.2c-2.8-10.8-9.7-27-21.6-43.8-1-1.4-2-2.8-3.1-4.2C264.4,32.1,223.2,.2,159.2,0,84-.1,26,50.2,6.9,111.7c-.2,.7-.5,1.5-.7,2.2q0,.1-.1,.1c-3.9,13.8-6.1,28.3-6.1,43.3,.1,14.4,2,28.1,5.4,41.1,12.1,44.9,43.5,81.9,84.9,101.8,.4,.2,.7,.3,1,.5,.2,.1,.4,.2,.7,.3,20.9,9.5,44.3,14.8,69.3,15,52.8-.4,99.5-26.3,128.3-65.8,.6-.8,1.1-1.7,1.7-2.5,17.9-25.6,28.4-56.7,28.4-90.2,0-8.4-.7-16.5-1.9-24.5H171.8v74.2h0Z"/></svg>