<?xml version="1.0" encoding="utf-8"?>
<!-- Generator: Adobe Illustrator 26.3.1, SVG Export Plug-In . SVG Version: 6.00 Build 0)  -->
<svg version="1.1" id="svg2" xmlns="http://www.w3.org/2000/svg" xmlns:xlink="http://www.w3.org/1999/xlink" x="0px" y="0px"
	 viewBox="0 0 780 399.3" style="enable-background:new 0 0 780 399.3;" xml:space="preserve">
<style type="text/css">
	.st0{fill:#00AAD4;}
</style>
<g id="layer1" transform="translate(0,-540.36214)">
	<g id="layer1-8" transform="matrix(0.77997416,0,0,0.77975545,533.42747,316.64157)">
		<g id="layer1-9" transform="translate(-193.99777,-305.81641)">
			<path id="path5047" class="st0" d="M-489.9,835.3v263.8h88.2v-94.6h80.7v94.6h88.2V835.3h-88.2v93.1h-80.7v-93.1H-489.9z"/>
			<path id="path5049" class="st0" d="M-76.6,829.7c-20.9,0-40.1,3.5-57.8,10.4c-17.7,6.9-33.1,16.5-46.2,28.8
				c-13.1,12.3-23.2,26.9-30.5,43.7s-10.9,35-10.9,54.6v0.8c0,20.3,3.8,38.9,11.5,55.8c7.7,16.8,18.2,31.3,31.7,43.3
				c13.4,12.1,29.1,21.4,47.1,27.9c18,6.5,37.2,9.8,57.8,9.8c24.1,0,46-3.7,65.6-10.9c19.6-7.3,36.5-16.8,50.9-28.6V943.1H-85.3
				v56.5h45.2v26.4c-3.5,2-7.5,3.5-12.1,4.5c-4.5,1-10.5,1.5-18.1,1.5c-9.3,0-17.8-1.5-25.4-4.5s-14.3-7.3-19.8-12.8
				c-5.5-5.5-9.9-12.2-13-20c-3.1-7.8-4.7-16.3-4.7-25.6v-0.7c0-9,1.5-17.3,4.3-24.9c2.9-7.5,7-14.1,12.2-19.6
				c5.3-5.5,11.6-9.8,18.8-13s15.2-4.7,23.7-4.7c11.1,0,21.4,2,30.9,6c9.5,4,18.7,9.7,27.5,17l49.4-59.6
				C19.5,857.1,3.2,847.3-15,840.3C-33.2,833.2-53.8,829.7-76.6,829.7L-76.6,829.7z"/>
			<path id="path5051" class="st0" d="M43.1,835.3v74.6h72.7v189.1h82.5V909.9h72.7v-74.6L43.1,835.3L43.1,835.3z"/>
			<path id="path5053" class="st0" d="M211.6,835.3l107,265.6h84.4l107-265.6h-97.2l-51.3,148.1l-51.3-148.1H211.6L211.6,835.3z"/>
			<path id="path5112" class="st0" d="M-141.1,592.7L-485,817.8l682.5,1.2L-141.1,592.7L-141.1,592.7z"/>
		</g>
	</g>
</g>
</svg>
