<?xml version="1.0" encoding="UTF-8"?><svg id="Layer_1" xmlns="http://www.w3.org/2000/svg" viewBox="0 0 532.54 75.46"><defs><style>.cls-1{fill:#e7d993;}.cls-2{fill:#efe6bb;}</style></defs><path class="cls-1" d="M14.66,30.45V1.21H0V74.21H14.66V41.68H31.46v32.57h14.67V1.25h-14.67V30.45H14.66Zm59,34.09c-8.26,0-9.33-8.1-9.33-26.81s1.07-26.81,9.33-26.81,9.32,8.1,9.32,26.81-1.07,26.81-9.32,26.81Zm0,10.92c24.18,0,24.18-18.61,24.18-37.73-.05-19.32-.05-37.73-24.23-37.73s-24.18,18.41-24.18,37.73,0,37.73,24.18,37.73h.05Zm42-1.21V17.9h.2l12.82,56.35h14l13.5-56.35h.19v56.35h14.28V1.25h-22.85l-11.66,49.63h-.14L125,1.21h-23.6V74.21l14.26,.04Zm98.18,0v-11.25h-24.39v-21.32h21.76v-11.23h-21.76V12.45h23.6V1.21h-38.26V74.21l39.05,.04ZM286.67,12.44h7.57c10.2,0,10.2,11.84,10.2,25.29-.01,18.27-1.76,25.27-10.7,25.27h-7.08V12.44h0Zm-14.67,61.81h23.89c25.05,0,23.4-25.7,23.4-36.92,0-22.76-3.59-36.12-22.82-36.12h-24.47V74.25Zm90.31,0v-11.25h-24.38v-21.32h21.75v-11.23h-21.75V12.45h23.59V1.21h-38.25V74.21l39.04,.04Zm45.25-19.93c0-23-29.52-21.75-29.52-35.61,0-5.05,2.82-7.79,7.58-7.79,5.92,0,6.79,5.57,6.79,11h14.28c.96-15.24-6.13-21.92-20.4-21.92-17.87,0-23.11,9.1-23.11,20.53,0,21.75,29.52,22.56,29.52,35.71,0,5-2.43,8.3-7.38,8.3-8.06,0-8.36-5.87-8.36-12.85h-14.66c-.78,12.64,2.62,23.77,20.78,23.77,11.17,0,24.47-2.22,24.47-21.14h.01Zm17.39,19.93V1.25h-14.68V74.25h14.68Zm51.17-50.58c.88-15.27-8.07-23.67-22.44-23.67-24,0-24.86,18.71-24.86,37.12,0,27.72,2.82,38.34,27.48,38.34,5.83,0,15.83-1.62,19.81-2.43V36h-22.62v11.24h8v16.18c-2.33,.88-4.8,1.36-7.29,1.42-8.35,0-10.48-4.05-10.48-26.91,0-14.16,0-27,9.13-27,7.76,0,8.83,6,8.74,12.75h14.53Zm17.77,50.57V20.84h.2l19.13,53.41h19.32V1.25h-13.7V51.79h-.2L500,1.21h-19.81V74.21l13.7,.04Z"/><path class="cls-2" d="M249.88,13.38c0,6.44-4.35,12-9.74,14.62-3.21-5.13-7.25-11.56-7.25-16.58s3-8.4,7.67-8.4c5.28,0,9.32,3.71,9.32,10.36Zm31.7,44.83c-.93,2.29-4.14,8.28-8.18,8.28-5.7,0-11.5-7.3-16.68-14.28,3.31-5.78,7.77-10.69,8.7-10.69,.73,0,1,.76,1,2.73,0,2.61,1.65,5.23,4.87,5.23,3.52,0,5.8-2.4,5.8-6,0-4.69-3-7.09-6.53-7.09-6.42,0-11.29,9.6-14.81,14.29-5.08-7-9.95-14.07-14.72-21.27,6-3.81,10.47-8.39,10.47-16.14,0-7.3-4.66-12-11.81-12-8.36,.11-15.04,6.98-14.92,15.33,0,.05,0,.1,0,.15,0,5.68,4.45,12.33,7.25,17-7.52,4.5-18.19,12.25-18.19,22.38s8.08,18.22,17.3,18.22c8.08,0,15.23-7.53,19.58-14,6.22,8.94,12.85,14,17.09,14,8.09,0,12.23-8.95,15.13-15.6l-1.35-.54Zm-59-9.06c-.05-8.15,4.42-10.15,10.31-14.15,5.49,8,10.88,16.14,16.78,23.88-3.42,4.91-6.11,8.94-12.33,8.94-7.56,0-14.81-11.45-14.81-18.65l.05-.02Z"/></svg>