<?xml version="1.0" encoding="utf-8"?>
<!-- Generator: Adobe Illustrator 26.3.1, SVG Export Plug-In . SVG Version: 6.00 Build 0)  -->
<svg version="1.1" id="Layer_1" xmlns="http://www.w3.org/2000/svg" xmlns:xlink="http://www.w3.org/1999/xlink" x="0px" y="0px"
	 viewBox="0 0 769 166" style="enable-background:new 0 0 769 166;" xml:space="preserve">
<g id="g3" transform="translate(-2.805,-200.316)">
	<path id="path5" d="M494.6,203.1l-0.7,2.3c10.2,0.5,13.1,5,13.1,8.8c0,2.3-0.9,4.9-2.7,7.8c0,0-50.3,78.8-54.3,85
		c-0.2-1-20.9-88.8-20.9-88.8c-0.4-1.6-0.6-3-0.6-4.3c0-6.1,4.7-8.2,13.7-8.5l0.7-2.4h-40l-0.7,2.3c8.5,0.3,13.5,2.6,16.2,13.5
		c4.8,19.6,23.2,97.5,23.8,99.8c-19.3,28.3-35.6,44.6-61.7,44.6c-19,0-33.3-13.1-33.3-30.5s13.9-31.5,31-31.5
		c10.6,0,16.3,5.4,16.3,10.5c0,2.9-1.6,4.4-2.8,5.2c-1.4,0.9-2.7,2-2.7,4.2c0,2.2,1.6,3.6,3.8,3.6c3.7,0,5.6-4.4,5.6-8.6
		c0-10.7-7.8-17.3-20.2-17.3c-20.9,0-33.9,17.9-33.9,34.4c0,16.5,13.6,32.8,36.3,32.8c33.1,0,50.6-26.3,69.1-54.1
		c0,0,53.2-82.8,58.8-91.2c6.5-9.7,15-15.1,24.3-15.5l0.7-2.4L494.6,203.1L494.6,203.1L494.6,203.1z M491.6,288.4
		c0,19.1,12.6,29,25,29c10.8,0,22-5.5,30.7-15.2c8.9-9.9,14-23.1,14-36.2c0-16.4-9.8-27.5-24.3-27.5
		C514.6,238.5,491.6,263.6,491.6,288.4L491.6,288.4L491.6,288.4z M500.3,291.3c0-21.6,18-50.6,36.4-50.6c13,0,15.8,11.7,15.8,21.4
		c0,18.5-12.4,53.1-36,53.1C506.3,315.2,500.3,306.2,500.3,291.3z M610.1,239.7l-13.4,0.2c-6.6,0.2-13.5,0.3-18.6,0.2l-0.5,1.8
		c7.6,0.5,10.4,2.4,7.6,11.4L570,303.5c-2,6.3-6.2,9.6-12.9,10l-0.7,1.9h30.4l0.5-1.9c-5.7-0.3-9.9-1.2-9.9-6.2c0-1.1,0.2-2.5,0.7-4
		c0,0,7.4-24.6,7.5-24.9h13.8c0,0.1,0.1,0.2,0.1,0.2c6,12.1,13.5,27,17.9,36.7l0.1,0.1h40.8l0.5-2c-5.6-0.1-10.1-1.3-10.1-6.2
		c0-1.1,0.2-2.4,0.7-3.9c0,0,6-20.1,6.2-20.8c0.1-0.1,10.1-7.8,10.5-8.1c13.9,28.1,37.2,74.8,82.5,74.8c13,0,23.2-8.1,23.2-18.4
		c0-7.9-5.9-12.2-11.5-12.2s-8.4,3.8-8.4,6.5c0,1.6,1.3,2.7,2.6,2.7c1.5,0,2.4-0.6,3.2-2.1s2.5-2.8,4.8-2.8c4.4,0,7.3,3,7.3,7.9
		c0,8.9-9.3,16.1-20.7,16.1c-28.7,0-53.5-25.4-75.9-77.5c0.3-0.2,26.3-20.1,26.3-20.1c8.6-6.4,12.9-7.1,16.3-7.3l0.6-1.8h-25.5
		l-0.5,1.8c4.2,0.2,6.7,1.8,6.7,4c0,1.7-1.4,3.7-4.2,5.9c0,0-31.9,24.1-36.3,27.4c0.4-1.2,8-26.2,8-26.2l0.2-0.5
		c2.3-6.5,3.7-10.2,13-10.6l0.5-1.8h-28.8l-0.6,1.8c4.2,0.2,6.7,1.1,7.8,2.6c1.1,1.6,1,4.2-0.3,8.8l-15,50.2c-2,6.3-5.9,10-10.7,10
		c-4.3,0-7.2-2.6-10.5-9.6c0,0-11.8-24-13-26.5c11.7-2.2,25.2-9.4,25.2-22.6C632.3,245.7,625.9,239.7,610.1,239.7L610.1,239.7
		L610.1,239.7z M607.8,241.5c13.5,0,16.3,6.8,16.3,12.5c0,10.3-4.8,22.6-27.9,22.6h-10.1c0.2-0.5,10.5-34.4,10.6-34.7
		C598.4,241.8,603.5,241.5,607.8,241.5L607.8,241.5L607.8,241.5z M610.1,239.7L610.1,239.7z"/>
	<path id="path7" d="M179.6,296.7c-12.1-21.2-28.2-54.6-36.8-93.6h-39.7c-10.3,0-27.5,2.2-27.5,16.8c0,5.7,4.6,11.9,11.9,11.9
		c6.7,0,10.2-4.4,10.2-7.6c0-2-1.1-4.1-3.6-4.1s-3.6,2.1-3.6,4.1c0,2.5-1.7,4.2-4.1,4.2c-4.9,0-8.3-3.6-8.3-8.8
		c0-9.4,8.4-14.1,24.8-14.1h16.8c9.9,0,14.2,4.9,11.7,14.8c-16.5,59.5-50.3,123.1-94.5,123.1c-20.3,0-31-11.9-31-23.6
		c0-8.5,5.8-14.8,10.9-14.8c3.4,0,4.7,2.3,5.9,4.5c1.1,2.1,2.3,4.2,5.2,4.2c2.1,0,4.3-1.5,4.3-4.2c0-4.7-5.4-8.3-12.5-8.3
		c-8.2,0-16.9,7.5-16.9,18.7c0,15.4,14.3,26.5,34,26.5c23.6,0,45.7-16.6,65.6-49.4c19-31.3,29.4-66.6,32.4-77.8
		c17.3,61.9,69,147.1,121.7,147.1c14.1,0,24-7.9,24-19.1c0-7-4.3-12.4-9.7-12.4c-3.3,0-5.4,1.4-5.4,3.7c0,2,1.8,3.1,3.6,3.1
		c0.9,0,1.6-0.3,2.3-0.6c0.6-0.3,1.2-0.5,1.9-0.5c2.9,0,4.9,3,4.9,7.2c0,9.5-8.9,16.3-21.2,16.3c-25.3,0-50.1-21-75.7-64.1
		c10.5-34,31.7-90.9,55.3-90.9c4.3,0,7,1.1,9.4,2c1.9,0.7,3.6,1.4,5.8,1.4c5.1,0,6.5-3.2,6.5-5.1c0-4.2-4.2-7-10.4-7
		C213.4,200.2,192.5,255.2,179.6,296.7L179.6,296.7z M361.3,240.1l-0.6,1.8c6.5,0.5,8.4,3.9,8.4,6.7c0,1.5-0.5,3.3-1.5,5.3
		l-27.5,52.7l-4.1-57.1c-0.4-5.9,2.8-7.5,9.1-7.5l0.6-1.8h-26.2L319,242c6.5,0.5,8.5,2.8,8.5,5.4c0,1.3-0.3,2.5-1.3,4.4l-26.8,54.5
		l-4.2-56.7c-0.3-6.5,2.9-7.4,8.9-7.7l0.5-1.8h-26.7l-0.6,1.8c7.5,0.4,9.9,2.6,10.4,9.6l5.3,65.4h3.3l32.3-65.4l5.3,65.4h3.1
		l32.9-62.8c4.4-8.3,9.3-11.7,15.7-12.1l0.5-1.8h-24.8L361.3,240.1L361.3,240.1z M271.3,240.1h-51.1l-0.5,1.8
		c4.2,0.3,6.8,1.2,7.9,2.7c1.1,1.5,1.1,3.9,0,7.6L212,304.1c-1.8,5.9-6.2,9.1-12.8,9.5l-0.7,1.9h65.1l11.3-22.3l-1.3-0.6
		c-9.3,14.8-22.9,20.9-46.7,20.9h-9.7c0.2-0.5,10.9-36.3,11-36.6H239c4.4,0,7.3,1,8.9,3c1.9,2.3,2.1,6.2,0.9,12.2h1.7l9-30h-1.7
		c-3.2,8.3-9.8,13.1-18.6,13.1h-10.4c0.2-0.5,9.9-33,10-33.2h10.1c12.8,0,20.8,5.6,23.7,16.3l1.4-0.2l-2.4-17.9L271.3,240.1
		C271.3,240.1,271.3,240.1,271.3,240.1z"/>
</g>
</svg>
