<?xml version="1.0" encoding="UTF-8"?><svg id="Layer_1" xmlns="http://www.w3.org/2000/svg" viewBox="0 0 216 24.82"><defs><style>.cls-1{fill:#fb4f32;}.cls-1,.cls-2{fill-rule:evenodd;}.cls-2{fill:#f5416c;}</style></defs><path class="cls-1" d="M10.52,10.18c2.15,0,3.57-.93,3.57-2.35,0-1.62-1.22-2.5-3.38-2.5H5.19v4.85h5.33ZM0,.2H10.77c5.04,0,8.27,2.94,8.27,7.49,0,2.4-1.27,4.9-3.23,6.31l-.25,.15,4.16,10.43h-5.53l-3.77-9.2H5.24v9.2H0V.2ZM23.3,.2h17.87V5.19h-12.63v3.77h6.85v5.04h-6.85v5.53h12.92v5.04H23.3V.2ZM58.85,14.1l-2.55-6.02-2.55,6.02h5.09Zm-14.93,10.48L54.25,.2h4.21l10.18,24.38h-5.39l-2.35-5.43h-9.25l-2.35,5.43h-5.38ZM71.48,.2h5.19V19.58h12.92v4.99h-18.11V.2Z"/><path class="cls-2" d="M98.39,16.25c2.4,2.89,3.87,3.72,6.32,3.72s4.26-1.13,4.26-2.79c0-1.37-1.08-2.1-4.21-2.79-4.26-.98-6.02-1.91-7.24-3.82-.65-1.04-.99-2.25-.98-3.48,0-4.16,3.33-7.1,8.03-7.1,3.62,0,7.24,1.81,9.4,4.75l-3.67,3.13c-2.45-2.25-3.62-2.84-5.78-2.84-1.86,0-3.03,.74-3.03,1.86s.73,1.61,2.84,2.11c.54,.15,1.27,.34,2.2,.64l3.08,.98c2.54,.78,4.4,3.48,4.4,6.41,0,4.5-3.82,7.78-9.01,7.78-2.69,0-5.63-.98-7.59-2.59-.64-.54-1.42-1.32-2.45-2.4-.34-.34-.39-.39-.73-.78l4.16-2.79h0Z"/><path class="cls-2" d="M117.72,24.58h5.14V.2h-5.14V24.58ZM126.75,.2h4.8l6.17,13.12L143.99,.2h5.04l-.05,24.38h-5.09V12.24l-6.22,12.34-5.82-12.24v12.24h-5.09V.2Zm36.86,10.03h.39c2.11,0,3.38-.93,3.38-2.5s-1.22-2.45-3.28-2.45h-6.07v4.94h5.58ZM152.9,.2h11.36c4.8,0,8.13,3.08,8.13,7.54s-3.48,7.64-8.27,7.64h-6.02v9.2h-5.19V.2Zm23.06,0h5.19V19.58h12.92v4.99h-18.11V.2Zm21.88,0h17.87V5.19h-12.63v3.77h6.85v5.04h-6.85v5.53h12.92v5.04h-18.16V.2Z"/></svg>