<?xml version="1.0" encoding="UTF-8"?><svg id="Layer_1" xmlns="http://www.w3.org/2000/svg" viewBox="0 0 296 90.32"><defs><style>.cls-1{fill:#e90606;}</style></defs><path class="cls-1" d="M141.22,0s-3.33,.07-5.26,.04c-.08,.81-1.01,8.15-1.81,14.05-.92,5.46-8.21,45.99-10.68,58.12-.65,3.66-2.66,14.01-2.85,15.04-2.32,.28-5.06,.53-6.85,.6-.24,0-.64,.09-.83,.09v2.1c.22,0,1.38,.08,2.2,.04,1.97-.06,7.56-.33,8.62-.33,4.02,0,6.7,.27,10.42,.34,.05,0,1.07,0,1.52-.06v-2.12c-.31,0-.72-.01-.96-.01-1.05,.03-4.92-.26-6.88-.53,.23-1.39,3.65-22.38,5.29-30.77,3.12-15.53,5.28-26.55,5.28-26.55l.58,1.37,24.65,58.75,4.5,.02s2.57-6.36,5.62-13.5c.08-.17,.3-.68,.61-1.41,3.2-7.41,19.06-45.02,19.06-45.02,0,0,.15,.68,.4,1.89,1.51,7.37,6.62,33.93,7.71,40.34,.51,3.3,.99,6.64,1.27,8.6,.41,2.77,.68,5.49,.68,6.27-.5,.02-5.52,.48-7.42,.56-.27,0-.78,.02-.81,.02v2.14c.68,0,1.34,.03,2,.01,3.88-.07,7.61-.38,11.49-.38,4.36,0,11.43,.39,15.96,.41,.51,0,1.42-.04,1.42-.04v-2.16c-.26,0-1.4-.06-1.82-.09-2.03-.16-5.45-.48-6.32-.53,0,0-.56-3.1-1.3-6.69-2.96-14.34-11.39-57.92-12.68-68.64-.44-3.69-1.69-11.96-1.69-11.96h-5.07s-2.59,7.43-4.95,14.21c-1.61,4.63-3.8,10.35-5.47,14.73-8.24,21.66-17.48,41.84-17.48,41.84,0,0-19.64-46.86-20.68-49.57C147.64,18.52,141.22,0,141.22,0h0ZM.04,.02l.04,4.95-.08,12.06,1.31-.04,.14-10.73s7.17-.06,8.09-.06h13.36l8.62,.05V80.86l.02,6.44-.18,.03c-1.15,.09-5.57,.36-7.36,.42-.4,.01-.66,.02-.7,.02v2.18c.33,.02,1.2,.04,1.32,.03,4.24-.06,9.99-.42,14.06-.42,4.14,0,9.96,.4,13.56,.45,.36,0,.78-.03,1.12-.03v-2.05h-.45c-1.15,0-7.5-.41-8.15-.5-.03-1-.15-5.83-.15-5.94l.03-75.25,6.56-.02h17.13l5.72,.09c.04,.41,.33,5.84,.32,5.99-.01,.4,.21,4.44,.21,5.44l1.36,.02-.1-12.2,.06-5.49c-5.03,.14-17.86,.31-37.77,.3C21.05,.37,4.6,.23,.04,.02h0Zm79.75,.02l.02,2.14c.68,.04,4.65,.39,5.62,.44,.77,.09,1.85,.19,2.62,.27,0,.68,.01,5.4,.02,7.27,.13,17.66,.02,56.69-.03,70.5-.02,3.99-.03,6.57-.03,6.57-.49,.15-1.58,.2-2.77,.28-1.01,.07-4.64,.37-5.45,.39v2.14c.34,0,.95,.07,1.3,.07,4.11,0,9.82-.51,14.03-.51,4.25,0,9.93,.52,13.28,.52h-.01c.29,0,.98-.07,1.27-.07v-2.14h-.29c-.13-.03-4.45-.21-5.5-.32-.55-.04-2.93-.24-2.96-.32-.01-.04-.02-.68-.02-1.75,.01-1.01,.01-2.69,.01-4.51,.01-13.93,.05-55.3,.06-71.11,0-3.06,.01-5.54,.01-6.87,.93-.06,4.73-.46,6.09-.58,.06,0,1.86-.11,2.6-.15V.06c-4.65,0-10.8,.36-15.34,.36-4.75,0-10.59-.38-14.53-.38h0Zm215.2,.06s-.49,0-1.4,0c-3.11,.01-11.07,.07-20.38,.12-5.72,.03-10.19,.08-16.08,.08-4.13,.05-9.91,.21-13.48,.2-5.7,0-10.35-.36-12.88-.37-1.2,0-1.87,.04-2.2,.02,.02,.03,.02,2.11,.02,2.11,.22,.04,.66,.09,1.07,.08,1.43,.1,4.11,.31,5.47,.49,.27,.05,.73,.13,2.01,.27,0,.47,.06,5.83,.05,9.04,0,2.98-.03,69.47-.03,69.47,0,.11-.15,5.35-.15,5.77-2.26,.39-6.6,.62-8.08,.63h-.44v2.11c.21,0,1.18,.04,1.73,.04,2.39,0,8.55-.38,14.84-.39,4.41,0,9.26,.16,14.17,.23,6.05,.08,12.17,.09,17.67,.17,9.07,.13,16.42,.14,18.81,.14,0,0,.29-16.82,.29-18.18h-1.31c0,1.45-.53,6.78-.55,7.01-.17,2.01-.35,4.11-.49,5.14,0,0-.64,.05-.95,.04-1.49-.03-6.25,.14-6.35,.14h-21.23l-14.91-.24-.1-4.14V47.99c2.65-.09,6.71-.23,9.18-.23,2.1,0,7.05-.11,9.82-.11,6.73,.01,12.71,.06,13.19,.07,1.11,.03,3.17,.1,3.95,.15,.03,.28,.12,.72,.13,.85,.4,2.46,.62,4.16,.89,6.58,.04,.22,.06,.43,.09,.62h1.53s.04-.86,.02-1.4c-.03-1.89-.15-5.67-.15-9.85-.01-2.9,.16-7.34,.18-9.47,.01-.58-.06-.99-.06-1.15l-1.4,.03c-.01,.46-.12,1.14-.12,1.14-.12,1.59-.57,3.62-.93,5.77-.1,.27-.17,.64-.17,.64-.16,.05-4.55,.29-4.94,.28-.15,0-6.54,.18-6.65,.18l-24.56-.09,.04-35.41s3.12-.11,3.99-.11c3.54,0,9.3-.03,15.17-.02,8.59,.01,16.93,.06,16.95,.08,.05,.02,2.59,.06,2.64,.1,.06,.05,3.24,.14,4.02,.17,0,0,.06,.26,.1,.6,.35,3.73,.64,8.17,.77,9.74v.63h1.32c0-2.3-.12-9.34-.14-13.82-.01-1.44,.02-2.61,.02-3.28V.1h0Z"/></svg>