<?xml version="1.0" encoding="UTF-8"?><svg id="Layer_1" xmlns="http://www.w3.org/2000/svg" viewBox="0 0 365 93.37"><path d="M106.46,.41c-21.27,.15-38.67,23.8-38.67,44.42,0,21.7,12.76,48.18,38.67,48.09,25.92-.09,39.37-28.59,39.37-48.09C145.83,23.28,127.73,.25,106.46,.41Zm0,.81c17.81,0,22.61,19.66,22.61,43.61,0,31.6-5.79,47.18-22.61,47.15-16.81-.03-22.28-12.79-22.28-47.15,0-21.53,4.48-43.61,22.28-43.61Z"/><path d="M152.85,45.41c-.1-23.47,18.69-44.25,34.58-45.28,5.74-.41,13.12,2.22,17.43,4.1,3.13,1.36,9.52-.61,10.65-4.22h.62V31.96h-.62c0-1.36-5.92-31.04-28.09-31.04-16.37,0-17.95,28.79-17.95,44.48s.48,46.75,19.58,46.75c9.26,0,16.11-4.05,17.88-12.24v-24.91h-7.77v-1.06h30.11v1.06h-7.43v36.42h-.6s-1.21-5.25-7.33-5.24c-7.83,.02-15.22,6.83-24.22,6.74-23.81-.22-36.76-24.06-36.85-47.53h0Z"/><path d="M9.38,3.55H0v-1.05H32.85v1.05h-8.24l23.47,63.73c7.34-22.59,13.02-39.3,20.68-63.73h-8.15v-1.05h17.34v1.05h-7.9l-28.52,88.92L9.38,3.55Z"/><path d="M233.89,70.71l-.15-67.25h-8.92v-1.01h32.88v1.01h-8.92l.2,73.74c1.97,8.44,5.49,14.85,17.48,14.95s20.15-7.1,23.18-16.92V3.45h-10.21v-.98h83.56l.17,32.28h-.8c-1.55-20.84-9.59-28.72-23.66-31.02-4.84-.79-9.92-.2-16.34-.25V44.69c5.59,.43,11.54,.08,15.56-3.37,3.65-3.13,4.68-10.38,4.95-13.32h.71V63.88h-.76c-.22,0-.51-9-4.89-13.27-4.4-4.3-10.01-5.36-15.56-4.33v44.01c7.83,0,14.07,.66,19.49-.82,16.48-4.52,22.28-18.42,22.23-32.36h.92v34.22h-65.55v-1.04h7.41V3.45h-16.01V75.22c-1.81,6.87-8.45,18.23-25.45,18.15-15.81-.07-31.48-7.2-31.52-22.66h0Z"/></svg>