<?xml version="1.0" encoding="utf-8"?>
<!-- Generator: Adobe Illustrator 26.3.1, SVG Export Plug-In . SVG Version: 6.00 Build 0)  -->
<svg version="1.1" id="Layer_1" xmlns="http://www.w3.org/2000/svg" xmlns:xlink="http://www.w3.org/1999/xlink" x="0px" y="0px"
	 viewBox="0 0 128 128" style="enable-background:new 0 0 128 128;" xml:space="preserve">
<style type="text/css">
	.st0{fill:#A68764;}
</style>
<g id="Layer_2_00000085242763092760365740000015464840742577890190_">
	<g id="basket">
		<path class="st0" d="M50,75.3h-4.9c-1.7-0.1-3.1,1.2-3.2,2.9v17.3c0.1,1.7,1.5,3,3.2,2.9H50c1.7,0.1,3.1-1.2,3.2-2.9V78.2
			C53.1,76.5,51.7,75.2,50,75.3z M49.8,95h-4.5V78.7h4.5L49.8,95z M65.7,75.3h-4.9c-1.7-0.1-3.1,1.2-3.2,2.9v17.3
			c0.1,1.7,1.5,3,3.2,2.9h4.9c1.7,0.1,3.1-1.2,3.2-2.9V78.2C68.8,76.5,67.4,75.2,65.7,75.3z M65.5,95.1H61V78.7h4.5L65.5,95.1z
			 M81.9,75.8H77c-1.7-0.1-3.1,1.2-3.2,2.9v17.3c0.1,1.7,1.5,3,3.2,2.9h4.9c1.7,0.1,3.1-1.2,3.2-2.9V78.7C85,77,83.6,75.8,81.9,75.8
			z M81.7,95.6h-4.5V79.2h4.5L81.7,95.6z"/>
		<path class="st0" d="M111.8,56.6h-8v-13c0-0.9-0.8-1.7-1.7-1.7H90.6l-8.7-21.1c-0.7-1.7-2-2.9-3.7-3.6c-1.5-0.6-3.2-0.5-4.7,0.3
			c-3.1,1.5-4.5,5-3.2,8.2L77,41.9H57.7c-0.9,0-1.7,0.8-1.7,1.7v2.8h-5.8l8.4-20.7c1.2-3.1-0.1-6.7-3.2-8.2
			c-1.5-0.7-3.2-0.8-4.7-0.3c-1.7,0.6-3,1.9-3.6,3.6L36.5,46.4H24.6c-0.9,0-1.7,0.8-1.7,1.7v8.4h-6.6c-3.5,0-6.3,2.8-6.3,6.3
			c0,2.9,2,5.5,4.9,6.2l5.1,33c1,6.2,4.6,9.2,11.2,9.2h64.2c6.6,0,10.3-3,11.2-9.2l5.1-32.8h0.1c3.5,0,6.3-2.8,6.3-6.3
			c0-3.5-2.8-6.3-6.3-6.3L111.8,56.6z M100.4,45.3v11.3h-3.9l-4.6-11.3H100.4z M75.1,20.5c0.3-0.2,0.6-0.2,1-0.3
			c0.3,0,0.6,0.1,0.9,0.2c0.8,0.3,1.4,0.9,1.7,1.7l17.5,42.5l0,0c0.6,1.5-0.1,3.2-1.6,3.9c-0.7,0.3-1.5,0.3-2.3,0
			c-0.7-0.3-1.3-0.8-1.6-1.6l0,0L87,57.6l0,0l-6-14.6l0,0l-7.6-18.6C72.7,22.8,73.5,21.1,75.1,20.5L75.1,20.5z M44.7,59.9h39.6
			l2.4,5.9H42.2L44.7,59.9z M59.4,45.3h18.9l4.6,11.3H59.3V45.3L59.4,45.3z M56.1,49.8v6.8H46l2.8-6.8H56.1z M50.2,22.1
			c0.3-0.8,0.9-1.4,1.7-1.7c0.3-0.1,0.6-0.2,0.9-0.2c0.4,0,0.7,0.1,1,0.3c1.5,0.6,2.3,2.4,1.7,3.9L38.1,66.8l0,0
			c-0.3,0.7-0.9,1.2-1.6,1.5c-1.5,0.6-3.2-0.1-3.8-1.6c-0.3-0.7-0.3-1.6,0-2.3l0,0L50.2,22.1z M26.3,49.8h8.9l-2.8,6.8h-6.1V49.8z
			 M13.3,62.9c0-1.6,1.3-2.9,2.9-2.9H31l-1.4,3.4c-0.3,0.8-0.5,1.7-0.5,2.5H16.3C14.6,65.8,13.3,64.5,13.3,62.9
			C13.3,62.9,13.3,62.9,13.3,62.9z M103.3,101.5c-0.5,3.3-1.8,6.3-7.9,6.3H31.1c-5.7,0-7.3-2.5-7.9-6.3l-5-32.3h12
			c0.7,1,1.6,1.8,2.8,2.3c0.8,0.3,1.6,0.5,2.5,0.5c0.8,0,1.7-0.2,2.4-0.5c1.1-0.5,2.1-1.3,2.8-2.3h47.6c0.7,1,1.7,1.8,2.8,2.3
			c0.8,0.3,1.6,0.5,2.4,0.5c2.1,0,4.1-1,5.3-2.8h9.5L103.3,101.5z M111.7,65.8h-12c0-0.9-0.1-1.7-0.5-2.6l-1.4-3.4h13.8
			c1.6,0,2.9,1.3,2.9,2.9C114.6,64.4,113.3,65.7,111.7,65.8L111.7,65.8z"/>
	</g>
</g>
</svg>
