<svg xmlns="http://www.w3.org/2000/svg" id="Layer_1" data-name="Layer 1" viewBox="0 0 128 128"><path d="M109.85,73.768a5.663,5.663,0,0,0,4.951-4.953l2.826-23.388a2,2,0,0,0-1.793-2.23L37.552,35.622a30.941,30.941,0,0,0-7.479-10.371l1.074-1.975a2,2,0,0,0-.8-2.712l-11.6-6.31a5.674,5.674,0,1,0-5.422,9.97l11.6,6.31a2.024,2.024,0,0,0,2.712-.8l.471-.866a28.2,28.2,0,0,1,6.2,9.351L49.165,76.8a5.668,5.668,0,0,0,5.291,3.635c.171,0,.344-.016.518-.031l-7.4,8.5a7.512,7.512,0,0,0,5.663,12.446h2.685a8.5,8.5,0,1,0,14.347,0H94.827a8.5,8.5,0,1,0,14.347,0h.35a5.675,5.675,0,0,0,0-11.349H61.666l2.795-3.209,15.166-1.726a5.619,5.619,0,0,0,4.293-8.154Zm-84.771-47.7-9.845-5.354a1.675,1.675,0,0,1,.326-3.077,1.665,1.665,0,0,1,1.274.135l9.844,5.354Zm38.014,84.323a4.5,4.5,0,1,1,4.5-4.5A4.5,4.5,0,0,1,63.092,110.386Zm38.908,0a4.5,4.5,0,1,1,4.5-4.5A4.5,4.5,0,0,1,102,110.386ZM109.368,69.8h0l-.2.025-.387-3.828,2.351-.128-.3,2.469A1.672,1.672,0,0,1,109.368,69.8ZM56.682,55.859l7.254-.031,1.927,8.5-7.006.382Zm-1.89,9.074L49,65.249l-3.6-9.342,7.16-.031Zm56.824-3.1-3.24.177-.643-6.37,4.634-.02Zm-7.238.395-4.572.249-.89-6.8,4.8-.021Zm-34.463,1.88-1.881-8.3,6.565-.028,1.486,7.99Zm6.907,3.629,1.091,5.868-5.69.689-1.412-6.229Zm1.842-11.973,6.383-.027L86.4,63.209l-6.292.343Zm10.445-.045,5.774-.025.916,7-5.37.293Zm9.283-4.04-.815-6.231,5.157.5.577,5.711ZM94.36,51.7l-5.977.026-1.325-7.292,6.432.622Zm-10.039.043-6.4.028L76.363,43.4l6.557.634Zm-10.466.045-6.727.029L64.97,42.294l7.25.7Zm-10.825.047-7.329.031L53.067,41.142l7.709.746Zm3.73,16.455,1.471,6.491-6.7.811-1.7-6.924Zm15.132,4.837L80.85,67.518l6.275-.342.945,5.2Zm9.258-6.168,5.17-.282.606,4.63-4.879.591Zm9.175-.5,4.454-.243.413,4.091-4.3.52ZM112.85,51.617l-5.522.024-.535-5.3,6.617.64Zm-64-10.884,2.738,11.147-7.717.033L39.2,39.8ZM52.9,75.359l-2.382-6.186,5.248-.286,1.765,7.186-2.866.347A1.683,1.683,0,0,1,52.9,75.359Zm27.3,5.093a1.643,1.643,0,0,1-1.065.64L63.236,82.9a2,2,0,0,0-1.282.674l-6.191,7.109A2,2,0,0,0,57.271,94h52.251a1.675,1.675,0,0,1,0,3.349H53.234a3.511,3.511,0,0,1-2.647-5.819l8.842-10.152A5.326,5.326,0,0,1,62.7,79.592l15.941-1.814a1.634,1.634,0,0,1,.229-.016A1.675,1.675,0,0,1,80.2,80.452Zm-15.1,25.434a2,2,0,1,1-2-2A2,2,0,0,1,65.092,105.886Zm38.908,0a2,2,0,1,1-2-2A2,2,0,0,1,104,105.886Z"/></svg>