<svg xmlns="http://www.w3.org/2000/svg" xml:space="preserve" x="0" y="0" enable-background="new 0 0 64 64" viewBox="0 0 64 64"><path id="hand" d="M59.4209,37.3926h-3.5713c-1.5446,0-2.8514,0.9889-3.3519,2.3624l-5.9518-1.2228 c-0.3002-0.1951-0.5824-0.3802-0.8522-0.5577c0.0544-1.4044-0.3725-2.7665-1.2337-3.8925 c-0.9131-1.1953-2.2363-2.0313-3.7852-2.4092c-0.0811-1.3076-0.6963-2.5635-1.7402-3.4873 c-1.1475-1.0234-2.7168-1.5586-4.2764-1.5088c-1.5918-1.6261-3.7744-2.6341-6.1543-2.8558v-4.6345l1.9301-1.9301 c0.1255-0.1138,6.0848-5.3597,13.605-2.4293c0.0146,0.0059,0.0293,0.0107,0.0439,0.0156c0.7607,0.2588,1.248-0.0996,1.4209-0.2637 c0.5459-0.5186,0.5996-1.376,0.1797-2.8682c-0.7227-2.5469-3.7373-5.9082-8.1973-5.4346c-5.7148,0.623-7.1484,5.1494-8.1963,8.4551 c-0.1369,0.4326-0.2723,0.8479-0.4116,1.2524l-1.3746,1.3746l-1.3748-1.3748c-0.1381-0.4022-0.2725-0.8151-0.4084-1.2453 c-1.0469-3.3076-2.4795-7.8389-8.1963-8.4619c-4.4541-0.4766-7.4785,2.8877-8.1982,5.4375 c-0.4189,1.4893-0.3652,2.3467,0.1807,2.8652c0.1729,0.1641,0.6592,0.5225,1.4209,0.2637 c0.0146-0.0049,0.0293-0.0098,0.0439-0.0156c7.4946-2.9212,13.3128,2.1691,13.6019,2.4291l1.9303,1.9303v4.6345 c-2.3787,0.2217-4.5596,1.2297-6.1514,2.8557c-1.5898-0.0459-3.1299,0.4863-4.2773,1.5059 c-1.0469,0.9268-1.6631,2.1885-1.7412,3.502c-1.83,0.4915-3.5389,1.7893-4.2203,3.7043l-2.4662-1.6115 c-2.1191-1.3086-4.627-0.3398-5.8271,1.3564c-1.1748,1.6611-1.4521,4.4805,1.6641,6.9854l11.9297,8.7939 c2.9863,2.0635,5.8271,2.4414,10.3447,2.4414c0,0,16.3574-0.0059,16.8428-0.0117c3.0504-0.0401,5.7183-0.0508,9.7339,1.4287 c0.3043,1.6656,1.7604,2.9346,3.5142,2.9346h2.7906c0.0778,0.021,0.1541,0.0518,0.2338,0.0518 c0.1053,0,0.2106-0.0192,0.3128-0.0518h0.2341c1.9736,0,3.5791-1.6045,3.5791-3.5762V40.9717 C63,38.998,61.3945,37.3926,59.4209,37.3926z M37.7031,8.2646c0.2158-0.0234,0.4268-0.0352,0.6318-0.0352 c3.1875,0,5.0479,2.7002,5.4238,4.0254c0.041,0.1445,0.0732,0.2734,0.0996,0.3867c-5.2139-1.6777-9.6211-0.0869-12.2344,1.3789 C32.5723,11.2412,33.8818,8.6807,37.7031,8.2646z M15.665,11.9229c-1.4102,0-2.9248,0.207-4.5127,0.7188 c0.0264-0.1133,0.0586-0.2412,0.0986-0.3857c0.3994-1.4121,2.4678-4.3779,6.0566-3.9912c3.8193,0.416,5.1299,2.9766,6.0771,5.7568 C21.5693,13.002,18.8848,11.9229,15.665,11.9229z M15.4844,33.4922c0.2666-0.0322,0.5078-0.1709,0.6719-0.3838 c0.1631-0.2129,0.2334-0.4834,0.1963-0.749c-0.1406-0.9883,0.2422-1.9648,1.0498-2.6807c0.8506-0.7559,2.0361-1.1162,3.248-0.9766 c0.3232,0.0352,0.6475-0.0889,0.8633-0.3359c1.4414-1.6475,3.625-2.5928,5.9902-2.5928c2.3672,0,4.5518,0.9453,5.9932,2.5928 c0.2158,0.2471,0.5391,0.3711,0.8633,0.3359c1.2109-0.1406,2.3965,0.2207,3.2461,0.9775c0.8086,0.7168,1.1914,1.6934,1.0488,2.6777 c-0.0381,0.2656,0.0322,0.5361,0.1963,0.75c0.1631,0.2139,0.4053,0.3525,0.6719,0.3848c1.4014,0.1719,2.5898,0.8125,3.3477,1.8047 c0.3075,0.4019,0.5225,0.8522,0.6599,1.325c-1.8309-1.0232-3.6793-1.574-7.4167-1.574h-6.8008 c-3.1074,0-4.7832,2.4365-4.7832,4.7285c0,0.916,0.2529,1.7813,0.7246,2.5029c-4.125-0.0225-4.6992-0.1455-5.7979-0.7852 l-7.5892-4.959C12.2063,34.7916,13.8657,33.6909,15.4844,33.4922z M42.5781,51.3428c-0.4775,0.0059-16.8193,0.0117-16.8193,0.0117 c-4.1924,0-6.6396-0.3125-9.1826-2.0684l-11.8711-8.751c-1.6992-1.3652-2.167-2.9531-1.252-4.2461 c0.667-0.9414,2.0234-1.5049,3.1211-0.8242l11.832,7.7295c1.8691,1.0918,2.7539,1.0918,9.8945,1.0889h4.7061c0.5527,0,1-0.4473,1-1 s-0.4473-1-1-1h-3.6934c-0.9092,0-1.6465-0.2695-2.1318-0.7793c-0.4199-0.4404-0.6514-1.0547-0.6514-1.7275 c0-1.3145,0.8711-2.7285,2.7832-2.7285h6.8008c3.3188,0,4.8664,0.4338,6.5152,1.3619c0.6024,0.3391,2.6157,1.6635,2.9907,1.9047 c0.1035,0.0664,0.2188,0.1143,0.3398,0.1387l6.3105,1.2968v10.8754C48.3108,51.2882,45.5105,51.3103,42.5781,51.3428z M61,54.1299 c0,0.8691-0.708,1.5762-1.5791,1.5762H58.793c-0.0005,0-0.001,0-0.0015,0h-2.9419c-0.8711,0-1.5791-0.707-1.5791-1.5762V40.9717 c0-0.8711,0.708-1.5791,1.5791-1.5791h3.5713c0.8711,0,1.5791,0.708,1.5791,1.5791V54.1299z"/></svg>