<?xml version="1.0" encoding="utf-8"?>
<!-- Generator: Adobe Illustrator 26.3.1, SVG Export Plug-In . SVG Version: 6.00 Build 0)  -->
<svg version="1.1" id="Layer_1" xmlns="http://www.w3.org/2000/svg" xmlns:xlink="http://www.w3.org/1999/xlink" x="0px" y="0px"
	 viewBox="0 0 64 64" style="enable-background:new 0 0 64 64;" xml:space="preserve">
<style type="text/css">
	.st0{fill:#A68764;}
</style>
<path id="hand" class="st0" d="M59.4,37.4h-3.6c-1.5,0-2.9,1-3.4,2.4l-6-1.2c-0.3-0.2-0.6-0.4-0.9-0.6c0.1-1.4-0.4-2.8-1.2-3.9
	c-0.9-1.2-2.2-2-3.8-2.4c-0.1-1.3-0.7-2.6-1.7-3.5c-1.1-1-2.7-1.6-4.3-1.5c-1.6-1.6-3.8-2.6-6.2-2.9v-4.6l1.9-1.9
	c0.1-0.1,6.1-5.4,13.6-2.4c0,0,0,0,0,0c0.8,0.3,1.2-0.1,1.4-0.3c0.5-0.5,0.6-1.4,0.2-2.9c-0.7-2.5-3.7-5.9-8.2-5.4
	c-5.7,0.6-7.1,5.1-8.2,8.5c-0.1,0.4-0.3,0.8-0.4,1.3l-1.4,1.4L26.1,16c-0.1-0.4-0.3-0.8-0.4-1.2c-1-3.3-2.5-7.8-8.2-8.5
	c-4.5-0.5-7.5,2.9-8.2,5.4c-0.4,1.5-0.4,2.3,0.2,2.9c0.2,0.2,0.7,0.5,1.4,0.3c0,0,0,0,0,0c7.5-2.9,13.3,2.2,13.6,2.4l1.9,1.9v4.6
	c-2.4,0.2-4.6,1.2-6.2,2.9c-1.6,0-3.1,0.5-4.3,1.5c-1,0.9-1.7,2.2-1.7,3.5c-1.8,0.5-3.5,1.8-4.2,3.7l-2.5-1.6
	c-2.1-1.3-4.6-0.3-5.8,1.4c-1.2,1.7-1.5,4.5,1.7,7l11.9,8.8c3,2.1,5.8,2.4,10.3,2.4c0,0,16.4,0,16.8,0c3.1,0,5.7-0.1,9.7,1.4
	c0.3,1.7,1.8,2.9,3.5,2.9h2.8c0.1,0,0.2,0.1,0.2,0.1c0.1,0,0.2,0,0.3-0.1h0.2c2,0,3.6-1.6,3.6-3.6V41C63,39,61.4,37.4,59.4,37.4z
	 M37.7,8.3c0.2,0,0.4,0,0.6,0c3.2,0,5,2.7,5.4,4c0,0.1,0.1,0.3,0.1,0.4c-5.2-1.7-9.6-0.1-12.2,1.4C32.6,11.2,33.9,8.7,37.7,8.3z
	 M15.7,11.9c-1.4,0-2.9,0.2-4.5,0.7c0-0.1,0.1-0.2,0.1-0.4c0.4-1.4,2.5-4.4,6.1-4c3.8,0.4,5.1,3,6.1,5.8
	C21.6,13,18.9,11.9,15.7,11.9z M15.5,33.5c0.3,0,0.5-0.2,0.7-0.4c0.2-0.2,0.2-0.5,0.2-0.7c-0.1-1,0.2-2,1-2.7c0.9-0.8,2-1.1,3.2-1
	c0.3,0,0.6-0.1,0.9-0.3c1.4-1.6,3.6-2.6,6-2.6c2.4,0,4.6,0.9,6,2.6c0.2,0.2,0.5,0.4,0.9,0.3c1.2-0.1,2.4,0.2,3.2,1
	c0.8,0.7,1.2,1.7,1,2.7c0,0.3,0,0.5,0.2,0.8c0.2,0.2,0.4,0.4,0.7,0.4c1.4,0.2,2.6,0.8,3.3,1.8c0.3,0.4,0.5,0.9,0.7,1.3
	c-1.8-1-3.7-1.6-7.4-1.6h-6.8c-3.1,0-4.8,2.4-4.8,4.7c0,0.9,0.3,1.8,0.7,2.5c-4.1,0-4.7-0.1-5.8-0.8l-7.6-5
	C12.2,34.8,13.9,33.7,15.5,33.5z M42.6,51.3c-0.5,0-16.8,0-16.8,0c-4.2,0-6.6-0.3-9.2-2.1L4.7,40.5c-1.7-1.4-2.2-3-1.3-4.2
	c0.7-0.9,2-1.5,3.1-0.8l11.8,7.7c1.9,1.1,2.8,1.1,9.9,1.1H33c0.6,0,1-0.4,1-1s-0.4-1-1-1h-3.7c-0.9,0-1.6-0.3-2.1-0.8
	c-0.4-0.4-0.7-1.1-0.7-1.7c0-1.3,0.9-2.7,2.8-2.7h6.8c3.3,0,4.9,0.4,6.5,1.4c0.6,0.3,2.6,1.7,3,1.9c0.1,0.1,0.2,0.1,0.3,0.1l6.3,1.3
	v10.9C48.3,51.3,45.5,51.3,42.6,51.3z M61,54.1c0,0.9-0.7,1.6-1.6,1.6h-0.6c0,0,0,0,0,0h-2.9c-0.9,0-1.6-0.7-1.6-1.6V41
	c0-0.9,0.7-1.6,1.6-1.6h3.6c0.9,0,1.6,0.7,1.6,1.6C61,41,61,54.1,61,54.1z"/>
</svg>
