<?xml version="1.0" encoding="utf-8"?>
<!-- Generator: Adobe Illustrator 26.3.1, SVG Export Plug-In . SVG Version: 6.00 Build 0)  -->
<svg version="1.1" id="Layer_1" xmlns="http://www.w3.org/2000/svg" xmlns:xlink="http://www.w3.org/1999/xlink" x="0px" y="0px"
	 viewBox="0 0 533.8 532" style="enable-background:new 0 0 533.8 532;" xml:space="preserve">
<style type="text/css">
	.st0{fill:#E9E7DC;}
</style>
<path class="st0" d="M520.4,425.5L413,318.1c-8.6-8.6-20.1-13.4-32.3-13.4s-23.6,4.8-32.3,13.4l-4.4,4.4l-15.1-15.1
	c62.9-73,59.7-183.6-9.5-252.9C284.3,19.4,237.6,0,187.9,0S91.4,19.4,56.3,54.5c-72.6,72.6-72.6,190.6,0,263.2
	c36.3,36.3,83.9,54.4,131.6,54.4c43.3,0,86.5-15,121.3-44.9l15.1,15.1l-4.4,4.4c-8.6,8.6-13.4,20.1-13.4,32.3s4.8,23.6,13.4,32.3
	l107.4,107.4c8.6,8.6,20.1,13.4,32.3,13.4s23.6-4.8,32.3-13.4l28.6-28.6c8.6-8.6,13.4-20.1,13.4-32.3S529,434.1,520.4,425.5
	L520.4,425.5L520.4,425.5z M299.7,297.9c-61.6,61.6-161.9,61.6-223.6,0c-61.6-61.6-61.6-161.9,0-223.6C105.9,44.4,145.6,28,187.9,28
	s81.9,16.4,111.8,46.3C361.3,135.9,361.3,236.2,299.7,297.9z M500.6,470.2L472,498.8c-6.7,6.7-18.3,6.7-24.9,0L339.7,391.5
	c-3.3-3.3-5.2-7.8-5.2-12.5s1.8-9.1,5.2-12.5l28.6-28.6c3.3-3.3,7.8-5.2,12.5-5.2s9.1,1.8,12.5,5.2l107.4,107.4
	c3.3,3.3,5.2,7.8,5.2,12.5S504,466.9,500.6,470.2L500.6,470.2L500.6,470.2z"/>
</svg>
