<?xml version="1.0" encoding="utf-8"?>
<!-- Generator: Adobe Illustrator 26.3.1, SVG Export Plug-In . SVG Version: 6.00 Build 0)  -->
<svg version="1.1" id="Layer_1" xmlns="http://www.w3.org/2000/svg" xmlns:xlink="http://www.w3.org/1999/xlink" x="0px" y="0px"
	 viewBox="0 0 128 128" style="enable-background:new 0 0 128 128;" xml:space="preserve">
<style type="text/css">
	.st0{fill:#A68764;}
</style>
<path class="st0" d="M96.1,107.6c-7.5,0.3-14.5-3.7-18-10.3c-5-9.4-1.3-21.1,8.1-26.1c4.8-2.5,10.5-2.9,15.6-1.1l-1.2,1.7
	c-0.3,0.4-0.2,1.1,0.2,1.4c0.1,0.1,0.3,0.2,0.5,0.2l8.4,0.9c0.5,0.1,1-0.3,1.1-0.9c0-0.2,0-0.4-0.1-0.5l-3.5-7.7
	c-0.2-0.5-0.8-0.7-1.3-0.5c-0.2,0.1-0.3,0.2-0.4,0.3l-1.3,1.8c-2.2-0.9-4.5-1.5-6.8-1.7V39.7c0-0.7-0.4-1.3-1-1.7L54.5,13.8
	c-0.6-0.4-1.4-0.4-2,0c0,0-41.9,24.3-41.9,24.3c-0.6,0.4-0.9,1-0.9,1.7v48.5c0,0.7,0.4,1.4,1,1.7c0,0,41.8,24.3,41.9,24.3
	c0.6,0.3,1.4,0.3,2,0l21.6-12.5c4.4,6.2,11.5,9.9,19.1,9.9c0.3,0,0.7,0,1,0c1.1,0,2-1,1.9-2.1C98.1,108.4,97.2,107.5,96.1,107.6
	L96.1,107.6z M84.3,67.6C73.2,73.5,68.8,87,74.1,98.3L55.5,109V61.6l37.8-18.7V65C90.2,65.3,87.1,66.2,84.3,67.6z M53.5,58.1
	l-13.6-6.7l35.7-20.8l15.5,9L53.5,58.1z M27.7,45.4l36.9-21.2l7,4l-36,21L27.7,45.4z M25.4,48.7l8.2,4v23.3l-8.2-3.7V48.7z
	 M53.5,17.8l7.1,4.1L23.3,43.3l-7.4-3.7L53.5,17.8z M13.6,87.1V42.9l7.8,3.8v26.9c0,0.8,0.5,1.5,1.2,1.8L34.8,81c1,0.5,2.2,0,2.6-1
	c0.1-0.3,0.2-0.5,0.2-0.8V54.8l13.9,6.8V109L13.6,87.1z M113,80.2c-0.5-1,0-2.2,1-2.6c1-0.5,2.2,0,2.6,1c0,0,0,0,0,0
	c0.8,1.8,1.4,3.7,1.7,5.7c0.2,1.1-0.6,2.1-1.6,2.3c0,0,0,0,0,0c-1.1,0.2-2.1-0.6-2.3-1.7C114.1,83.3,113.6,81.7,113,80.2L113,80.2z
	 M118.2,92.5c-0.4,2.2-1.2,4.4-2.2,6.4c-0.5,1-1.7,1.3-2.7,0.9c-1-0.5-1.4-1.7-0.9-2.7c0,0,0,0,0,0c0.9-1.7,1.5-3.4,1.8-5.3
	c0.2-1.1,1.3-1.8,2.3-1.6S118.4,91.4,118.2,92.5L118.2,92.5L118.2,92.5z M110.7,103c0.7,0.8,0.6,2.1-0.2,2.8c0,0,0,0,0,0
	c-1.2,1-2.5,2-4,2.7c-1,0.5-2.2,0.2-2.7-0.8c-0.5-1-0.2-2.2,0.8-2.7c0,0,0,0,0,0c1.2-0.6,2.3-1.4,3.3-2.3
	C108.7,102.1,110,102.2,110.7,103z M102.5,96.6c-0.7,0.9-1.9,1-2.8,0.4l-5.6-4.3c-0.5-0.4-0.8-1-0.8-1.6V77.8c0-1.1,0.9-2,2-2
	s2,0.9,2,2v12.3l4.8,3.7C103,94.5,103.2,95.7,102.5,96.6C102.5,96.6,102.5,96.6,102.5,96.6L102.5,96.6z"/>
</svg>
