<svg xmlns="http://www.w3.org/2000/svg" id="Layer_1" data-name="Layer 1" viewBox="0 0 128 128"><path d="M96.062,107.558A19.415,19.415,0,0,1,78.072,97.263a19.345,19.345,0,0,1,8.091-26.1A19.392,19.392,0,0,1,101.731,70.1l-1.2,1.666a.994.994,0,0,0,.7,1.571l8.407.86a.994.994,0,0,0,1.008-1.4l-3.457-7.712a.994.994,0,0,0-1.713-.175l-1.324,1.832a23.4,23.4,0,0,0-6.822-1.689V39.74a2.058,2.058,0,0,0-.975-1.716L54.494,13.751a2,2,0,0,0-2.006,0s-41.873,24.284-41.9,24.3a2.056,2.056,0,0,0-.939,1.689V88.26a2,2,0,0,0,1,1.73S52.475,114.241,52.5,114.253a2.105,2.105,0,0,0,2,0l21.631-12.542a23.476,23.476,0,0,0,19.083,9.869c.343,0,.687-.007,1.031-.022a2,2,0,1,0-.178-4ZM84.3,67.625A23.34,23.34,0,0,0,74.1,98.257L55.491,109.047V61.591L93.332,42.936V65.028A23.238,23.238,0,0,0,84.3,67.625ZM53.491,58.117,39.845,51.39,75.55,30.58l15.534,9ZM27.664,45.385l36.92-21.162,6.984,4.048-36.026,21Zm-2.247,3.352,8.2,4.042V76.071l-8.2-3.679ZM53.491,17.793,60.584,21.9,23.339,43.253,15.9,39.584ZM13.649,87.107V42.936l7.768,3.829V73.688A2,2,0,0,0,22.6,75.513l12.2,5.473a2,2,0,0,0,2.819-1.825V54.751l13.875,6.84v47.456Zm99.316-6.9a2,2,0,1,1,3.654-1.627,23.224,23.224,0,0,1,1.7,5.708,2,2,0,0,1-1.652,2.3,2.037,2.037,0,0,1-2.3-1.651A19.2,19.2,0,0,0,112.966,80.212Zm5.24,12.308a23.319,23.319,0,0,1-2.212,6.355,2.03,2.03,0,0,1-2.7.852,2,2,0,0,1-.85-2.7,19.351,19.351,0,0,0,1.832-5.268,2,2,0,0,1,3.928.758ZM110.683,103a2,2,0,0,1-.223,2.82,23.4,23.4,0,0,1-3.953,2.728,2.022,2.022,0,0,1-2.714-.795,2,2,0,0,1,.8-2.715,19.4,19.4,0,0,0,3.275-2.261A2,2,0,0,1,110.683,103Zm-8.15-6.387a2.018,2.018,0,0,1-2.805.362l-5.617-4.331a2,2,0,0,1-.779-1.584V77.813a2,2,0,0,1,4,0V90.078l4.838,3.73A2,2,0,0,1,102.533,96.614Z"/></svg>