<svg xmlns="http://www.w3.org/2000/svg" viewBox="0 0 64 64"><g id="truck_delivery-2" data-name="truck delivery"><path d="M59.68,32.72l-3.83-1.47c-3.56-15-2.61-10.88-4.05-17.25H41V8H2V51H6.09c1.1,6.64,10.72,6.63,11.82,0H42.09c1.1,6.64,10.72,6.63,11.82,0H62V35.64A3,3,0,0,0,59.68,32.72Zm-6-1.72H49V20h2.11ZM11,28.5l3,3H12v7.19H10V31.5H8Zm7,8.12,1,.5,2-1,2,1,1-.5V41H18ZM36,12v2H29V12Zm-7,4h7v2H29Zm-5-6v4.38l-1-.5-2,1-2-1-1,.5V10ZM10,50a2,2,0,1,1,2,2A2,2,0,0,1,10,50Zm36,0a2,2,0,1,1,2,2A2,2,0,0,1,46,50Zm14-1H53.92a6.33,6.33,0,0,0-.56-1.68C53.15,46.86,52.09,47,60,47Zm-8.68-4A6,6,0,0,0,48,44a6,6,0,0,0-5.89,4.86c0,.21,1.85.14-24.19.14-1.15-6.62-10.7-6.6-11.84,0H4V43H41V16h9.2l.47,2H47V33c11.53,0,5.82-.33,12.19,1.66a1,1,0,0,1,.81,1V45Z"/><path d="M57,36H55a1,1,0,0,0,0,2h2A1,1,0,0,0,57,36Z"/></g></svg>