<svg xmlns="http://www.w3.org/2000/svg" xml:space="preserve" x="0" y="0" enable-background="new 0 0 64 64" viewBox="0 0 64 64"><g id="watering_can"><path d="M62.9619,32.603l-3.5713-12.5107c-0.0352-0.146-0.1299-0.5352-0.5361-0.77c-0.1846-0.1069-0.4893-0.21-0.9004-0.0894 c-2.6493,0.808-4.5691,2.9249-5.2786,5.4316l-8.0817,1.7437l-0.4545-5.3915c1.3507-0.412,2.3334-1.5621,2.3334-2.9287v-0.8022 c0-1.7104-1.5283-3.1016-3.4063-3.1016h-6.6782c-0.2348-3.6848-3.3005-6.6128-7.0455-6.6128c-3.743,0-6.8069,2.928-7.0416,6.6128 h-6.6811c-1.8779,0-3.4063,1.3911-3.4063,3.1016v0.8022c0,1.3666,0.9827,2.5167,2.3334,2.9287l-0.2303,2.7325 c-4.6179-2.0839-7.8047-0.9864-9.3599-0.0729C2.5166,25.1104,1,27.7627,1,30.5977c0,6.4854,4.9379,13.7623,11.3218,16.8193 l-0.2036,2.4151c-0.1494,1.7715,0.4434,3.5264,1.626,4.8135c1.042,1.1328,2.4443,1.7832,3.8477,1.7832h23.5029 c1.4033,0,2.8057-0.6504,3.8477-1.7832c1.1826-1.2871,1.7754-3.042,1.626-4.8135l-0.6528-7.7434l9.9651-8.7507 c1.2694,0.8489,2.7688,1.3428,4.3468,1.3428c0.6328,0,1.2773-0.0762,1.9199-0.2354c0.5068-0.126,0.8271-0.6172,0.748-1.123 C63.0029,33.1064,63.0332,32.8525,62.9619,32.603z M29.3428,9.5713c2.6401,0,4.7899,2.0345,5.0226,4.6128H24.324 C24.5566,11.6058,26.7045,9.5713,29.3428,9.5713z M14.2139,18.0879v-0.8022c0-0.5972,0.6436-1.1016,1.4063-1.1016h27.4463 c0.7627,0,1.4063,0.5044,1.4063,1.1016v0.8022c0,0.5972-0.6436,1.1016-1.4063,1.1016H15.6201 C14.8574,19.1895,14.2139,18.6851,14.2139,18.0879z M12.9342,40.1512c-2.9909-2.1384-5.3854-5.9446-5.3854-8.7411 c0-0.7231,0.165-1.6797,0.9512-2.1279c0.9434-0.5391,2.5215-0.2578,4.2236,0.748c0.3292,0.1938,0.6669,0.4286,1.0063,0.6813 L12.9342,40.1512z M3,30.5977c0-2.0967,1.166-4.1367,2.9707-5.1973c2.1722-1.2766,5.0546-1.0882,8.1658,0.4887l-0.2138,2.5364 c-0.0609-0.0374-0.1229-0.0822-0.1834-0.1179c-2.3623-1.397-4.6338-1.6738-6.2305-0.7627c-1.2637,0.7212-1.96,2.0938-1.96,3.8652 c0,3.7704,3.122,8.5714,7.1946,11.0042l-0.2413,2.8627C7.1717,42.379,3,36.0443,3,30.5977z M43.4697,53.292 c-0.6641,0.7227-1.5303,1.1367-2.375,1.1367H17.5918c-0.8447,0-1.7109-0.4141-2.375-1.1367 c-0.8057-0.876-1.209-2.0762-1.1064-3.292l2.4287-28.8105h25.6084L44.5762,50C44.6787,51.2158,44.2754,52.416,43.4697,53.292z M44.7632,28.4177l7.6116-1.6422c-0.0028,0.7202,0.0884,1.4506,0.2951,2.1737c0.3365,1.1783,0.9338,2.2026,1.6912,3.0609 l-8.6544,7.6005L44.7632,28.4177z M54.5938,28.3999c-0.7949-2.7798,0.582-5.7119,3.1094-6.9292l3.1904,11.1724 C58.0664,32.9629,55.3955,31.2119,54.5938,28.3999z"/><path d="M30.3164,28.6567c-0.1504-0.3828-0.5586-0.665-0.9697-0.6655c-0.001,0-0.001,0-0.002,0 c-0.4102,0-0.8223,0.2808-0.9736,0.6631c-0.0049,0.0142-0.0107,0.0283-0.0156,0.0425c-0.5674,1.6582-1.6221,3.356-2.6406,4.9976 c-1.3857,2.2324-2.6953,4.3408-2.6953,6.2559c0,3.4873,2.8369,6.3242,6.3232,6.3242c3.4873,0,6.3242-2.8369,6.3242-6.3242 c0-1.915-1.3096-4.0234-2.6953-6.2559C31.9531,32.0527,30.8984,30.355,30.3164,28.6567z M29.3428,44.2744 c-2.3838,0-4.3232-1.9395-4.3232-4.3242c0-1.3447,1.1631-3.2178,2.3945-5.2012c0.6699-1.0791,1.3535-2.1802,1.9297-3.3091 c0.5752,1.1289,1.2588,2.23,1.9287,3.3091c1.2314,1.9834,2.3945,3.8564,2.3945,5.2012 C33.667,42.335,31.7275,44.2744,29.3428,44.2744z"/></g></svg>