<?xml version="1.0" encoding="UTF-8" standalone="no"?>
<!-- Created with Inkscape (http://www.inkscape.org/) -->
<svg
   xmlns:dc="http://purl.org/dc/elements/1.1/"
   xmlns:cc="http://creativecommons.org/ns#"
   xmlns:rdf="http://www.w3.org/1999/02/22-rdf-syntax-ns#"
   xmlns:svg="http://www.w3.org/2000/svg"
   xmlns="http://www.w3.org/2000/svg"
   xmlns:sodipodi="http://sodipodi.sourceforge.net/DTD/sodipodi-0.dtd"
   xmlns:inkscape="http://www.inkscape.org/namespaces/inkscape"
   width="800"
   height="390.42044"
   id="svg2420"
   sodipodi:version="0.32"
   inkscape:version="0.46"
   version="1.0"
   sodipodi:docname="Sergei Loznitsa.svg"
   inkscape:output_extension="org.inkscape.output.svg.inkscape">
  <defs
     id="defs2422">
    <inkscape:perspective
       sodipodi:type="inkscape:persp3d"
       inkscape:vp_x="0 : 526.18109 : 1"
       inkscape:vp_y="0 : 1000 : 0"
       inkscape:vp_z="744.09448 : 526.18109 : 1"
       inkscape:persp3d-origin="372.04724 : 350.78739 : 1"
       id="perspective2428" />
    <inkscape:perspective
       id="perspective2437"
       inkscape:persp3d-origin="372.04724 : 350.78739 : 1"
       inkscape:vp_z="744.09448 : 526.18109 : 1"
       inkscape:vp_y="0 : 1000 : 0"
       inkscape:vp_x="0 : 526.18109 : 1"
       sodipodi:type="inkscape:persp3d" />
    <inkscape:perspective
       id="perspective2452"
       inkscape:persp3d-origin="372.04724 : 350.78739 : 1"
       inkscape:vp_z="744.09448 : 526.18109 : 1"
       inkscape:vp_y="0 : 1000 : 0"
       inkscape:vp_x="0 : 526.18109 : 1"
       sodipodi:type="inkscape:persp3d" />
    <inkscape:perspective
       id="perspective2500"
       inkscape:persp3d-origin="372.04724 : 350.78739 : 1"
       inkscape:vp_z="744.09448 : 526.18109 : 1"
       inkscape:vp_y="0 : 1000 : 0"
       inkscape:vp_x="0 : 526.18109 : 1"
       sodipodi:type="inkscape:persp3d" />
    <inkscape:perspective
       id="perspective2535"
       inkscape:persp3d-origin="372.04724 : 350.78739 : 1"
       inkscape:vp_z="744.09448 : 526.18109 : 1"
       inkscape:vp_y="0 : 1000 : 0"
       inkscape:vp_x="0 : 526.18109 : 1"
       sodipodi:type="inkscape:persp3d" />
    <inkscape:perspective
       id="perspective2588"
       inkscape:persp3d-origin="372.04724 : 350.78739 : 1"
       inkscape:vp_z="744.09448 : 526.18109 : 1"
       inkscape:vp_y="0 : 1000 : 0"
       inkscape:vp_x="0 : 526.18109 : 1"
       sodipodi:type="inkscape:persp3d" />
    <inkscape:perspective
       id="perspective2629"
       inkscape:persp3d-origin="372.04724 : 350.78739 : 1"
       inkscape:vp_z="744.09448 : 526.18109 : 1"
       inkscape:vp_y="0 : 1000 : 0"
       inkscape:vp_x="0 : 526.18109 : 1"
       sodipodi:type="inkscape:persp3d" />
    <inkscape:perspective
       id="perspective2666"
       inkscape:persp3d-origin="372.04724 : 350.78739 : 1"
       inkscape:vp_z="744.09448 : 526.18109 : 1"
       inkscape:vp_y="0 : 1000 : 0"
       inkscape:vp_x="0 : 526.18109 : 1"
       sodipodi:type="inkscape:persp3d" />
  </defs>
  <sodipodi:namedview
     id="base"
     pagecolor="#ffffff"
     bordercolor="#666666"
     borderopacity="1.0"
     inkscape:pageopacity="0.0"
     inkscape:pageshadow="2"
     inkscape:zoom="0.66"
     inkscape:cx="398.92007"
     inkscape:cy="204.82802"
     inkscape:document-units="px"
     inkscape:current-layer="layer1"
     showgrid="false"
     inkscape:window-width="1280"
     inkscape:window-height="750"
     inkscape:window-x="-8"
     inkscape:window-y="-8" />
  <metadata
     id="metadata2425">
    <rdf:RDF>
      <cc:Work
         rdf:about="">
        <dc:format>image/svg+xml</dc:format>
        <dc:type
           rdf:resource="http://purl.org/dc/dcmitype/StillImage" />
      </cc:Work>
    </rdf:RDF>
  </metadata>
  <g
     inkscape:label="Calque 1"
     inkscape:groupmode="layer"
     id="layer1"
     transform="translate(273.63103,-274.58782)">
    <path
       style="fill:#A68760"
       d="M 194.73646,274.59657 C 185.27549,274.45001 176.19215,276.15601 167.13397,278.776 C 160.45438,280.28432 154.02988,281.97045 147.79404,284.64136 C 137.77082,287.69605 128.36416,292.66662 119.12035,297.40746 C 117.37065,299.23625 114.23866,299.16886 112.15703,300.80908 C 108.61689,302.72178 105.67646,305.3974 101.93215,306.97203 C 96.713149,310.11303 92.027769,314.3277 87.125076,317.69715 C 76.976461,325.4114 68.590671,335.56321 59.451863,344.48994 C 55.210882,349.58088 50.192998,354.24361 46.485672,359.59715 C 44.884242,361.92011 43.311485,364.26679 41.103102,365.96019 C 38.438598,371.57763 33.998244,376.12292 30.858211,381.38756 C 27.834962,385.58871 25.441884,390.45569 22.488627,394.885 C 17.732283,402.30407 13.783242,410.31146 9.0678066,417.72491 C 8.0892081,419.61766 5.927536,419.71185 4.5256378,420.82639 C 2.8566617,422.98217 4.7195864,425.96442 3.0049117,428.22992 C 0.59092073,433.44868 -5.2885713,435.16108 -9.6411263,438.13465 C -14.045591,442.10202 -20.369148,443.35068 -25.421096,446.42482 C -30.120133,448.70137 -34.558496,451.72615 -39.455362,453.34191 C -43.813232,456.88084 -49.47357,458.10388 -54.002307,461.46579 C -55.940984,463.08595 -58.087148,465.05698 -60.765536,464.90743 C -63.733601,465.78796 -65.454477,468.85411 -68.609282,469.18948 C -78.724495,474.35766 -89.298711,478.92633 -98.74367,485.25715 C -101.7641,486.30578 -104.76707,487.39109 -107.45345,489.21849 C -111.5819,491.33495 -116.23441,493.11829 -119.37352,496.4625 C -122.97913,498.11748 -126.87585,499.26682 -130.53885,500.80457 C -132.96988,502.66218 -135.98599,504.0402 -138.56268,505.80696 C -140.33178,508.44354 -143.97405,507.43797 -146.16631,509.50873 C -150.93351,511.89161 -155.74175,514.23807 -160.39311,516.79221 C -162.9624,517.33167 -165.16526,522.21083 -167.97673,519.85367 C -169.21589,515.87287 -163.90978,513.9274 -161.84038,511.56211 C -154.58623,505.76671 -148.26752,499.06929 -140.44358,494.04135 C -137.61883,490.41146 -132.89155,489.24227 -129.81851,486.01751 C -128.893,483.66956 -126.87491,481.97383 -124.29587,482.13566 C -121.81556,481.81961 -120.47153,479.82981 -118.61316,478.63399 C -115.61931,478.40633 -113.37682,476.0446 -110.88947,474.49201 C -109.98093,473.92771 -108.63805,471.38147 -110.76941,472.11087 C -115.71127,473.7154 -119.14426,477.91405 -123.79563,479.87458 C -126.94003,483.0468 -131.24443,484.27059 -134.52075,487.27812 C -142.74948,491.56282 -149.41063,498.38111 -157.22711,503.47836 C -165.33423,509.36502 -172.95264,515.7621 -180.34263,522.41489 C -188.47592,528.98287 -196.05438,536.43898 -205.80604,540.54245 C -213.00677,544.53063 -221.02285,547.11906 -227.84531,551.86896 C -242.43103,559.59332 -257.51272,566.7516 -273.28701,571.89852 C -274.66351,573.72513 -271.56008,574.87943 -270.1255,574.19962 C -266.09153,573.51407 -262.12446,571.73973 -258.37989,570.25774 C -255.29725,566.59484 -250.18929,565.67964 -246.27411,563.19436 C -238.34401,561.15966 -232.4044,554.40083 -224.30794,552.51525 C -220.81762,551.64069 -217.91005,548.49034 -214.29884,548.44732 C -211.2506,549.94942 -214.27456,553.57969 -216.15973,554.65028 C -220.52653,558.82739 -223.50186,564.49195 -228.46561,568.03668 C -232.59412,574.38828 -238.94382,579.2041 -242.8925,585.82517 C -247.84502,593.15084 -254.15823,599.60338 -257.25936,608.01576 C -260.15611,612.69835 -260.51541,618.4842 -263.4223,623.04294 C -265.35252,629.41259 -266.22111,636.70601 -264.0626,643.09251 C -262.68152,645.86832 -262.14601,648.82931 -259.36036,650.71615 C -252.00548,657.51993 -242.80951,662.13091 -232.80768,663.20211 C -215.51899,666.5582 -197.69068,664.83074 -180.56274,661.34123 C -171.24588,660.33214 -162.46576,656.77081 -153.20968,655.13826 C -148.95449,653.74228 -144.75336,651.72406 -140.42357,650.97628 C -132.98541,647.60611 -124.83917,646.01037 -117.47506,642.423 C -108.45905,639.40415 -99.711527,635.45598 -90.719839,632.36739 C -86.787097,632.47017 -83.707333,636.35189 -79.498395,635.97979 C -73.654101,636.602 -67.125441,636.2182 -62.826521,631.82713 C -56.887648,629.21281 -52.800283,623.5395 -47.99463,619.37074 C -42.083099,613.91452 -36.962857,606.52102 -29.050394,603.93382 C -22.858484,600.88223 -16.891936,596.75108 -10.141365,594.8895 C -0.60770597,589.64599 9.2070923,584.29878 18.912507,579.182 C 21.432962,578.64443 23.32431,576.51722 25.875832,576.06051 C 31.710253,571.78803 38.724616,569.11873 44.935006,565.33428 C 55.095588,560.19631 64.826,554.25101 74.799191,548.8275 C 83.779127,543.76481 92.762053,538.68033 101.95216,533.80033 C 106.68623,530.44399 112.48175,529.39898 116.97933,525.65644 C 123.12041,521.92115 129.39855,518.83615 135.28807,514.79125 C 140.11057,512.64032 144.3881,509.41018 149.27475,507.48777 C 151.82805,505.45867 157.0805,503.60215 158.57919,507.78791 C 159.33197,512.05539 160.89047,516.17184 160.78024,520.63404 C 161.5832,528.20813 158.33839,536.77085 163.6216,543.26485 C 167.0181,547.91864 173.749,546.16977 178.38865,544.78557 C 179.37821,543.02875 181.75357,543.06457 182.91081,541.2839 C 189.61516,537.15962 194.79873,530.95728 201.41965,526.53686 C 205.461,522.96522 211.96279,518.76224 217.06712,522.87511 C 221.17291,526.77731 223.50083,532.33112 225.27104,537.62215 C 225.62002,542.4185 225.43707,549.02468 230.91373,550.98854 C 238.87842,553.00053 245.27922,545.97228 250.45337,541.00392 C 261.29151,530.90088 269.20759,518.08203 275.43499,504.64641 C 278.43846,498.7697 281.01487,492.78058 284.15915,487.05801 C 285.64704,481.93436 283.8634,476.39175 280.01718,472.7912 C 276.16496,468.55322 271.28576,465.46143 266.37066,462.88647 C 263.06956,460.31214 258.71761,458.49791 255.15937,455.96918 C 252.61067,455.22679 250.03345,452.31196 252.26392,449.86025 C 255.96677,445.31837 262.0699,444.09704 266.55075,440.71588 C 270.08104,438.64223 273.95654,437.6013 276.99573,434.83308 C 280.34466,433.30162 283.25343,431.12482 286.30018,429.15036 C 288.34639,428.55794 289.94764,427.70385 291.54268,426.36903 C 297.90219,423.15428 303.82671,419.20073 310.0115,415.78398 C 312.47198,413.65697 315.27603,412.20664 318.33547,411.32185 C 322.12753,408.61181 326.5437,406.80885 330.38122,404.33852 C 331.49718,402.64308 333.74204,402.67269 335.18352,401.19702 C 345.38227,395.88865 355.48024,390.45779 365.71809,385.28942 C 369.96093,382.08773 374.7562,379.93766 379.46466,377.62576 C 383.46184,375.7568 387.06384,372.73379 391.45038,371.68292 C 405.77157,363.78422 420.74471,357.01236 435.71151,350.51282 C 439.28562,349.39863 442.76832,348.3581 446.01643,346.59094 C 448.52618,346.23671 450.55754,344.30893 453.15985,344.28984 C 464.47298,339.3338 476.91258,337.50618 488.91692,334.82533 C 498.52257,333.73154 509.43174,331.217 518.27093,336.36606 C 522.57284,341.05638 519.87822,348.00355 517.53058,352.93397 C 514.54656,359.58132 509.38567,365.21953 504.56439,370.56239 C 501.10635,373.60597 497.96485,377.09362 495.21993,380.74725 C 480.03606,393.89476 465.32568,407.9152 449.75822,420.6463 C 446.203,424.07712 442.31893,427.28068 438.21271,429.79067 C 427.77363,438.99236 416.17106,446.94998 405.59714,456.10323 C 403.99423,457.36016 402.11777,457.92218 401.15501,459.76498 C 393.4196,465.54394 386.62182,472.54227 379.18181,478.67616 C 373.03604,484.64312 367.06672,490.89224 360.94455,496.9531 C 352.03902,506.70337 348.83172,522.28448 356.01346,533.80033 C 362.23541,542.92914 371.23647,549.58568 379.7314,556.6223 C 384.86454,561.03531 392.78272,564.33595 393.81151,571.77846 C 393.93248,575.33861 389.78292,576.13339 387.00826,575.66032 C 376.6666,577.18601 365.91424,577.24247 355.65329,579.88233 C 347.23823,580.71632 339.02344,582.95555 330.74139,584.44451 C 322.83681,586.24161 314.85207,588.04766 307.13012,590.12722 C 299.74484,591.01941 293.24925,594.94305 285.98002,596.47025 C 268.24423,600.30867 250.95093,606.96299 234.94427,615.42422 C 228.5107,619.61287 221.07299,624.34478 218.44778,631.94719 C 218.33581,634.55081 219.22533,638.0079 222.32963,638.2502 C 234.37565,641.09558 246.97363,639.01481 258.62696,635.56892 C 268.96328,633.74265 278.98822,630.6857 288.84139,627.50507 C 296.40231,626.06648 303.26474,622.66496 310.6963,620.83163 C 315.8395,619.18039 321.01073,617.39492 325.9391,615.07914 C 328.74911,614.26002 331.77792,613.75628 333.9029,611.71753 C 337.57942,611.16882 340.84277,608.88099 344.54799,608.05578 C 349.13198,605.31991 354.35009,603.75088 358.99488,600.93238 C 367.21882,597.33643 375.49412,593.55551 383.18644,588.88663 C 385.19004,586.89708 388.26598,586.37736 390.28983,584.32445 C 391.37574,583.05574 392.57286,582.25211 394.09164,581.72321 C 396.29289,579.68277 399.44961,580.04913 402.01543,578.88185 C 417.42617,577.64753 432.94142,579.56836 448.28542,581.03806 C 454.07591,582.17068 460.62753,581.88424 465.82589,584.8447 C 470.41975,587.37671 475.47866,590.46002 476.79113,595.97001 C 479.32758,603.60751 475.47442,612.10165 468.86735,616.29972 C 465.06875,619.98567 461.01969,623.38642 456.60149,626.28449 C 454.28279,628.74142 451.20374,630.86946 449.25798,633.52795 C 448.98936,636.28575 452.39219,633.67059 453.74012,633.26782 C 457.41357,631.3916 460.60667,628.46217 464.44523,627.16491 C 469.71859,622.03746 475.30659,616.91077 479.40682,610.69138 C 484.62075,602.81548 484.42528,590.77533 476.17083,584.94475 C 471.73981,582.09393 466.77146,579.80193 461.88401,578.18152 C 456.23053,576.86742 450.50044,575.85 444.59576,575.76036 C 430.1243,573.62352 415.18561,575.21659 400.63477,573.75941 C 398.19862,572.68108 399.19331,569.12433 397.45325,567.35635 C 390.49425,556.73804 378.61232,550.79911 369.43987,542.42445 C 365.00652,539.80047 361.8545,535.19756 359.00978,530.98771 C 353.34106,522.042 356.04401,510.38608 362.40376,502.59589 C 369.16943,493.45141 377.1237,485.44584 386.24568,478.69899 C 396.63613,469.81266 406.81759,460.63223 417.42278,451.94124 C 420.98561,448.6421 425.19828,445.96405 428.52808,442.65681 C 432.4379,440.25438 435.90609,436.49992 439.81019,433.79148 C 447.99937,428.06446 455.26776,421.10938 462.86448,414.66345 C 466.36976,412.60669 468.92949,408.69806 472.68917,407.03981 C 482.34449,397.10285 493.65791,389.02489 502.43157,378.16547 C 510.89601,368.94575 520.65105,359.68943 524.29381,347.37132 C 524.05509,344.8388 527.31476,343.66047 526.09467,341.14834 C 523.79916,335.11988 518.30022,329.18733 511.34763,329.7429 C 498.73446,328.602 486.1732,330.9806 474.0098,334.02494 C 464.35646,336.16848 455.05493,339.61721 445.9364,343.28937 C 441.55488,344.47733 437.63966,346.70359 433.19031,347.81153 C 426.38052,350.53274 419.77051,353.87858 413.08071,356.71578 C 411.87038,358.71895 408.8793,357.78029 407.25793,359.41707 C 396.72846,364.13031 385.91058,368.70199 376.18309,374.76439 C 371.84745,376.73718 368.41409,380.15366 363.85721,381.54763 C 358.21703,384.68564 352.68192,388.07325 347.02917,391.13221 C 343.03793,393.45934 338.78025,394.98078 334.94044,397.72488 C 329.18059,400.60591 323.87533,404.35949 318.07535,407.03981 C 313.65384,409.77809 309.05238,412.21343 304.90906,415.36378 C 295.79551,419.85888 287.38013,425.73881 278.29635,430.23088 C 274.54455,432.13503 271.03052,434.5377 267.35113,436.41383 C 261.99547,438.00671 258.22948,442.65914 252.88422,444.25758 C 248.47157,447.00097 242.77243,450.60069 237.58539,447.53481 C 230.99089,444.61357 224.52518,441.29855 217.76745,439.05509 C 211.42519,435.12786 203.81874,433.92116 196.95752,431.13131 C 192.73347,430.21349 188.87332,428.52045 184.65164,427.58962 C 176.87515,424.90561 169.05344,422.03977 160.98034,420.54625 C 160.12135,420.47388 155.396,419.77804 157.73879,421.28661 C 162.35296,423.26715 167.0558,424.5744 171.94558,425.70872 C 176.45408,427.8882 181.50844,429.03937 185.99228,431.03126 C 190.68815,432.07967 195.15818,434.33797 199.81739,435.70293 C 208.05865,439.12606 216.2714,442.41999 224.43063,445.75829 C 225.83424,446.15793 226.30582,447.49984 227.99234,447.33905 C 230.89761,448.25377 235.85124,450.9177 233.81512,454.60251 C 230.30813,458.3431 224.70305,459.40303 221.02901,462.96651 C 213.55281,467.1736 205.92225,471.20943 198.5983,475.7326 C 193.04296,477.309 188.74282,481.69665 183.38584,483.89676 C 177.74669,486.87689 171.91829,489.82592 166.80312,493.60114 C 162.65425,495.59525 158.36622,499.34957 153.49677,497.26288 C 145.55738,495.646 137.46075,498.73682 130.18564,501.64498 C 125.82087,503.5826 122.18787,506.86681 117.81973,508.62831 C 107.80582,514.29643 99.215393,521.95526 89.017186,527.34653 C 85.128705,529.62708 81.568727,532.53115 77.140309,533.50019 C 72.05155,535.42991 66.151689,539.79577 60.632427,537.0819 C 57.247624,534.12147 61.277612,529.5942 62.813468,526.75697 C 66.930929,520.1251 71.488721,513.72383 75.359459,507.02755 C 78.255241,503.26029 79.058588,498.31154 81.422353,494.28146 C 82.999081,489.17715 85.932328,483.64122 83.723452,478.21379 C 81.92281,476.00267 78.378295,478.26786 76.19986,478.85409 C 67.184413,482.64123 60.15239,489.72275 52.368481,495.34197 C 46.020977,502.50306 38.668897,509.03107 33.419434,517.03232 C 30.229936,522.40861 25.152101,526.44731 21.415142,531.54 C 15.538794,538.96522 9.8573163,546.46591 3.9053417,553.86991 C -0.5256572,560.22827 -5.3110204,566.23099 -10.141365,572.15864 C -19.800524,582.54341 -28.121105,594.42085 -38.827876,603.82209 C -43.87131,608.43196 -50.94108,609.22735 -56.697001,612.69302 C -62.025428,615.43782 -67.499873,617.77404 -73.00263,619.89 C -75.128321,620.85338 -79.514563,624.22503 -81.135262,620.72183 C -81.854677,615.73023 -78.580174,611.05995 -77.413485,606.33496 C -76.029512,601.64611 -72.737047,598.00576 -71.590705,593.30874 C -63.76729,576.00185 -56.847065,558.39838 -48.330831,541.39428 C -46.011978,534.80002 -41.765574,528.96434 -39.99562,522.23481 C -37.564263,518.63192 -37.964599,513.89317 -34.624287,510.82097 C -30.574404,506.2932 -30.158398,499.98635 -27.294887,494.77455 C -23.50144,485.88824 -19.473392,477.10646 -14.568445,468.78134 C -12.324494,463.94685 -9.5876352,459.31179 -7.2199703,454.62252 C -6.3286711,450.26013 -2.3728176,447.32048 -1.5772761,442.97696 C 2.8029529,434.46512 11.686375,429.91772 19.572822,425.18847 C 24.352442,422.13524 29.926777,419.79907 35.100236,417.90499 C 39.691664,413.48503 46.575661,413.80017 52.288443,412.12223 C 54.118488,410.4684 53.010567,406.33445 56.150287,405.7792 C 61.307719,402.20354 67.103465,399.92218 72.13792,396.19463 C 77.873971,392.81488 83.921672,389.70468 89.686299,386.20986 C 92.934282,385.18087 95.205722,382.49248 98.15034,381.08741 C 105.342,378.64879 111.05062,373.16398 117.21945,368.98163 C 122.07345,366.71021 126.00028,362.53623 131.28616,361.05785 C 134.28906,358.85327 136.91174,355.94889 140.55059,354.95494 C 143.70631,351.93241 147.64881,350.16531 151.37575,347.95159 C 156.07545,343.79756 161.98627,341.42896 166.24285,336.72623 C 172.72065,330.75728 180.59358,326.65826 186.77366,320.36018 C 188.78355,318.71979 191.1613,317.54495 192.99563,315.85627 C 199.84471,310.43931 205.76568,303.52906 211.5845,296.92723 C 212.14208,295.47165 212.88987,294.28367 214.16573,293.44557 C 217.50082,289.1189 219.75156,281.81756 214.48589,278.05822 C 208.85298,274.01003 201.27972,274.7603 194.73646,274.59657 z M 219.68837,636.96959 C 219.62201,636.99041 219.71586,637.00651 219.68837,636.96959 z M 197.31769,275.85717 C 204.04196,275.69826 212.99814,278.59201 214.02567,286.20211 C 214.2672,292.50118 208.1298,296.39946 204.70539,300.9426 C 196.28517,309.66316 187.6117,318.16588 177.34815,324.74051 C 167.39845,333.2555 156.51234,340.65047 145.98887,348.43884 C 138.34232,353.91467 130.12726,358.26127 122.27622,363.44394 C 112.92326,368.2592 104.46327,374.75616 95.308984,380.04692 C 91.439443,382.164 88.704109,386.31618 84.28372,387.29038 C 74.463364,392.76166 64.654398,398.36856 54.829656,403.91831 C 48.432131,407.90052 41.671675,411.73131 34.47994,414.06316 C 30.75669,414.6794 26.273097,415.68022 23.314609,417.32472 C 25.845353,419.6651 21.85637,422.22799 19.953004,423.30757 C 16.721643,424.80947 13.475556,426.37538 10.348418,427.82973 C 7.4475834,427.67336 7.9900119,424.10233 9.588055,422.62725 C 10.825638,420.71465 12.945338,419.11319 14.430367,417.76493 C 13.898023,412.7435 16.819399,407.93806 20.013033,404.35852 C 21.034756,400.85933 24.153602,398.25705 25.609433,394.86789 C 29.853225,388.61613 33.299082,382.09437 37.80652,376.02594 C 39.622626,373.25019 40.821387,370.0662 43.284144,367.8611 C 44.229914,365.67905 46.320243,364.16714 47.626217,362.47853 C 50.387695,357.95392 54.305233,354.24993 57.590975,350.0526 C 71.28317,335.80729 84.760517,320.90729 101.13176,309.67332 C 110.57234,304.15334 119.76815,298.0225 129.95461,293.89562 C 138.48996,290.95993 146.46162,286.60964 155.35765,284.74141 C 157.58051,284.45752 159.27625,282.86596 161.54061,282.88052 C 163.38418,281.25556 166.36338,282.42738 168.52483,281.28454 C 177.58516,278.74173 186.93182,277.37061 196.17714,275.89719 C 196.55755,275.89649 196.93726,275.85646 197.31769,275.85717 z M 61.152675,410.74157 C 58.998047,411.13724 63.489766,411.15451 61.452819,410.72156 L 61.152675,410.74157 z M 142.93172,416.4643 C 140.38646,416.51383 143.80672,418.25972 144.63253,418.48527 C 145.8447,418.87874 148.60753,420.47154 148.65445,418.10509 C 147.43849,416.37884 144.81446,416.41149 142.93172,416.4643 z M -3.7383079,423.02744 C -7.5479989,423.69432 -11.700682,425.01943 -14.743563,427.16942 C -11.264026,426.38212 -7.1239244,426.02772 -4.2185372,423.96789 C -4.1954414,423.47303 -2.4441156,422.77584 -3.7383079,423.02744 z M -25.728808,430.79115 C -29.15703,432.21554 -33.240689,432.01475 -36.113766,434.83308 C -32.066157,435.26123 -28.821907,432.09436 -25.388645,430.81116 C -25.49945,430.86469 -25.656786,430.63337 -25.728808,430.79115 z M -42.856986,436.87405 C -46.308994,437.34508 -50.920783,438.48743 -52.501591,441.75638 C -48.217443,441.60314 -44.559063,438.24515 -40.375801,437.93456 C -40.156294,436.69358 -42.144763,436.86811 -42.856986,436.87405 z M -7.9403142,440.63585 C -4.5011105,440.75992 -5.7052375,445.22535 -6.7597506,447.15896 C -8.5434566,450.78387 -11.221049,453.85931 -12.282387,457.72401 C -19.498447,469.99596 -24.994236,483.28272 -31.651636,495.8222 C -34.35322,499.42084 -35.286846,503.84147 -36.894139,507.92798 C -37.447533,512.52811 -41.489646,515.74337 -42.396766,520.29388 C -43.572346,523.31929 -46.013927,525.55026 -46.638791,528.77793 C -51.092978,539.64362 -57.215887,549.85288 -61.105699,560.91327 C -64.19904,567.11604 -67.010628,573.55142 -70.270075,579.6022 C -70.765802,583.75474 -74.177631,586.7932 -75.318122,590.77462 C -78.877021,598.48839 -82.157071,606.50866 -84.877049,614.49886 C -87.420402,618.57398 -86.565074,625.11859 -91.500211,627.62513 C -96.946084,630.40813 -102.776,632.37233 -108.30824,635.02866 C -120.50298,638.92159 -132.031,645.20644 -144.50552,648.05488 C -161.52832,653.6385 -179.19129,657.69491 -196.9278,660.32001 C -204.44648,660.60832 -212.28095,661.61464 -219.6614,659.98058 C -222.42445,659.59544 -225.44767,659.97398 -228.24689,659.04265 C -238.12253,658.11938 -247.28896,653.21478 -254.67812,646.81429 C -256.40888,645.3974 -256.4917,643.18394 -257.65955,641.49175 C -257.44206,639.26268 -259.27136,637.79261 -258.78008,635.5289 C -258.76051,629.86447 -257.47725,624.41126 -255.63571,619.16216 C -253.35259,610.74197 -248.30553,603.52808 -244.31317,595.88997 C -242.27426,593.91274 -241.19896,591.22719 -239.19092,589.04695 C -237.69508,587.58647 -237.40056,585.28409 -235.54899,584.36447 C -231.65149,578.00766 -226.15804,572.56008 -221.45369,566.72073 C -216.79287,562.11978 -212.56474,556.9714 -207.99583,552.30917 C -201.09952,547.14639 -195.53511,540.16475 -188.41564,535.13542 C -186.61831,533.4133 -184.1466,532.73942 -182.08346,531.73934 C -180.79552,530.0733 -178.16758,530.81082 -177.60132,528.43777 C -175.73009,526.27072 -172.19293,526.88265 -170.65801,524.33581 C -165.34925,522.60701 -160.74343,518.63008 -155.21063,517.25243 C -148.03285,514.2714 -141.59939,509.81798 -134.86091,506.12712 C -130.33679,504.83203 -126.47138,501.87634 -122.27491,499.76408 C -120.74646,498.2972 -119.17359,496.70622 -116.85232,496.80266 C -109.74253,493.85877 -103.15466,489.6884 -96.562628,485.83743 C -89.994179,483.60106 -84.179166,480.08977 -78.351704,476.44717 C -69.406105,471.41556 -59.714068,467.52032 -50.580674,462.9465 C -48.538061,460.83851 -45.407275,460.3296 -43.077091,458.9646 C -40.658853,457.06774 -37.469896,456.22463 -35.03325,454.24234 C -32.439429,453.08622 -29.915472,452.11214 -27.569687,450.6006 C -24.655284,450.00287 -22.641785,447.61523 -19.685922,447.17897 C -15.973699,444.94018 -12.027463,442.9001 -8.400534,440.69587 C -8.2489416,440.66941 -8.0963503,440.62177 -7.9403142,440.63585 z M -56.183349,443.35715 C -56.116985,443.33633 -56.210837,443.32023 -56.183349,443.35715 z M -56.183349,443.35715 C -60.102792,444.10368 -63.595145,446.45909 -67.428718,447.53914 C -70.282689,449.78328 -73.25107,451.58833 -76.713151,452.62157 C -82.811393,455.3457 -88.782594,458.52212 -94.201501,462.3262 C -95.399251,462.10153 -97.485895,464.45155 -96.02237,464.8274 C -93.865533,463.14769 -91.494429,461.96976 -89.099065,460.70543 C -86.067955,458.10013 -81.755655,458.4105 -78.874183,455.60299 C -71.769368,450.76329 -63.094836,448.57914 -56.183349,443.35715 z M 243.13957,454.96269 C 246.82019,455.54223 249.44654,458.78613 253.10433,459.66493 C 257.76413,462.40679 262.50973,465.04632 267.04441,467.97098 C 269.76006,470.40879 272.87115,472.48052 275.35495,475.0923 C 277.77826,478.71935 281.47008,483.92849 278.53647,488.19856 C 277.66917,489.65208 278.0143,492.13178 276.35543,493.44106 C 271.50793,501.74473 267.87779,511.06226 262.56884,519.13333 C 258.73307,527.17097 251.90195,533.51117 245.94091,539.90324 C 243.80453,543.70144 238.98821,545.90019 234.73556,546.16623 C 231.35502,545.46672 231.19046,540.95769 230.15337,538.28247 C 229.81484,532.66451 226.69424,527.25618 223.55021,522.65501 C 222.32703,521.33133 221.93981,519.42057 219.78065,519.00783 C 214.95011,515.37597 208.07561,517.35338 203.4206,520.31389 C 199.45787,523.49482 195.16454,526.09185 191.43488,529.5583 C 184.70269,533.37804 180.29827,541.68681 172.08564,542.56451 C 166.67565,542.13539 165.85924,535.472 165.36243,531.25912 C 164.26086,523.5684 166.10033,515.4055 163.60159,508.00801 C 161.5951,504.7886 161.62336,498.32108 166.22284,497.48299 C 168.81353,495.14944 172.55597,494.86211 175.16711,492.44058 C 178.3127,490.88544 181.44577,489.13891 184.43154,487.43819 C 187.52767,486.69257 189.09043,483.08948 192.29529,482.2157 C 196.24565,481.5499 198.97047,478.01965 202.94037,477.3934 C 214.90662,469.82591 228.04065,463.85457 239.83799,455.96316 C 240.8533,455.40549 241.965,454.95682 243.13957,454.96269 z M -102.42543,467.1285 C -103.69889,467.38205 -105.40495,468.20119 -105.86707,469.30954 C -104.47024,469.49104 -100.46825,469.79581 -101.24486,467.52869 C -101.45947,467.04768 -102.00897,467.09859 -102.42543,467.1285 z M 76.860175,482.33576 C 80.745774,481.9232 81.305466,486.84127 80.001675,489.49918 C 78.042474,495.09754 75.446073,500.47772 72.237968,505.40677 C 68.707105,512.48521 63.278138,518.54776 59.291787,525.43634 C 56.760453,529.54766 52.859704,534.85898 55.189828,539.90324 C 58.932185,543.8112 65.156264,541.38496 69.556688,539.98328 C 75.250562,537.49884 81.090092,534.76339 86.264665,531.29913 C 88.569375,529.63563 91.63683,529.06374 93.659396,526.83194 C 105.41013,517.87212 118.719,511.33713 131.72637,504.40629 C 136.63596,503.33567 141.3702,499.14164 146.55345,500.70453 C 149.31266,502.99775 145.45232,505.99657 143.45197,507.16761 C 124.86803,517.53189 106.20477,528.14731 87.505258,538.22244 C 83.053366,539.55889 79.619547,543.06608 75.232467,544.84257 C 69.318994,547.82722 64.171326,551.83342 58.202473,554.59954 C 52.726559,557.81521 47.080171,560.66282 41.423255,563.51452 C 36.957949,566.07656 32.514182,569.15091 27.586076,571.12972 C 19.656491,574.5834 12.139539,578.90834 4.7657525,583.30397 C -3.7380326,586.62605 -11.371866,592.13935 -19.966056,595.14962 C -22.892701,595.60663 -23.245209,591.82307 -21.686878,590.10721 C -19.29629,585.55846 -14.78816,582.73641 -12.454604,578.27249 C -5.9549311,570.88779 -0.43654585,562.78259 6.1795731,555.56219 C 9.5994076,551.66823 12.492706,547.48447 15.330797,543.26485 C 18.418658,539.00459 21.601938,534.87787 25.263584,531.08598 C 28.766985,525.97974 31.652292,520.35194 36.27213,516.01903 C 46.129086,505.29142 56.284623,494.82244 68.325175,486.5499 C 70.887186,484.73767 73.640372,482.69389 76.860175,482.33576 z M 378.34412,581.34303 C 381.96064,581.60353 380.54952,586.49534 378.3041,587.74609 C 375.51132,588.99769 373.6873,591.77559 370.56041,592.24824 C 361.50806,596.44748 352.54964,601.46142 343.1073,604.67417 C 335.22229,608.41545 326.92601,611.13226 318.89574,614.51887 C 311.64836,616.56995 305.09385,620.3384 297.54554,621.54222 C 289.78524,624.293 281.80721,626.66143 273.75419,628.24542 C 272.05026,628.70283 270.43718,630.03841 268.41163,629.94624 C 260.28446,631.84948 252.25502,634.38914 243.86886,635.15974 C 237.49098,635.57984 230.56253,637.03769 224.45064,634.6885 C 220.61426,632.08442 223.3663,626.89244 226.35155,624.88382 C 230.61968,621.62872 235.42418,619.05896 240.25819,616.79996 C 244.82691,615.62596 249.09845,613.00613 253.62457,611.51744 C 259.6598,608.12175 266.62291,606.5726 273.03384,603.99384 C 289.71155,599.91889 306.05934,594.22466 322.87764,590.56743 C 326.09753,589.54219 329.75878,590.52019 332.62229,588.86662 C 336.18503,588.54412 339.73765,588.14696 343.04727,586.66557 C 354.64392,584.00028 366.46269,582.07718 378.34412,581.34303 z M -53.041849,615.53936 C -50.394992,614.97988 -49.569852,618.60029 -51.841275,619.70134 C -54.406052,621.96 -57.786732,622.82765 -59.865107,625.74423 C -64.741715,630.31361 -71.865064,634.21154 -78.754125,632.68754 C -81.918765,631.87845 -81.558442,627.27683 -78.574039,626.44456 C -70.789979,622.37998 -62.680231,618.65194 -54.362479,615.75946 C -53.925337,615.67682 -53.484801,615.57785 -53.041849,615.53936 z"
       id="path2676" />
  </g>
</svg>
