<?xml version="1.0" encoding="UTF-8"?><svg id="Layer_1" xmlns="http://www.w3.org/2000/svg" viewBox="0 0 225.48 235.02"><defs><style>.cls-1{fill:#f7ba17;}.cls-2{fill:#010101;}.cls-3{fill:#253232;}.cls-4{fill:#4e5b5b;}</style></defs><g><path class="cls-4" d="M123.67,111.76c3.55-.21,6.45-3.31,6.7-7.27,.74-11.45,2.26-22.85,2.91-34.31,.76-13.45,.27-27.26-3.98-39.87-4.25-12.61-12.72-23.95-24.1-28.45-11.38-4.5-25.58-.79-32.33,10.38-8.03,13.28-3.69,31.35,2.68,45.71,6.09,13.74,13.81,26.58,22.89,38.08,3.83,4.85,7.98,9.53,13.07,12.59,3.53,2.12,7.58,3.4,12.15,3.13Z"/><path class="cls-4" d="M112.93,106.41c-18.09-24.7-43.66-42.46-71.51-49.65-11.16-2.88-24.05-3.69-32.91,4.42C.39,68.62-1.9,82.25,1.56,93.34c3.46,11.09,11.79,19.68,21.25,24.83,9.45,5.15,20,7.23,30.46,8.51,14.94,1.83,30.03,2.15,45.02,.96,4.51-.36,9.34-1,12.77-4.29,3.43-3.29,6.02-11.29,1.88-16.94Z"/><path class="cls-4" d="M114.33,123.68c-16.72-1.6-33.97-1.84-49.82,4.3-15.86,6.13-30.24,19.69-34.51,37.81-2.53,10.72-.8,23.51,6.94,30.46,5.49,4.93,13.12,6.11,20.05,4.66,6.92-1.45,13.26-5.25,19.21-9.46,13.54-9.57,25.74-21.51,36-35.25,2.77-3.71,5.46-7.66,6.68-12.3,1.22-4.63,.72-10.11-4.55-20.22Z"/><path class="cls-4" d="M128.38,126.16c-4.46-2.41-9.78-.12-11.73,4.96-7.63,19.85-11.87,41.33-12.38,62.92-.23,9.68,.42,19.91,5.16,28.02,5.41,9.26,15.94,14.28,25.73,12.65s18.43-9.65,22-19.96c3.71-10.68,2.19-22.71-.45-33.78-3.24-13.6-8.11-26.71-14.42-38.89-3.19-6.16-7.74-12.59-13.9-15.92Z"/><path class="cls-4" d="M125.17,105.13c9.86-27.13,20.33-55.25,39.84-74.8,8.52-8.54,20.82-15.35,31.11-9.75,7.26,3.95,11.23,13.2,11.88,22.18,1.31,17.88-8.53,34.94-21.45,45.61-12.91,10.67-28.59,16.14-43.94,21.42-3.35,1.15-6.82,2.32-10.31,1.93-3.49-.39-8.43-3.02-7.14-6.59Z"/><path class="cls-4" d="M122.78,110.41c-2.51,5.54-1.05,12.28,2.29,17.35,3.34,5.07,8.29,8.78,13.23,12.23,13.88,9.71,28.83,18.4,45.29,22.04,8.12,1.8,17.03,2.22,24.33-1.83,7.37-4.09,11.85-12.06,14.76-20.07,3.05-8.41,4.57-18.49-.5-25.82-4.45-6.44-12.63-8.81-20.23-10.27-20.16-3.85-76.65,.81-79.17,6.35Z"/><path class="cls-3" d="M114.91,139.18c8.91,20.5,15.25,42.7,16.91,65.68,.08,1.01,1.42,1.01,1.48,0,1.4-23.08-.57-46.93-7.6-69.64-2.53-7.82-13.9-2.95-10.79,3.97Z"/><path class="cls-3" d="M119.13,136.6c11.72,15.6,20.75,34.13,24.28,54.28,.16,.88,1.5,.77,1.47-.14-.48-20.58-5.44-41.78-16.13-60.43-3.83-6.41-13.67,1.1-9.63,6.29Z"/><path class="cls-3" d="M112.66,140.86c1.26,19.19,3.48,38.39,5.01,57.58,.07,.84,1.41,.85,1.48,0,1.53-19.19,3.75-38.39,5.01-57.58,.43-6.57-11.93-6.58-11.5,0Z"/><path class="cls-3" d="M108.53,129.2c-18.66,7.76-33.15,22.72-41.49,39.65-.38,.74,.78,1.41,1.27,.76,10.89-15.16,27.25-25.15,43.96-29.53,5.6-1.31,2.87-13.42-3.74-10.87Z"/><path class="cls-3" d="M114.51,127.24c-8.32,12.03-15.9,24.69-24.01,36.89-.36,.54,.68,1.39,1.14,.94,10.46-10.26,21.47-20.08,31.73-30.5,3.51-3.57-6.01-11.46-8.86-7.33Z"/><path class="cls-3" d="M107.72,123.89c-22.14,7.94-42.2,20.5-59.71,35.23-.78,.64,.02,1.72,.87,1.19,19.25-12.2,40.61-20.29,62.13-25.41,7.32-1.65,4.4-13.67-3.3-11.02Z"/><path class="cls-3" d="M108.8,122.34c-8.78-.46-17.33,1.75-24.68,5.62-7.35,3.88-13.61,9.42-18,16-.4,.57,.65,1.4,1.14,.94,5.41-5.41,12.31-8.92,19.32-10.72,7.03-1.8,14.26-1.9,20.84-.42,4.18,1.11,7.66-10.85,1.39-11.41Z"/><path class="cls-3" d="M109.35,118.14c-24.29-8.61-50.26-10.8-75.08-8.24-1.1,.1-1.03,1.44,.06,1.48,24.83,.51,48.97,7.12,70.66,17.4,7.28,3.59,12.74-7.52,4.37-10.64Z"/><path class="cls-3" d="M116.87,116.55c-15.7-9.2-32.79-15.55-49.89-20.39-.75-.22-1.22,1.04-.52,1.38,15.95,7.68,30.45,17.77,43.93,28.51,4.54,3.68,11.89-6.27,6.48-9.5Z"/><path class="cls-3" d="M120.26,113.85c-16.97-12.24-35.52-21.99-54.28-30.46-.82-.38-1.46,.81-.71,1.3,17.26,11.13,32.93,24.35,47.71,38.06,5,4.7,13.1-4.64,7.28-8.9Z"/><path class="cls-3" d="M120.58,115.14c-10.24-22.32-19.75-45.26-26.84-69.08-.32-1.05-1.63-.75-1.44,.33,4.13,24.55,9.48,49.17,17.6,72.99,2.83,8.17,14.22,3.36,10.69-4.25Z"/><path class="cls-3" d="M127.64,119c-6.54-22.88-14.02-45.55-20.81-68.37-.3-1-1.61-.7-1.44,.33,3.82,23.5,6.97,47.17,11.05,70.61,1.4,8.03,13.45,5.28,11.21-2.57Z"/><path class="cls-3" d="M132.02,119.71c-.65-22.03-5.58-43.6-12.79-63.84-.31-.89-1.6-.53-1.42,.4,4.23,20.99,4.56,42.39,2.72,63.13-.7,7.03,11.64,7.94,11.49,.32Z"/><path class="cls-3" d="M134.15,115.69c11.53-19.88,22.26-40.29,33.56-60.31,.5-.88-.63-1.62-1.24-.81-13.86,18.35-28.31,36.33-41.94,54.82-4.67,6.33,5.66,13.12,9.62,6.31Z"/><path class="cls-3" d="M131.87,125.81c13.97-17.06,27.24-34.78,41.01-52.02,.61-.76-.38-1.67-1.09-1-16.02,15.17-32.56,29.89-48.38,45.24-5.42,5.26,3.68,13.63,8.47,7.78Z"/><path class="cls-3" d="M128.23,126.8c17.08-12.78,32.77-27.29,47.89-42.04,.67-.65-.2-1.67-.95-1.13-17.07,12.4-35.2,23.17-53.27,33.58-6.18,3.52,.43,13.97,6.33,9.6Z"/><path class="cls-3" d="M128.62,127.83c21.08-7.3,44.18-10.83,67.24-8.37,1.01,.1,1.26-1.22,.25-1.46-22.65-5.51-47.07-6.6-70.62-1.24-8.13,1.99-3.96,13.65,3.13,11.06Z"/><path class="cls-3" d="M128.36,138.23c19.12-3.2,39.08-4.32,58.9-1.57,.87,.11,1.17-1.2,.32-1.44-19.24-5.76-39.71-9.24-60.36-8.43-7.14,.36-5.33,12.6,1.15,11.44Z"/><path class="cls-3" d="M127.1,131.85c15.75-4.57,32.46-7.65,49.48-7.34,.75,0,.9-1.33,.16-1.47-16.77-3.37-34.46-4.81-51.98-2.45-6.06,.89-2.98,12.87,2.34,11.26Z"/><path class="cls-3" d="M121.85,140.56c16.87-1.17,34.6,.46,51.27,6.61,.73,.26,1.32-.95,.63-1.34-15.46-8.98-33.19-15.41-51.83-16.78-6.49-.37-5.75,11.99-.07,11.5Z"/></g><path class="cls-2" d="M115.96,101.48c-2.01-5.36-2.68-11.33-1.91-17.08,.23-1.73,.98-3.84,2.55-3.91,1.58-.07,2.47,1.97,2.9,3.68,1.29,5.17,2.16,10.48,2.58,15.83,.43-5.39,2.59-10.59,6-14.44,1.25-1.41,3.19-2.7,4.7-1.66,1.35,.93,1.42,3.07,1.21,4.83-.56,4.91-1.94,9.71-4.05,14.07,2.94-3.56,6.69-6.28,10.8-7.83,1.35-.51,3.02-.83,4.06,.26,1.4,1.46,.52,4.09-.68,5.75-2.61,3.63-6.41,6.17-10.51,7.03,4.07-.2,8.17,.49,11.99,2.03,1.15,.46,2.37,1.09,2.96,2.29,2.54,5.2-3.74,7.35-14.6,4.59,3.63,3.13,6.61,7.19,8.66,11.78,.72,1.61,1.31,3.56,.56,5.16-1.11,2.35-4.21,2.15-6.39,1.1-4.03-1.94-7.34-5.69-9-10.22,2.03,4.51,3.73,9.22,5.06,14.05,.51,1.84,.93,3.99-.06,5.57-.95,1.53-2.96,1.88-4.53,1.22s-2.75-2.11-3.74-3.62c-2.84-4.38-4.44-9.74-4.51-15.15-.58,2.89,.05,5.89,.07,8.86,.02,2.96-.86,6.33-3.28,7.56-3.15,1.6-6.88-1.72-7.56-5.51-.68-3.79,.7-7.62,2.06-11.18-2.58,2.88-7.49,6.49-9.33,7.02-1.84,.53-4.12-.26-4.78-2.24-.48-1.45,0-3.07,.66-4.44,2.05-4.33,5.77-7.63,10.01-8.88-3.93,1.25-9.4,.91-12.32-.72-1.86-1.04-3.12-3.77-2.07-5.77,.71-1.35,2.17-1.93,3.54-2.28,3.62-.91,7.43-.87,11.03,.14-3.71-2.35-7.52-4.8-10.08-8.61-1.2-1.78-2.1-4.17-1.28-6.21,.95-2.35,3.85-3.02,5.99-2.05,4.12,1.86,6.46,5.36,9.76,10.74-2.5-3.78-4.72-7.8-6.62-11.99-.5-1.1-.99-2.27-.98-3.51,0-1.24,.66-2.56,1.75-2.84,1.43-.37,2.65,1.14,3.45,2.51,2.07,3.56,3.75,7.41,5.91,14.07Z"/><path class="cls-1" d="M121.59,102.95c-1.17-1.07-2.89-1.32-4.27-.63-1.38,.69-2.35,2.3-2.41,3.98-2.17,.28-4.13,2.05-4.82,4.35-.69,2.31-.09,5.04,1.49,6.72-.76,2.41,.08,5.32,1.94,6.79,1.87,1.47,4.61,1.37,6.38-.23,1.55,1.63,4.01,2.08,5.95,1.08,1.94-1,3.23-3.38,3.13-5.75,2-1.05,3.4-3.42,3.48-5.89,.08-2.47-1.16-4.94-3.09-6.15-.02-1.61-.9-3.18-2.19-3.9-1.29-.72-2.94-.56-5.59-.38Z"/></svg>