<?xml version="1.0" encoding="utf-8"?>
<!-- Generator: Adobe Illustrator 26.3.1, SVG Export Plug-In . SVG Version: 6.00 Build 0)  -->
<svg version="1.1" id="Capa_1" xmlns="http://www.w3.org/2000/svg" xmlns:xlink="http://www.w3.org/1999/xlink" x="0px" y="0px"
	 viewBox="0 0 339.2 339.2" style="enable-background:new 0 0 339.2 339.2;" xml:space="preserve">
<style type="text/css">
	.st0{fill:#A68764;}
</style>
<g>
	<g>
		<path class="st0" d="M168.5,36.1c1.8,2.4,4.9,2.4,6.7,0c3.1-3.7,1.8-8,1.8-12.9c0-6.1,0.6-12.2,1.8-18.4c1.2-4.9-6.1-6.7-8-2.4
			c-1.8,4.9-3.1,10.4-3.7,15.9C166.6,24.4,164.8,31.2,168.5,36.1z"/>
		<path class="st0" d="M167.9,61.8c1.2,3.7,1.8,6.7,2.4,10.4c0,1.8-0.6,3.7,0,5.5s0.6,3.1,1.8,4.9c1.2,2.4,5.5,2.4,6.7,0
			c1.8-4.3,1.8-7.3,0.6-11.6c-1.2-4.3-1.8-8-4.3-12.2C172.8,55,166.6,57.5,167.9,61.8z"/>
		<path class="st0" d="M172.2,137c1.2,1.8,4.3,1.8,6.1,0c2.4-3.1,1.8-5.5,1.8-9.2s-0.6-6.7-0.6-10.4c-0.6-4.9-7.3-4.9-7.3,0
			c0,3.1-0.6,6.1-0.6,9.2C170.3,130.3,169.1,133.4,172.2,137z"/>
		<path class="st0" d="M171.5,164.6c2.4,6.7,1.2,13.5,3.1,20.2c1.2,3.7,6.7,3.7,8,0c2.4-7.3,0-15.9-4.3-22.6
			C176.4,158.5,170.3,160.9,171.5,164.6z"/>
		<path class="st0" d="M175.8,242.9c1.2,1.2,3.7,1.2,4.9,0c3.7-3.7,2.4-8.6,2.4-13.5c0-4.3,0-9.2-0.6-13.5c-0.6-3.7-6.7-3.7-7.3,0
			c-0.6,4.3-0.6,8-0.6,12.2C173.4,233.1,172.2,238.6,175.8,242.9z"/>
		<path class="st0" d="M181.9,295.5c3.7,0,6.1-3.7,4.9-6.7c-1.2-4.9-1.2-11-1.8-15.9c-0.6-3.1-6.1-3.1-6.7,0c-0.6,5.5,0,11-1.8,15.9
			C175.8,291.9,178.3,295.5,181.9,295.5z"/>
		<path class="st0" d="M123.8,298c14.1,15.3,29.4,30.6,48.3,40.4c2.4,1.2,5.5,1.2,7.3-1.2c12.9-15.3,22.6-32.4,36.1-47.1
			c4.9-4.9-3.1-12.2-7.3-7.3c-12.2,13.5-21.4,29.4-33.7,42.8c-15.9-9.8-26.9-23.9-41-36.7C126.9,282.7,118.3,291.9,123.8,298z"/>
	</g>
</g>
</svg>
