<?xml version="1.0" encoding="UTF-8"?><svg id="a" xmlns="http://www.w3.org/2000/svg" viewBox="0 0 114.38 194.03"><defs><style>.d{fill:#faa85c;}.e{fill:#f79335;}.f{fill:#b0cb4b;}.g{fill:#a66653;}.h{fill:#c65127;}.i{fill:#c6db5d;}.j{fill:#db5826;}.k{fill:#1e331b;}.l{fill:#376732;}.m{fill:#44813d;}.n{fill:#6e9f41;}.o{fill:#2a4e24;}.p{fill:#5c4d35;}.q{fill:#608a3c;}.r{fill:#274822;}</style></defs><g id="b"><g id="c"><path class="o" d="M95.17,74.17c.1-3.07-1.29-6.5-4.57-7.23-1.61-.36-3.72,.12-5.36,.3-2.08,.23-4.12,.72-6.1,1.41-3.25,1.13-6.44,2.46-9.57,3.89-2.86,1.31-5.83,2.43-8.65,3.82-1.53,.75-2.26,1.32-2.66,3.04-.49,2.14-.23,4.64-.39,6.83-.24,3.4-.42,6.81-.59,10.22-.35,6.9-.3,13.83-.98,20.71-.17,1.77,2.36,2.21,3.18,.86,2.27-3.71,5.42-5.8,8.9-8.28,3.08-2.19,6.05-4.49,9.22-6.55,3.01-1.96,6.18-3.57,9.24-5.43,2.21-1.34,4.22-3.07,5.17-5.54,1.1-2.86,.14-5.36,.13-8.26-.01-3.53,2.9-6.19,3.02-9.78Z"/><path class="k" d="M67.69,90.85c.35,.9,.51,1.48,.49,2.36l1.07,.03-.47-.5c.24-.22,.48-.41,.71-.57-.09-.6-.26-1.16-.52-1.82-1.51-3.85-2.99-6.83-4.66-9.38-1.09-1.66-2.2-3.2-3.36-4.64l-.04,.02c-.47,.23-.85,.44-1.18,.67,1.18,1.46,2.32,3.01,3.43,4.7,1.61,2.47,3.05,5.37,4.53,9.13Z"/><path class="k" d="M81.48,88.62c-3.02,.42-6.24,1.26-10.13,2.65-.73,.26-1.3,.51-1.86,.9-.24,.16-.47,.34-.71,.57l.47,.5,.47,.5c.65-.6,1.19-.86,2.1-1.18,3.8-1.36,6.93-2.18,9.86-2.58,3.84-.53,7.42-.67,10.87-.42,.02-.46,0-.92-.03-1.38-3.5-.25-7.13-.11-11.03,.43Z"/><path class="k" d="M79.44,78.26c-1.04,.37-1.76,.71-2.57,1.47l.94,1.01c.65-.6,1.19-.86,2.1-1.18,3.8-1.36,6.93-2.18,9.86-2.58,1.7-.24,3.35-.39,4.95-.48,.15-.45,.27-.92,.35-1.39-1.78,.08-3.61,.24-5.5,.5-3.02,.42-6.24,1.26-10.13,2.65Z"/><path class="k" d="M71.7,91.2c2.41-4.23,5.2-7.85,8.11-11.59,2.85-3.67,6.25-7.02,8.7-11.1,.39-.65,.19-1.33-.21-1.66-.39,.03-.77,.08-1.16,.13-.04,.04-.07,.08-.11,.13-1.58,2.27-3.86,3.91-5.72,5.85-1.59,1.66-3.03,3.47-4.51,5.28-3.28,4.02-6.14,8.15-8.71,12.86-2.54,4.64-4.9,9.49-6.85,14.51-1.57,4.04-3.52,8.71-3.65,13.15,.7,.14,1.51-.09,1.91-.75,.16-.27,.34-.51,.51-.75,1.3-3.8,2.98-7.53,4.49-11.2,2.11-5.13,4.5-10.11,7.2-14.85Z"/><path class="g" d="M59.55,127.4c-.12-5.45-.13-10.9-.08-16.35,.08-10.88,.6-21.81,.04-32.69-.04-.71-.54-1.09-1.07-1.14-.02-1.12-.05-2.24-.09-3.37-.06-1.79-2.42-2.46-3.37-.91-.94,1.52-.84,3.05-.97,4.77-.23,3.02-.68,6-.79,9.04-.25,6.46-.1,12.95-.14,19.41-.04,6.09,.02,10.73,.18,16.82,.08,3.02,.06,7.47,.01,10.49-.05,3.05,.23,6.42-.41,9.41-.24,1.14,.51,2.19,1.7,2.23,1.62,.06,3.04-.25,4.59-.7,.73-.21,1.28-.9,1.27-1.67-.06-5.1-.75-10.23-.86-15.35Z"/><path class="o" d="M91.66,12.93c-.51-3.48-2.05-6.96-5.49-8.39-1.44-.6-2.96-.73-4.5-.59-1.13,.11-2.32,.52-3.45,.43-1.34-.11-2.49-.99-3.77-1.31-4.15-1.04-9.34,1.63-12.45,4.14-3.38,2.73-5.54,6.55-6.69,10.68-.74,2.66-1.63,6.2-.95,8.93,.74,3.01,.98,6.11,1.4,9.2,.41,2.96,.41,5.94,.87,8.9,.29,1.86,.37,4.78,1.61,6.32,2.29,2.82,6.48-1.24,8.34-2.64,4.16-3.13,8.19-6.54,12.09-9.98,7.76-6.83,14.6-14.65,12.99-25.68Z"/><path class="k" d="M66.05,31.43l.37,1.02,.76-.77c3.01-3.04,10.63-1.18,17.22,1.36,.33-.37,.66-.74,.97-1.11-6.28-2.5-14.31-4.71-18.39-1.88-1.13-2.76-4.86-10.98-10.73-14.92-.18,.44-.35,.89-.51,1.34,6.42,4.54,10.24,14.83,10.29,14.96Z"/><path class="k" d="M72.33,19.78l-.14,1.21,1.11-.5c.13-.06,12.3-5.5,18.59-3.62,.02-.47,.01-.94,0-1.42-5.84-1.44-15.16,2.11-18.19,3.37-.4-3.91-4.4-10.4-7.14-14.46-.42,.2-.83,.41-1.24,.63,3.2,4.73,7.38,11.72,7.01,14.79Z"/><path class="k" d="M71.54,24.99c1.93-3.75,3.7-7.64,5.27-11.54l.51-1.27c1.05-2.58,2.13-5.23,2.78-7.98-.63,.12-1.27,.22-1.89,.17-.09,0-.19-.03-.28-.04-.63,2.4-1.59,4.76-2.53,7.07l-.52,1.27c-1.55,3.84-3.29,7.67-5.19,11.37-3.73,7.27-8.14,14.23-13.1,20.7,0,.05,.01,.11,.02,.16,.12,.78,.21,1.75,.36,2.72,.32-.42,.65-.83,.97-1.25,5.15-6.68,9.72-13.88,13.59-21.39Z"/><path class="m" d="M57.59,20.2c-.9-2.02-2.09-3.96-3.66-5.54-1.9-1.91-4.47-2.74-6.45-4.49-2.13-1.89-2.79-4.97-4.73-7.08-1.49-1.62-3.46-2.77-5.67-3.03-4.54-.54-8.4,2.75-10.09,6.73-1.3,3.06-.9,5.72-.87,8.93,.04,3.41-2.33,6.04-2.32,9.42,.01,3,1.33,5.78,2.86,8.28,.84,1.37,1.7,2.4,2.64,3.35,1.54,2.27,2.7,4.74,4.38,6.91,1.78,2.29,3.76,4.54,5.78,6.62,1.79,1.85,3.86,3.23,6.12,4.47,1.97,1.08,4.45,2.65,6.79,2.63,3.52-.03,4.9-3.4,5.59-6.34,1.17-4.96,2.53-9.97,2.72-15.09,.2-5.32-.92-10.92-3.09-15.78Z"/><path class="l" d="M39.38,18.35c3.03-2.98,4.72-7.48,5.65-11.66-.34-.64-.67-1.28-1.04-1.9-.81,4.41-2.41,9.46-5.57,12.58l.97,.98Z"/><path class="l" d="M43.84,29.68l.76,1.15c5.27-3.48,8.26-10.79,9.75-15.69-.14-.15-.27-.32-.41-.47-.23-.23-.47-.44-.71-.64-1.37,4.7-4.26,12.27-9.38,15.66Z"/><path class="l" d="M48.11,41.32l.57,1.25c5.37-2.44,9.3-8.49,11.62-13.04-.12-.77-.26-1.54-.43-2.3-2.07,4.42-6.14,11.53-11.76,14.09Z"/><path class="l" d="M38.59,18.65l-.46-1.3c-3.68,1.3-8.18,.86-12.15-.09-.09,.46-.2,.91-.35,1.36,2.29,.54,4.76,.93,7.19,.93,1.99,0,3.96-.26,5.77-.9Z"/><path class="l" d="M43.97,32.43l-.62-1.23c-5.26,2.65-12.86,1.6-17.66,.5,.29,.56,.6,1.1,.93,1.63,2.43,.5,5.36,.93,8.34,.93,3.14,0,6.33-.47,9.02-1.83Z"/><path class="o" d="M45.55,30.93c-2.06-5.42-4.23-10.89-6.52-16.22-2.1-4.88-4.28-9.25-7.15-13.56-.61,.34-1.18,.76-1.72,1.22,.9,1.63,1.84,3.24,2.62,4.94,1.17,2.54,2.22,5.14,3.36,7.7,2.41,5.42,4.33,11.17,6.3,16.77,1.98,5.63,4.16,11.2,5.92,16.91,.84,2.74,1.72,5.6,2.44,8.49,.53,.13,1.06,.21,1.58,.21,.64,0,1.21-.12,1.72-.33-.65-2.76-1.47-5.48-2.23-8.05-1.82-6.13-4.05-12.12-6.31-18.09Z"/><path class="n" d="M49.91,103.04c-.22-.38-.45-.74-.71-1.1-1.44-2.01-3.65-3.81-6.11-4.3-1.44-.29-3.19-.33-4.37-1.32-1.31-1.1-2.51-2.52-3.32-4.04-.73-1.37-1.32-2.82-2.21-4.09-1.59-2.26-4.1-3.81-6.81-4.36-6.83-1.39-11.38,3.61-16.88,6.55C4.37,93.12,.16,96.51,0,102.81c-.13,5.4,2.79,10.05,7.58,12.52,2.91,1.5,6.04,1.55,9.22,1.71,1.46,.07,2.91-.14,4.39,.08,1.72,.25,3.38,.81,4.99,1.44,4.53,1.78,8.95,3.61,13.92,3.2,5.16-.43,10.99-4.89,11.6-10.29,.33-2.9-.34-5.89-1.8-8.42Z"/><path class="l" d="M106.76,86.69c-9.8-2.82-19.9,2.7-26.59,9.35-1.6,1.59-3.29,3-5.59,3.44-1.23,.24-2.45,.14-3.66,.57-2.12,.76-3.9,2.51-5.34,4.17-3.6,4.15-4.93,9.19-6.87,14.13-.68,1.73-1,5.61,.65,4.41,4.51-3.3,13.19,2.8,18.01,3.55,4.7,.73,9.71,.04,13.91-2.25,4.48-2.45,5.69-7.08,8.26-11.15,2.96-4.68,8.71-5.26,12.22-9.2,5.13-5.76,2.29-14.9-5.01-17Z"/><path class="r" d="M69.72,109.87c-.27,.08-.43,.37-.35,.64,.08,.27,.37,.43,.64,.35,3.58-1.07,7.81-.49,10.68,.05,6.31,1.17,11.79,3.58,16.1,7,.17-.3,.33-.61,.49-.92-4.42-3.46-10.01-5.9-16.41-7.09-2.97-.55-7.37-1.16-11.16-.02Z"/><path class="r" d="M66.88,112.87c.08,.04,.16,.06,.24,.06,.19,0,.37-.1,.46-.28,1.95-3.79,2.98-8.02,3.11-12.49-.36,.14-.71,.31-1.05,.51-.19,4.12-1.18,8.02-2.97,11.51-.13,.25-.03,.57,.22,.7Z"/><path class="r" d="M83.63,104.23c-.13,.25-.04,.56,.21,.7,.08,.04,.16,.06,.24,.06,.18,0,.36-.1,.46-.27,2.56-4.78,1.77-8.66-.14-12.36-.28,.21-.56,.43-.83,.64,1.74,3.44,2.37,6.92,.06,11.23Z"/><path class="r" d="M96.94,96.26c-.13,.25-.04,.56,.21,.7,.08,.04,.16,.06,.24,.06,.18,0,.36-.1,.46-.27,2.16-4.03,1.93-7.43,.66-10.62-.35,.05-.7,.1-1.05,.17,1.26,3.04,1.5,6.18-.52,9.96Z"/><path class="r" d="M85.82,102.55c-.27,.08-.43,.37-.35,.64,.08,.27,.37,.43,.64,.35,3.58-1.07,7.81-.49,10.68,.05,3.82,.71,7.34,1.87,10.48,3.44,.36-.2,.71-.4,1.06-.61-3.38-1.77-7.19-3.07-11.35-3.85-2.97-.55-7.36-1.16-11.16-.02Z"/><path class="r" d="M100.8,93.61c-.28,.04-.48,.3-.44,.58,.04,.28,.3,.48,.58,.44,3.71-.5,7.79,.73,10.54,1.71,.99,.35,1.94,.74,2.88,1.14,.02-.37,.03-.75,0-1.12-.83-.35-1.67-.69-2.54-1-2.85-1.01-7.1-2.29-11.03-1.76Z"/><path class="q" d="M103.59,39.5c-1.45-.76-2.88-1.27-4.46-1.67-1.2-.31-1.68,.06-2.21-1.19-.97-2.28-.53-4.58-2.31-6.66-3.63-4.22-9.72-3.57-13.92-.7-2.5,1.71-4.68,3.97-6.54,6.35-1.04,1.33-1.9,2.89-3.21,3.99-1.79,1.51-4.22,2.15-6.33,3.1-3.17,1.43-5.74,3.38-7.76,6.23-2.1,2.96-2.49,6.01-3.06,9.39-1.91,5.51-5.01,12.94-2.46,18.58,.82,1.81,2.27,2.69,4.15,3.11,2.9,.65,6.03,1.04,8.99,1.24,7.28,.52,13.2-.67,19.07-5.18,2.5-1.92,4.03-4.45,6.11-6.74,2.92-3.22,6.94-3.89,10.76-5.51,4.98-2.11,9.73-6.6,10.39-12.2,.61-5.26-2.73-9.79-7.21-12.15Z"/><path class="n" d="M68.48,66.25c.13,.23,.36,.36,.6,.36,.11,0,.23-.03,.33-.09,.33-.18,.45-.6,.27-.94-3.71-6.74-3.25-17.58-2.56-23.9-.49,.2-.98,.39-1.47,.58-.67,6.54-.97,17.1,2.82,23.98Z"/><path class="n" d="M79.92,57.8c.36,.36,.74,.7,1.14,1.03,.13,0,.25-.05,.36-.13,.3-.23,.37-.66,.14-.96-5.38-7.18-4.95-19.74-4.42-25.5-.53,.53-1.04,1.07-1.53,1.63-.44,6.21-.37,16.93,4.31,23.93Z"/><path class="n" d="M91.36,46.63c.14,.17,.34,.26,.54,.26,.15,0,.3-.05,.43-.15,.3-.24,.35-.67,.11-.97-2.99-3.74-3.23-11.55-2.68-18.62-.46-.09-.92-.14-1.39-.16-.57,7.34-.29,15.55,2.99,19.64Z"/><path class="n" d="M66.05,67.43c-.23,.3-.18,.73,.12,.97,5.02,3.87,12.81,5.49,19.08,6.15,.41-.42,.79-.85,1.16-1.29-6.27-.58-14.41-2.09-19.4-5.94-.3-.23-.74-.18-.97,.12Z"/><path class="n" d="M79.92,57.8s-.09-.09-.14-.13c-.27-.27-.7-.28-.97-.01-.27,.27-.28,.7-.01,.97,3.98,4.07,10.13,6.27,15.71,7.45,.81-.35,1.65-.66,2.5-.96-5.36-.92-11.66-2.73-15.95-6.29-.4-.33-.78-.67-1.14-1.03Z"/><path class="n" d="M90.28,48.06c-.23,.41-.48,.81-.74,1.2,4.07,3.86,12.86,5.24,20.37,5.66,.19-.45,.36-.91,.49-1.37-7.52-.39-16.42-1.7-20.12-5.49Z"/><path class="f" d="M61.93,73.39c5.37-4.78,11.85-8.25,17.62-12.51,8.18-6.05,15.11-13.75,18.69-23.21-.59-.08-.95-.16-1.32-1.03-.19-.45-.33-.91-.44-1.36-2.04,4.75-4.46,9.28-7.8,13.3-4.53,5.46-10.36,9.27-16.32,12.99-5.49,3.42-11.09,6.91-15.58,11.63-1.69,1.77-3.01,3.61-4.11,5.52,.76,.66,1.71,1.07,2.81,1.31,.13,.03,.27,.05,.4,.08,1.71-2.49,3.8-4.71,6.05-6.71Z"/><path class="n" d="M61.64,66.98c-.54-7.78-4.55-13.28-12.47-14.39-2.52-.35-4.87-.75-6.01-3.37-.92-2.11-.92-4.64-1.56-6.84-.89-3.03-2.45-5.32-5.62-6.19-3.96-1.09-6.96,1.19-10.75,1.44-3.3,.22-5.7-2.1-8.79-2.62-2.31-.39-5.24,1.23-7.06,2.49-3.03,2.1-5.61,5.39-6.31,9.06-1.33,6.88,2.61,15.32,9.26,17.92,2.06,.81,4.46,.86,6.17,2.43,1.65,1.52,2.01,3.73,2.4,5.83,.79,4.29,2.84,7.2,6.82,9.19,4.28,2.14,9.16,1.58,13.69,2.8,5.99,1.62,8.44,5.96,11.33,10.91,.76,1.3,2.41,.64,2.73-.74,.68-2.88,1.64-4.75,2.64-7.03,.96-2.21,1.71-4.5,2.27-6.85,1.09-4.58,1.61-9.35,1.29-14.05Z"/><path class="l" d="M27.17,56.18c-.14,.35,.03,.75,.38,.9,.08,.03,.17,.05,.26,.05,.27,0,.53-.16,.64-.43,3.05-7.51,2.42-16.63,2-20.26-.45,.12-.9,.26-1.35,.39,.39,3.66,.9,12.38-1.93,19.36Z"/><path class="l" d="M41.15,67.95c.08,.03,.17,.05,.26,.05,.27,0,.53-.16,.64-.43,2.22-5.46,3.03-11.65,3.31-15.96-.49-.25-.94-.58-1.33-1.02-.23,4.23-.97,10.82-3.26,16.45-.14,.35,.03,.75,.38,.9Z"/><path class="l" d="M20.31,54.01c.38-.05,.65-.39,.6-.77-.05-.38-.38-.65-.77-.6-7.94,.95-14.29-.63-17.25-1.6,.05,.51,.13,1.02,.24,1.53,2.52,.78,6.71,1.75,12,1.75,1.63,0,3.36-.09,5.18-.31Z"/><path class="l" d="M38.67,64.42c.28-.26,.3-.69,.04-.97-.26-.28-.69-.3-.97-.04-5.38,4.98-13.01,5.48-18.05,5.14,.24,.46,.42,.95,.58,1.45,.62,.03,1.26,.05,1.94,.05,5.07,0,11.55-1.09,16.47-5.63Z"/><path class="l" d="M47.63,75.28c.26-.28,.24-.72-.04-.97-.28-.26-.72-.24-.97,.04-6.12,6.71-16.26,6.86-20.66,6.57,.53,.36,1.11,.7,1.73,1.01,.36,.18,.72,.33,1.08,.47,5.28-.03,13.42-1.16,18.86-7.13Z"/><path class="l" d="M48.59,76.82c-.26,.27-.26,.71,.01,.97,.13,.13,.31,.2,.48,.2s.36-.07,.49-.21c7.35-7.54,6.24-19.19,5.61-23.09-.49-.3-1.01-.58-1.55-.83,.34,1.69,2.68,15.03-5.04,22.96Z"/><path class="f" d="M57.01,100.44c-1.43-13.42-7.4-27.62-17.52-36.72-5.03-4.52-10.61-7.24-16.41-10.58-6.28-3.62-11.63-8.44-14.74-14.86-.37,.3-.72,.61-1.07,.94,1.89,4.56,5.12,8.53,8.84,11.75,5.27,4.56,11.96,6.67,17.48,10.81,5.88,4.41,9.41,10.62,12.84,16.98,1.8,3.34,3.27,6.77,4.34,10.41,1.14,3.85,1.72,7.97,3.27,11.67,.58,1.4,3.16,1.46,2.96-.4Z"/><path class="k" d="M65.87,114.37c4.11-3.65,8.81-6.07,15.27-7.85,3.76-1.04,7.05-3.27,10.23-5.44,1.26-.86,2.57-1.75,3.86-2.53,.94-.57,1.87-1.16,2.76-1.73,2.71-1.73,5.26-3.37,8.3-4.38,2.12-.7,4.26-1.12,6.38-1.34-.36-.57-.78-1.1-1.25-1.59-1.89,.25-3.79,.67-5.68,1.3-3.25,1.08-6.01,2.85-8.69,4.56-.9,.57-1.8,1.15-2.72,1.71-1.33,.8-2.66,1.7-3.94,2.58-3.06,2.08-6.23,4.24-9.72,5.2-6.72,1.85-11.64,4.39-15.96,8.23-1.85,1.65-4.58,4.36-6.51,7.49-.13,1.27,0,2.45,.63,2.41,1.85-3.74,5.33-7.11,7.02-8.61Z"/><path class="f" d="M26.57,107.14c2.72-1.05,6.77-2.4,10.49-2,.28,.03,.54-.17,.57-.46,.03-.28-.18-.54-.46-.57-3.94-.42-8.15,.97-10.97,2.06-4.61,1.78-12.45,6.46-16.01,10.12,.52,.14,1.05,.24,1.57,.33,3.71-3.76,9.37-7.4,14.8-9.49Z"/><path class="f" d="M47.43,112.82c.28,.02,.53-.2,.55-.48,.02-.28-.2-.53-.48-.55-3.95-.24-8.1,1.35-10.86,2.57-2.9,1.28-5.93,2.97-8.69,4.88,.51,.2,1.02,.39,1.53,.58,2.68-1.91,5.46-3.59,7.57-4.52,2.67-1.17,6.65-2.71,10.39-2.48Z"/><path class="f" d="M40.97,106.94c.08,0,.16-.03,.23-.07,.25-.14,.33-.46,.19-.71-.87-1.52-2.83-7.56-3.37-10.5-.42-.41-.83-.84-1.2-1.3,.34,4.45,1.57,8.62,3.68,12.31,.1,.17,.29,.27,.47,.26Z"/><path class="f" d="M23.18,99.56c.1,.17,.28,.26,.47,.25,.08,0,.16-.03,.24-.07,.24-.15,.32-.46,.18-.71-2.33-3.9-.5-11.52,1.04-15.39-.4-.04-.79-.05-1.18-.05-1.67,4.16-2.85,12.46-.75,15.97Z"/><path class="f" d="M21.55,98.45c.28,.07,.56-.1,.63-.38,.07-.28-.1-.56-.38-.63-3.85-.96-7.9-.15-10.84,.54-3.89,.91-7.72,2.29-10.91,4.06-.02,.25-.04,.5-.05,.76,0,.25,0,.5,0,.74,3.06-1.66,7.38-3.74,10.88-4.56,2.84-.67,7.04-1.45,10.67-.54Z"/><path class="i" d="M12.23,93.9c1.32,.72,2.67,1.54,3.97,2.34,3.27,2.01,6.66,4.09,10.47,4.96,6.53,1.48,11.04,4.24,15.3,7.71,7.93,6.47,9.82,9.36,11.28,14.08,2.3-.25,2.04-2.62,.92-5.57-2.6-4.45-7.63-8.62-10.8-10.42-5.02-2.84-9.52-5.94-16.32-7.48-3.53-.8-6.79-2.8-9.95-4.74-1.32-.81-2.69-1.65-4.06-2.39-.95-.51-1.88-1.05-2.8-1.58-.24-.14-.49-.28-.74-.42h0c-.59,.32-1.18,.65-1.74,.99,.54,.3,1.08,.61,1.62,.93,.92,.53,1.87,1.08,2.84,1.6Z"/></g><g><path class="h" d="M56.98,193.29c-.13,0-.24,0-.37,0-.12,0-.24,0-.37,0h.73Z"/><path class="j" d="M65.82,158.12c-2.63-1.92-5.11-1.64-8.09-.44-3.84,1.54-7.01,3.66-11.08,1.53-3.31-1.74-5.31-2.45-9.19-1.87-2.47,.37-4.78,1.76-7.19,2.36,.69,3.6,1.57,7.43,2.65,11.12,2.35,8.02,4.74,22.27,23.68,22.46,18.95-.19,21.34-14.44,23.68-22.46,1.41-4.83,2.47-9.9,3.24-14.38-2.96,.53-5.76,2.15-8.56,3.19-3.59,1.33-6.23,.62-9.15-1.51Z"/><path class="h" d="M27.9,143.02s.62,7.59,2.38,16.68c2.41-.6,4.72-1.99,7.19-2.36,3.87-.58,5.88,.13,9.19,1.87,4.06,2.14,7.23,.01,11.08-1.53,2.98-1.19,5.47-1.48,8.09,.44,2.92,2.13,5.56,2.84,9.15,1.51,2.8-1.04,5.6-2.66,8.56-3.19,1.3-7.57,1.78-13.42,1.78-13.42H27.9Z"/><path class="p" d="M27.01,140.76c3.48-1.45,7.1-3.45,11-2.88,1.01,.15,1.83,.69,2.8,.92,1.07,.26,1.97,.06,3-.25,2.4-.73,4.72-1.54,7.23-1.84,2.47-.3,3.92,.87,6.18,1.47,2.36,.63,4.5-.34,6.79-.75,2.7-.48,5.66-.49,8.3,.31,1.3,.39,2.51,1.08,3.82,1.42,1.38,.36,2.75,.05,4.15-.07,2.47-.21,5.69,.81,4.91,4.01-.29,1.18-1.17,1.61-2.28,1.87-2.02,.46-4.19,.51-6.25,.65-5.64,.39-11.25,.44-16.9,.19-4.07-.18-8.13,.02-12.2,0-5.14-.01-9.99-1.23-14.97-2.28-.99-.21-6.06-.81-5.57-2.8Z"/><path class="d" d="M24.99,143.47c7.14,1.49,18.81,2.38,31.23,2.38s24.85-.95,31.91-2.53c.89-.2,1.78-.19,2.62-.04-.02-.15-.03-.29-.07-.44-.7-2.77-3.52-4.44-6.28-3.73-6.22,1.58-16.74,2.53-28.14,2.53s-21.25-.89-27.54-2.38c-2.78-.66-5.56,1.06-6.22,3.84-.03,.12-.03,.24-.05,.36,.81-.15,1.67-.16,2.53,.02Z"/><path class="e" d="M26.34,149.31c7.13,1.69,18.04,2.66,29.93,2.66s23.68-1.06,30.69-2.85c2.62-.67,4.23-3.22,3.8-5.84-.84-.15-1.73-.16-2.62,.04-7.06,1.58-18.98,2.53-31.91,2.53s-24.1-.89-31.23-2.38c-.86-.18-1.72-.17-2.53-.02-.44,2.65,1.23,5.23,3.88,5.86Z"/><path class="d" d="M81.84,185.69c.09-.28,.13-.55,.09-.78v-.03c-.28-1.41-1.81-2.19-3.15-1.68-4.96,1.9-12.45,3.44-22.46,3.44s-17-1.47-21.89-3.3c-1.35-.5-2.86,.29-3.14,1.71,0,.04-.01,.07-.02,.11-.04,.2,0,.42,.05,.66,5.69,1.74,14.03,3.12,24.94,3.12s19.79-1.44,25.57-3.25Z"/><path class="e" d="M56.36,194.03c16.04,0,24.55-5.32,25.48-8.35-5.78,1.81-14.29,3.25-25.57,3.25s-19.25-1.38-24.94-3.12c.77,2.98,9.29,8.22,25.03,8.22Z"/></g></g></svg>