<?xml version="1.0" encoding="UTF-8"?><svg id="a" xmlns="http://www.w3.org/2000/svg" viewBox="0 0 120.21 202.54"><defs><style>.d{fill:#b3bdd3;}.e{fill:#8e97a8;}.f{fill:#b0cb4b;}.g{fill:#a66653;}.h{fill:#af9d57;}.i{fill:#cab565;}.j{fill:#c9d5ed;}.k{fill:#1e331b;}.l{fill:#233d1e;}.m{fill:#405f2c;}.n{fill:#1b2a18;}.o{fill:#44813d;}.p{fill:#6e9f41;}.q{fill:#284822;}.r{fill:#2a4e24;}.s{fill:#5c4d35;}</style></defs><g id="b"><g id="c"><path class="o" d="M69.75,114.94s-10.04,6.77-10.96,8.37l.38,7.38s8.9-11.87,12.1-13.7l-1.52-2.05Z"/><path class="k" d="M82.62,34.84c.05-.52-.88-21.85-12.34-30.2-.64-.46-1.21-1.01-1.71-1.62-.9-1.09-2.32-2.72-3.01-3.02V.08c-.34,2.08-1.42,3.95-3.01,5.32-1.93,1.66-5.48,3.27-7.14,8.52-2.48,7.8-2.86,15.96,2.01,23.04,2.83,4.12,10.19,18.94,10.19,18.94,0,0,14.81-18.57,15.02-21.06Z"/><path class="q" d="M73.09,36.87c-.13,.09-.27,.13-.4,.15,0-.22-.12-.45-.37-.59-.05-.03-.1-.05-.15-.08,.03-.38,.07-.75,.1-1.13,2.33-1.76,4.23-3.98,5.88-6.4,1.06-1.56,1.9-3.31,2.94-4.88,.16,.69,.31,1.37,.44,2.02-2.18,4.13-4.28,8.15-8.43,10.91Z"/><path class="q" d="M71.62,22.82c-.05,.05-.11,.09-.17,.12-.12-.74-.24-1.47-.37-2.19,1.79-1.97,3.18-4.24,4.34-6.64,.38-.78,.7-1.59,1.01-2.4,.33,.57,.65,1.16,.95,1.75-1.28,3.44-2.82,6.71-5.76,9.36Z"/><path class="q" d="M70.29,15.42c0-.3-.09-.58-.27-.73-.07-.05-.14-.1-.21-.15-.08-.34-.16-.69-.24-1.03,1.58-1.77,2.84-3.79,3.91-5.92,.4,.46,.79,.93,1.16,1.42-1.05,2.33-2.37,4.51-4.35,6.41Z"/><path class="q" d="M68.76,10.22c-.19-.75-.38-1.5-.57-2.26,.8-1.04,1.5-2.14,2.14-3.28,.48,.35,.94,.73,1.38,1.13-.79,1.56-1.73,3.05-2.95,4.41Z"/><path class="q" d="M67.9,6.65c.09,.77,.17,1.54,.26,2.31-2.01-1.04-3.68-2.42-5.2-3.95,.41-.39,.77-.82,1.1-1.28,1.21,1.07,2.48,2.07,3.85,2.92Z"/><path class="q" d="M72.26,30.12c-.04-.73-.1-1.47-.17-2.2,1.67-1.43,3.01-3.7,4.14-5.44,1.09-1.67,1.88-3.51,2.8-5.27,.3,.78,.57,1.55,.82,2.32-.74,1.74-1.59,3.42-2.66,5-1.37,2.01-2.76,4.39-4.93,5.59Z"/><path class="m" d="M70.11,42.16c.75,.37,1.53,.58,2.28,.97,.69,.36,.44,1.35-.35,1.31-4.55-.25-8.36-3.52-12.04-5.99-.97-.65-1.94-1.31-2.91-2-1.01-1.56-1.78-3.17-2.33-4.81,4.82,3.93,9.75,7.74,15.36,10.52Z"/><path class="m" d="M70.59,47.62c.75,.37,1.53,.58,2.28,.97,.69,.36,.44,1.35-.35,1.31-4.55-.25-8.36-3.52-12.04-5.99-.97-.65-1.94-1.31-2.91-2-1.01-1.56-1.78-3.17-2.33-4.81,4.82,3.93,9.75,7.74,15.36,10.52Z"/><path class="m" d="M70.08,35.35c.68,.38,1.4,.62,2.08,.99,.05,.03,.1,.05,.15,.08,.25,.14,.36,.37,.37,.59,.01,.38-.29,.75-.78,.7-4.54-.46-8.46-3.71-12.02-6.34-2.13-1.58-4.24-3.28-6.19-5.14-.08-1.04-.09-2.08-.04-3.13,5.07,4.84,10.36,8.89,16.43,12.25Z"/><path class="q" d="M70.18,29.21c.7,.45,1.46,.74,2.16,1.21,.65,.43,.29,1.39-.49,1.26-4.5-.75-8.2-4.26-11.58-7.11-2.12-1.79-4.2-3.72-6.1-5.81,.17-.88,.37-1.77,.6-2.65,4.69,5.08,9.65,9.4,15.41,13.1Z"/><path class="q" d="M69.47,21.83c.67,.5,1.41,.84,2.07,1.35,.62,.48,.17,2.4-.55,2.07-4.53-2.08-7.93-5.63-11.11-8.7-1.35-1.3-2.67-2.66-3.93-4.08,.35-.8,.75-1.51,1.18-2.13,3.73,4.29,7.74,8.09,12.34,11.49Z"/><path class="q" d="M69.81,14.54c.07,.05,.14,.1,.21,.15,.18,.15,.26,.42,.27,.73,.02,.71-.37,1.57-.87,1.33-4.27-2.08-7.48-5.48-10.47-8.51,.58-.55,1.17-1.01,1.73-1.42,2.27,2.3,4.68,4.46,7.29,6.48,.59,.46,1.24,.8,1.83,1.25Z"/><path class="n" d="M65.58,.01c.22,.1,.5,.32,.82,.61,1.49,4.18,7.88,23.61,7.22,47.54-.4,.52-1.8,2.35-2.18,2.84C72.54,25.79,66.84,3.61,65.58,.01Z"/><path class="r" d="M69.29,36.98c.28-.44,14.12-16.69,28.3-16.22,.79,.03,1.57-.05,2.34-.22,1.38-.31,3.5-.72,4.23-.53l-.04,.07c-1.02,1.84-1.32,3.98-.91,6.04,.5,2.49,2.31,5.94,.4,11.11-2.84,7.68-7.56,14.35-15.75,16.94-4.77,1.51-19.68,8.67-19.68,8.67,0,0-.26-23.75,1.1-25.84Z"/><path class="m" d="M75.57,44.45c.05,.15,.13,.27,.23,.36,.14-.17,.37-.28,.66-.24,.06,0,.11,.02,.17,.03,.2-.32,.41-.64,.62-.95-.76-2.82-.89-5.75-.7-8.66,.12-1.88,.54-3.77,.68-5.66-.55,.45-1.08,.89-1.59,1.33-.82,4.6-1.63,9.06-.06,13.79Z"/><path class="m" d="M85.36,34.27c.01,.07,.03,.14,.06,.2,.54-.51,1.09-1.01,1.64-1.5-.2-2.65,.1-5.3,.66-7.9,.18-.84,.43-1.68,.68-2.52-.62,.24-1.22,.51-1.82,.8-1.1,3.51-1.9,7.02-1.22,10.93Z"/><path class="m" d="M90.96,29.25c.19-.23,.43-.4,.66-.41,.09,0,.17,0,.26,0,.28-.22,.55-.45,.83-.67-.15-2.37,.09-4.73,.56-7.07-.6,.11-1.2,.25-1.79,.41-.6,2.48-.9,5.01-.51,7.73Z"/><path class="m" d="M95.36,26.1c.61-.48,1.22-.95,1.84-1.43,0-1.31,.14-2.61,.33-3.9-.6-.02-1.19,0-1.78,.04-.34,1.72-.51,3.47-.38,5.29Z"/><path class="m" d="M98.24,23.8c-.54,.56-1.09,1.11-1.63,1.67,2.22,.41,4.38,.36,6.53,.08-.08-.56-.11-1.12-.08-1.68-1.61,.11-3.23,.1-4.83-.06Z"/><path class="m" d="M80.37,39.64c.48-.55,.98-1.1,1.48-1.63-.44-2.15-.1-4.77,.08-6.84,.17-1.99,.67-3.92,1.03-5.88-.71,.43-1.4,.87-2.08,1.33-.49,1.82-.85,3.68-.97,5.58-.16,2.43-.52,5.15,.45,7.44Z"/><path class="m" d="M74.66,50.45c-.82-.17-1.56-.49-2.39-.64-.77-.14-1.18,.8-.53,1.25,3.74,2.6,8.76,2.37,13.17,2.68,1.16,.08,2.34,.16,3.53,.22,1.76-.61,3.35-1.4,4.8-2.36-6.22,.14-12.45,.1-18.58-1.15Z"/><path class="m" d="M70.93,54.46c-.82-.17-1.56-.49-2.39-.64-.77-.14-1.18,.8-.53,1.25,3.74,2.6,8.76,2.37,13.17,2.68,1.16,.08,2.34,.16,3.53,.22,1.76-.61,3.35-1.4,4.8-2.36-6.22,.14-12.45,.1-18.58-1.15Z"/><path class="m" d="M78.87,45.11c-.77-.12-1.48-.37-2.25-.5-.06,0-.11-.02-.17-.03-.29-.04-.51,.07-.66,.24-.24,.29-.24,.77,.19,1.03,3.86,2.43,8.95,2.27,13.37,2.39,2.65,.07,5.36,.02,8.04-.24,.7-.77,1.35-1.59,1.96-2.44-6.97,.7-13.64,.64-20.49-.45Z"/><path class="m" d="M82.56,40.2c-.83-.08-1.61-.31-2.45-.37-.78-.05-1.08,.92-.39,1.3,4.01,2.17,9.08,1.68,13.5,1.51,2.78-.11,5.6-.35,8.38-.83,.41-.8,.8-1.62,1.16-2.46-6.82,1.12-13.39,1.47-20.21,.85Z"/><path class="m" d="M87.66,34.81c-.84-.02-1.62-.21-2.46-.21-.78,0-1.61,1.79-.84,1.97,4.85,1.15,9.71,.43,14.11-.03,1.86-.2,3.74-.45,5.61-.8,.22-.85,.33-1.65,.38-2.4-5.58,1.09-11.08,1.62-16.79,1.47Z"/><path class="m" d="M91.88,28.85c-.09,0-.17,0-.26,0-.23,0-.47,.17-.66,.41-.45,.55-.68,1.47-.13,1.58,4.65,.99,9.27,.28,13.49-.28-.13-.79-.31-1.52-.49-2.19-3.21,.42-6.43,.63-9.74,.63-.75,0-1.47-.13-2.21-.15Z"/><path class="l" d="M104.15,20c-.23-.05-.59-.05-1.02-.02-3.74,2.38-20.73,13.78-34.93,33.05,0,.65-.02,2.96-.02,3.58,14.63-20.56,32.77-34.56,35.97-36.62Z"/><path class="g" d="M61.01,147.5c-1.46-10.38-1.2-20.91-.41-31.34,.9-11.92,2.01-23.99,2.01-35.94,.13-5.19-.09-10.34-.09-15.51-.23-2.66-3.89-2.65-4.13,0-1.99,21.87-6.43,43.62-5.87,65.66,.18,7.18,.34,14.36,1.06,21.51,.06,.62,.05,1.23,0,1.83h8.41c-.24-2.15-.71-4.3-.98-6.21Z"/><g><path class="p" d="M45.86,95.18c-8.88-7.59-19.91-12.84-32.17-11.39,6.72,10.83,19.92,13.14,32.17,11.39Z"/><path class="o" d="M45.86,95.18c-12.24,1.75-25.45-.55-32.17-11.39-4.42,.52-9,1.91-13.7,4.38,0,0,4.69,.44,8.06,2.07,3.59,.45,8.29,1.86,14.13,5.17,10.4,5.9,19.92,16.3,25.22,22.73,.04-.02,.08-.04,.13-.06,6.17,0,14.11-6.87,3.42-18.07-1.61-1.68-3.31-3.3-5.09-4.83Z"/><path class="r" d="M22.19,95.41c-5.85-3.31-10.54-4.72-14.13-5.17,1.39,.67,2.57,1.54,3.08,2.67,1.75,3.85,16.54,36.27,36.27,25.24-5.3-6.43-14.82-16.84-25.22-22.73Z"/></g><path class="h" d="M56.77,127.63c0,.89-.29,1.78-.87,2.52-1.2,1.53-3.59,1.24-4.39-.53-1.16-2.57-3.06-6.23-6.01-10.54-2.22-3.24-5.04-6.85-8.59-10.66-8.75-9.38-19.86-14.23-26.36-16.41-1.11-1.29-3.12-2.18-5.1-2.76h0c.19,0,19.49,1.92,33.36,16.78,8.83,9.47,14.31,15.75,17.02,19,.63,.75,.94,1.68,.94,2.61Z"/><path class="r" d="M6.55,52.1s3.79-3.48,16.01-2.93c13.03,.58,18.55,3.33,24.65,11.15,10.17,13.05,5.37,22.72,5.37,22.72l-13.08-13.25-20.87-14.92s-7.71-3.6-12.07-2.77Z"/><path class="m" d="M49.84,80.27l2.73,2.77s2.76-5.57-.34-13.95c-.21,2.33-.51,4.67-1.1,7-.36,1.41-.81,2.8-1.29,4.19Z"/><path class="m" d="M18.78,54.98l3.77,2.69c-.14-1.98-.4-3.96-.64-5.87-.11-.92-.26-1.8-.44-2.68-1.2-.03-2.31-.02-3.34,.02,.17,.97,.32,1.95,.42,2.93,.09,.97,.17,1.94,.24,2.9Z"/><path class="m" d="M15.67,53.67c-.13-.57-.26-1.13-.38-1.68-.2-.88-.43-1.72-.69-2.55-1.25,.16-2.33,.37-3.25,.6,.23,.82,.44,1.65,.61,2.49,1.33,.32,2.63,.75,3.72,1.14Z"/><path class="m" d="M25.82,60.02l3.58,2.56c-.12-4.33-.54-8.71-1.35-12.98-1.01-.12-2.07-.22-3.19-.3,.23,1.7,.43,3.41,.58,5.13,.16,1.85,.25,3.72,.38,5.59Z"/><path class="m" d="M39.8,62.14c-.13,2.42-.5,4.84-.86,7.26l.55,.39,3.11,3.15c.67-3.91,.92-7.99,.97-11.82,.03-1.82-.11-3.54-.36-5.23-1.25-1.15-2.55-2.13-3.96-2.95,.38,3.03,.71,6.06,.55,9.19Z"/><path class="m" d="M44.27,74.63l3.3,3.34c.9-3.09,1.56-6.27,2.08-9.3,.24-1.41,.37-2.78,.43-4.13-.79-1.36-1.73-2.77-2.86-4.22-.19-.24-.38-.48-.57-.72-.09,3.16-.22,6.32-.88,9.49-.39,1.86-.93,3.7-1.49,5.53Z"/><path class="m" d="M32.35,64.68l3.45,2.47c.19-2.95,.15-5.94,.06-8.75-.07-2.43-.32-4.86-.66-7.27-1.01-.34-2.07-.63-3.22-.88,.26,2.48,.5,4.96,.55,7.46,.05,2.33-.05,4.65-.19,6.98Z"/><path class="i" d="M50.39,84.97s4.29,5.67,4.63,8.24c0,0,2.51,.1,2.41-2.66-.1-2.75-4.86-7.51-4.86-7.51,0,0-1.73-.61-2.18,1.93Z"/><path class="p" d="M43.01,66.09c-.9-1.12-1.85-2.28-2.92-3.51-4.19-4.78-9.86-7.45-15.35-8.92,3.47,6.98,10.58,10.82,18.28,12.43Z"/><path class="o" d="M24.73,53.66c-9.36-2.52-18.18-1.55-18.18-1.55,21.04,4.78,43.84,32.86,43.84,32.86,.17-1.01,2.18-1.93,2.18-1.93,0,0-.99-6.2-9.57-16.95-7.7-1.62-14.8-5.45-18.28-12.43Z"/><g><path class="f" d="M57.56,13.92c-2.49-1.54-4.78-1.91-6.76-1.67,1.64,11.68,10.71,20.83,21.44,24.86-1.14-8.28-6.49-18.11-14.68-23.19Z"/><path class="p" d="M50.8,12.25c-4.31,.52-7.2,3.92-7.63,4.46,4.69,6.49,10.03,15.86,13.11,27.81,2.91,11.29,3.88,21.59,4.07,29.46,.04,0,.08,0,.12,.01,14.28,.33,12.84-28,11.85-36.38-.02-.17-.05-.34-.08-.51-10.73-4.03-19.81-13.18-21.44-24.86Z"/><path class="o" d="M43.17,16.71s-.06,.08-.06,.08c-8.05-.11-10.69,7.83-10.25,18.08,.44,10.22,13.26,38.63,27.5,39.12-.2-7.87-1.16-18.18-4.07-29.46-3.08-11.96-8.42-21.32-13.11-27.81Z"/></g><path class="s" d="M62.41,74.27c-.28-4.22,.5-10.89-3.24-24.35-4.59-16.57-11.83-29.72-15.93-33.29-.08,.1-.13,.16-.13,.16-.24,0-.48,0-.71,.01,.65,.93,1.56,2.3,2.3,3.75,2.42,4.75,9.55,18.81,11.58,30.34,.9,5.14,1.3,9.69,1.4,13.63,.13,5.23-.27,9.33-.7,12.12-.29,1.89,1.51,3.44,3.33,2.85,.92-.3,2.35-1.48,2.11-5.21Z"/><g><path class="p" d="M103.89,50.83c-4.4-2.16-12.41,.54-15.63,1.43-3.47,.96-6.9,2.09-10.17,3.59,8.21,4.53,17.28,.64,25.8-5.01Z"/><path class="o" d="M78.09,55.84c-.91,.41-1.81,.85-2.69,1.32-3.76,2.04-7.68,5.12-10.56,8.84-4.45,5.76-6.56,13.92-1.14,19.85,1.16,1.27,2.59,2.29,4.16,2.99,1.24,.55,3.2,1.12,5.18,1.22,3.61-6.01,10.14-16.88,12.06-20.22,2.7-4.69,20.45-17.75,20.45-17.75h0c-.46-.54-1.03-.95-1.67-1.27-8.52,5.65-17.59,9.54-25.8,5.01Z"/><path class="o" d="M79.81,92.82c7.14,0,16.48-8.64,19.41-11.92,.76-.86,1.44-1.76,2.07-2.69-9.43,1.47-18.21,5.78-21.47,14.61Z"/><path class="r" d="M108.81,57.07c-.35-1.62-1.61-4.33-3.25-4.97h0s-17.75,13.06-20.45,17.75c-1.92,3.33-8.44,14.21-12.06,20.22,.38,.02,.76,.02,1.13,0,1.51,1.97,3.47,2.75,5.63,2.75,3.27-8.83,12.04-13.13,21.47-14.61,1.4-2.06,2.54-4.27,3.71-6.51,2.25-4.31,4.91-9.6,3.82-14.63Z"/></g><path class="s" d="M105.41,51.94c-2.14,1.55-4.5,2.81-6.72,4.25-5.48,3.57-10.42,7.96-14.68,12.91-4.43,5.15-7.69,10.87-10.98,16.77-1.18,2.12-2.41,4.23-3.81,6.22-1.43,2.05-3.3,4.47-5.54,5.7-1.89,1.04-7.9,3.07-4.67,6.17,2.62,2.51,7.92-2.02,9.82-3.71,3.73-3.34,6.18-7.75,8.48-12.13,2.66-5.07,5.18-10.18,8.35-14.96,4.94-7.42,11.66-12.74,18.08-18.76,.44-.41,1.39-1.53,1.93-2.25-.04-.02-.07-.04-.11-.05-.05-.06-.1-.1-.15-.16Z"/><path class="r" d="M69.55,116.19s4.46,15.43,25.74,3.16c14.98-8.64,19.96-17.47,21.43-20.96,.5-1.19,2.04-1.61,2.98-.74,.21,.19,.37,.43,.45,.73,0,0,1.32-4.58-9.71-6.68-11.03-2.1-24.08,.08-32.98,7.66-8.59,7.32-13.51,13.8-7.92,16.83Z"/><path class="m" d="M73.89,112.1c.63-.48,1.28-.94,1.95-1.38,.07-.61,.11-1.24,.24-1.84,.48-2.3,1.28-4.52,2.37-6.6,1.25-2.39,2.87-4.52,4.48-6.66-1.81,.99-3.52,2.14-5.11,3.46-2.5,4.05-4.22,8.63-3.93,13.03Z"/><path class="m" d="M71.3,108.54c.21-1.48,.56-2.92,.96-4.35-1.18,1.22-2.19,2.4-2.99,3.51-.44,2.82-.5,5.68,.01,8.33,.09,.05,.18,.11,.27,.16,0,0,.01,.05,.04,.13,.49-.63,1.01-1.24,1.56-1.81-.18-1.99-.14-3.99,.14-5.97Z"/><path class="m" d="M83.08,106.88c.02-.13,.04-.27,.07-.4,.48-2.3,1.28-4.52,2.37-6.6,1.38-2.64,3.21-4.95,4.97-7.32-1.22,.35-2.43,.75-3.61,1.21-3.13,4.15-5.66,9.18-5.93,14.1,.7-.34,1.42-.67,2.13-.99Z"/><path class="m" d="M90.88,103.76c.49-1.98,1.2-3.89,2.14-5.7,1.29-2.47,2.98-4.66,4.64-6.88-1.01,.11-2.02,.26-3.03,.43-2.94,3.82-5.41,8.42-6.05,13.01,.76-.29,1.52-.58,2.29-.87Z"/><path class="m" d="M97.42,101.26c.31-.12,.61-.25,.92-.37,.46-1.47,1.03-2.91,1.75-4.28,1.05-2.01,2.37-3.84,3.72-5.64-.9-.03-1.8-.03-2.7,0-2.4,3.28-4.4,7.07-5.21,10.9,.51-.2,1.02-.4,1.53-.6Z"/><path class="m" d="M106.11,97.79c.26-.62,.54-1.22,.85-1.82,.81-1.55,1.78-2.99,2.8-4.4-.8-.14-1.61-.25-2.43-.35-1.63,2.36-3.02,4.95-3.92,7.61,.89-.35,1.79-.7,2.69-1.05Z"/><path class="m" d="M112.76,95.46c.56-.93,1.17-1.83,1.8-2.71-.66-.23-1.39-.45-2.2-.65-.95,1.38-1.82,2.84-2.55,4.34,.98-.34,1.97-.67,2.96-.98Z"/><path class="m" d="M72.75,113.77c-.09-.05-.17-.09-.26-.11-.29,.24-.59,.48-.9,.7-.03,.23,.02,.47,.18,.67,1.33,1.71,3.52,2.46,5.49,3.23,2.79,1.1,5.69,1.84,8.66,2.23,2.17,.28,4.34,.35,6.52,.38,.91-.45,1.86-.96,2.85-1.53,.56-.32,1.1-.64,1.62-.96-8.35,.18-16.89-.22-24.17-4.61Z"/><path class="m" d="M80.05,109.2c-.13,.06-.27,.12-.4,.19-.49,.24-.98,.46-1.47,.68,1.34,1.54,3.41,2.26,5.27,2.99,2.79,1.1,5.69,1.84,8.66,2.23,2.96,.39,5.94,.37,8.92,.41,1.23-.86,2.38-1.72,3.44-2.56-8.35,.23-16.99,.07-24.42-3.94Z"/><path class="m" d="M88.12,105.52c-.67,.3-1.35,.6-2.02,.9,1.49,1.47,3.67,1.99,5.65,2.55,2.89,.81,5.85,1.27,8.84,1.36,2.53,.08,5.03-.13,7.54-.35,1.01-.96,1.91-1.89,2.72-2.78-7.67,.91-15.54,1.28-22.72-1.68Z"/><path class="m" d="M99.17,100.95c-.88,.31-1.75,.63-2.62,.96,1.44,1.07,3.31,1.53,5.02,2.01,2.89,.81,6.81,.83,9.81,.93,.37,.01,.87,0,1.46-.05,.57-.74,1.07-1.44,1.51-2.09-5.17,.27-10.31-.03-15.17-1.77Z"/><path class="m" d="M104.89,99.04c.35,.1,.7,.19,1.04,.28,1.6,.44,5.76,.91,9.76,1.18,.31-.57,.57-1.08,.77-1.53-2.59-.3-5.19-.65-7.75-1.15-1.27,.41-2.55,.81-3.82,1.21Z"/><path class="n" d="M70.05,116.47c.04-.07,5.68-5.28,27.07-14.05,12.83-5.27,18.82-7.55,22.85-5.66-.11-.28-.27-.58-.5-.89-3.87-1.32-10.73,.22-23.21,4.61-21.86,7.7-26.64,14.52-27.16,15.35l-.05,.05c.16,.1,.33,.21,.51,.3,0,0,.06,.22,.21,.59l.19-.18,.1-.12Z"/></g><g><path class="j" d="M40.8,158.8c3.09-.87,4.93,.92,7.46,2.41,3.26,1.92,6.2,1.3,9.39-.24,3.01-1.45,6.91-3.5,10.4-2.76,2.35,.5,3.7,2.85,6.09,3.36,2.63,.57,5.25-.7,7.49-1.88,.5-.26,1.01-.48,1.53-.67-1.3-2.13-2.77-4.18-4.37-6.08-1.08-1.29-2.67-2.04-4.35-2.04H40.64c-1.59,0-3.1,.68-4.18,1.85-2.27,2.46-4.36,5.16-6.07,7.99,.17,.06,.33,.12,.49,.17,4.07,1.27,6.27-1.08,9.92-2.11Z"/><path class="d" d="M81.62,159.69c-2.24,1.18-4.86,2.44-7.49,1.88-2.39-.51-3.74-2.86-6.09-3.36-3.48-.74-7.39,1.31-10.4,2.76-3.19,1.54-6.13,2.15-9.39,.24-2.53-1.49-4.36-3.28-7.46-2.41-3.65,1.03-5.85,3.38-9.92,2.11-.16-.05-.32-.11-.49-.17-2.82,4.64-4.64,9.66-4.64,14.59,0,17.37,13.05,27.22,31.7,27.22s31.11-9.06,31.11-26.43c0-5.76-2.14-11.71-5.42-17.1-.52,.19-1.03,.4-1.53,.67Z"/><path class="e" d="M80.8,189.78c-.66,.45-1.23,1.12-1.96,1.45-1.58,.72-3.11,0-4.54-.53-3.95-1.46-6.3-.63-9.92,1.15-2.65,1.3-4.76,1.65-7.64,.68-1.54-.51-2.98-1.3-4.56-1.67-4-.92-7.53,.61-11.41,1.18-4.56,.67-5.3-3.97-9.07-5.01-1.23-.34-2.47-.43-3.69-.33,4.49,10.22,15.38,15.84,29.46,15.84s24.67-5.19,28.98-15.23l-.5,.15c-1.86,.55-3.53,1.24-5.14,2.32Z"/><path class="e" d="M79.27,170.76c-1.49,2.18-3.4,3.47-4.27,2.88-.87-.59-.36-2.84,1.13-5.02,1.49-2.18,3.4-3.47,4.27-2.88,.87,.59,.36,2.84-1.13,5.02Z"/><path class="e" d="M40.12,176.22c-1.49,2.18-3.4,3.47-4.27,2.88-.87-.59-.36-2.84,1.13-5.02,1.49-2.18,3.4-3.47,4.27-2.88,.87,.59,.36,2.84-1.13,5.02Z"/><path class="e" d="M51.53,183.66c-1.75,2.57-4.11,4.01-5.27,3.22-1.15-.79-.67-3.51,1.09-6.08,1.76-2.57,4.11-4.01,5.27-3.22,1.15,.79,.67,3.51-1.09,6.08Z"/><path class="e" d="M75.33,182.54c-1.1,1.61-2.52,2.56-3.16,2.13-.64-.44-.27-2.1,.84-3.71s2.52-2.56,3.16-2.13c.64,.44,.27,2.1-.84,3.71Z"/><path class="e" d="M82.08,176.03c-1.1,1.61-2.52,2.56-3.16,2.13-.64-.44-.27-2.1,.84-3.71,1.1-1.61,2.52-2.56,3.16-2.13,.64,.44,.27,2.1-.84,3.71Z"/><path class="e" d="M47.02,176.29c-1.1,1.61-2.52,2.56-3.16,2.13-.64-.44-.27-2.1,.84-3.71,1.1-1.61,2.52-2.56,3.16-2.13,.64,.44,.27,2.1-.84,3.71Z"/><path class="e" d="M80.78,183.96c-.76,1.12-1.9,1.67-2.54,1.23-.64-.44-.54-1.7,.22-2.82,.76-1.12,1.9-1.67,2.54-1.23,.64,.44,.54,1.7-.22,2.82Z"/><path class="e" d="M42.71,184.48c-.76,1.12-1.9,1.67-2.54,1.23-.64-.44-.54-1.7,.22-2.82,.76-1.12,1.9-1.67,2.54-1.23,.64,.44,.54,1.7-.22,2.82Z"/></g></g></svg>