<?xml version="1.0" encoding="utf-8"?>
<!-- Generator: Adobe Illustrator 26.4.1, SVG Export Plug-In . SVG Version: 6.00 Build 0)  -->
<svg version="1.1" id="Layer_1" xmlns:serif="http://www.serif.com/"
	 xmlns="http://www.w3.org/2000/svg" xmlns:xlink="http://www.w3.org/1999/xlink" x="0px" y="0px" viewBox="0 0 400 58.7"
	 style="enable-background:new 0 0 400 58.7;" xml:space="preserve">
<style type="text/css">
	.st0{fill-rule:evenodd;clip-rule:evenodd;fill:#FFD800;}
</style>
<g transform="matrix(1,0,0,1,-634.728,-382.568)">
	<path class="st0" d="M665.6,382.6l7.3,22.4h23.6l-19.1,13.9l7.3,22.4l-19.1-13.9l-19.1,13.9l7.3-22.4L634.7,405h23.6L665.6,382.6z"
		/>
</g>
<g transform="matrix(1,0,0,1,-447.914,-382.568)">
	<path class="st0" d="M563.6,382.6l7.3,22.4h23.6l-19.1,13.9l7.3,22.4l-19.1-13.9l-19.1,13.9l7.3-22.4L532.7,405h23.6L563.6,382.6z"
		/>
</g>
<g transform="matrix(1,0,0,1,-261.961,-382.568)">
	<path class="st0" d="M462.1,382.6l7.3,22.4h23.6l-19.1,13.9l7.3,22.4l-19.1-13.9L443,441.3l7.3-22.4L431.2,405h23.6L462.1,382.6z"
		/>
</g>
<g transform="matrix(1,0,0,1,-76.0238,-382.568)">
	<path class="st0" d="M360.5,382.6l7.3,22.4h23.6l-19.1,13.9l7.3,22.4l-19.1-13.9l-19.1,13.9l7.3-22.4L329.7,405h23.6L360.5,382.6z"
		/>
</g>
<g transform="matrix(1,0,0,1,109.853,-382.568)">
	<path class="st0" d="M259.1,382.6l7.3,22.4h23.6l-19.1,13.9l7.3,22.4l-19.1-13.9L240,441.3l7.3-22.4L228.2,405h23.6L259.1,382.6z"
		/>
</g>
</svg>
